<svg width="164" height="41" viewBox="0 0 164 41" fill="none" xmlns="http://www.w3.org/2000/svg">
<path fill-rule="evenodd" clip-rule="evenodd" d="M8.0612 0.5H40.0001V20.7353V40.5H11.9048C11.8728 40.4521 11.692 39.9337 11.6611 39.8866C11.3943 39.4792 11.1669 39.1318 10.7201 39.3322C9.92658 39.6877 8.33601 39.9246 7.56473 39.8593C7.51731 39.918 7.45389 39.967 7.37448 40.0022C7.28078 40.0438 7.12022 39.9844 6.94026 39.8685C6.89455 39.9152 6.84315 39.9704 6.78659 40.0294H2.42624C2.25027 39.8655 2.10803 39.595 1.9235 39.1559C1.6664 38.5456 1.53841 37.579 1.63896 37.0081C1.78693 36.1685 1.69496 35.9059 1.15906 35.6366C0.566025 35.3384 0.172947 34.8409 -0.000732422 34.192V30.5269C0.0249748 30.5259 0.0512695 30.5253 0.0786934 30.5253C1.10079 30.5253 1.68353 29.8756 1.10764 29.3777C0.848255 29.1536 0.588314 28.6819 0.529465 28.3297C0.390636 27.494 0.0729713 23.1469 0.104393 22.5112C0.118103 22.24 0.0992508 20.9084 0.0632591 19.5522C-0.0470047 15.4167 0.0849648 13.9482 0.602585 13.531C0.884819 13.3038 0.693996 12.406 0.454613 11.2802C0.246651 10.3033 0.00269318 9.15478 -0.000732422 8.12355V6.25712C0.0386887 5.58208 0.166103 5.05476 0.529465 5.01765C1.06879 4.96269 1.64753 4.89312 1.66581 4.45294C1.66981 4.36201 1.62696 4.19105 1.5744 3.98046C1.431 3.40619 1.21332 2.53733 1.66581 2.19414C2.21085 1.7811 2.71991 1.98727 3.03414 2.11456C3.28495 2.2163 3.41179 2.2676 3.33238 1.91176C3.1067 0.898335 4.64812 0.782387 5.27715 0.782387C5.77192 0.782387 8.71194 2.78348 8.71194 3.14178C8.71194 3.28429 8.9439 3.40069 9.22727 3.40069C10.0151 3.40069 9.84544 2.86266 8.75821 1.91576C8.00178 1.2571 7.83839 0.932629 8.05206 0.517353L8.0612 0.5ZM3.21354 10.7367C3.21354 11.5474 2.38569 11.3204 2.24572 10.4711C2.18573 10.1086 2.27599 9.81196 2.44624 9.81196C2.96443 9.81196 3.21354 10.1118 3.21354 10.7367Z" fill="#EE991A"/>
<g clip-path="url(#clip0_28_548)">
<path fill-rule="evenodd" clip-rule="evenodd" d="M12.8113 30.1C12.8113 28.78 13.8793 27.7 15.1993 27.7C16.5193 27.7 17.5993 28.78 17.5993 30.1C17.5993 31.42 16.5193 32.5 15.1993 32.5C13.8793 32.5 12.8113 31.42 12.8113 30.1ZM7.99927 10.9V8.5H11.9233L13.0513 10.9H30.7993C31.4593 10.9 31.9993 11.44 31.9993 12.1C31.9993 12.304 31.9513 12.508 31.8553 12.676L27.5593 20.464C27.1513 21.208 26.3593 21.7 25.4593 21.7H16.5193L15.4393 23.656L15.4033 23.8C15.4033 23.968 15.5353 24.1 15.7033 24.1H29.5993V26.5H15.1993C13.8793 26.5 12.7993 25.42 12.7993 24.1C12.7993 23.68 12.9073 23.284 13.0993 22.948L14.7193 20.008L10.3993 10.9H7.99927ZM24.8113 30.1C24.8113 28.78 25.8793 27.7 27.1993 27.7C28.5193 27.7 29.5993 28.78 29.5993 30.1C29.5993 31.42 28.5193 32.5 27.1993 32.5C25.8793 32.5 24.8113 31.42 24.8113 30.1ZM21.7479 16.2154C21.7479 15.834 21.4385 15.5247 21.0572 15.5247C20.6759 15.5247 20.3665 15.847 20.3665 16.2154C20.3665 16.5837 20.6759 16.9061 21.0572 16.9061C21.4385 16.9061 21.7479 16.5967 21.7479 16.2154ZM19.4269 18.8111L20.4471 17.1809C20.1219 16.9751 19.9032 16.6168 19.9033 16.2053H17.978C17.6997 16.2053 17.478 16.4514 17.5185 16.7269C17.6478 17.6044 18.0974 18.3774 18.7441 18.9256C18.9549 19.1046 19.2801 19.0456 19.4269 18.8111ZM22.6888 18.811C22.8356 19.0456 23.16 19.1046 23.371 18.9256C24.0171 18.3781 24.4661 17.604 24.596 16.7271C24.6365 16.4518 24.4149 16.2053 24.1366 16.2053H22.2112C22.2112 16.6168 21.9925 16.9751 21.6673 17.1809L22.6888 18.811ZM21.0572 15.0527C21.2817 15.0527 21.4903 15.1203 21.6673 15.2311L22.6878 13.5998C22.8337 13.3665 22.7477 13.0501 22.4962 12.9386C22.0561 12.7433 21.5695 12.6338 21.0572 12.6338C20.5449 12.6338 20.0586 12.7432 19.6185 12.9381C19.367 13.0497 19.281 13.3661 19.4269 13.5993L20.4471 15.2311C20.6241 15.1203 20.8327 15.0527 21.0572 15.0527Z" fill="#060605"/>
</g>
<rect width="110" height="40" transform="translate(40.0001 0.5)" fill="#F2E8D9"/>
<path d="M50.9917 27.5V14.54H54.7997C55.5784 14.54 56.2077 14.684 56.6877 14.972C57.1784 15.26 57.5357 15.6813 57.7597 16.236C57.9944 16.78 58.1117 17.4413 58.1117 18.22C58.1117 19.0627 57.9677 19.7453 57.6797 20.268C57.3917 20.78 56.9864 21.1533 56.4637 21.388C55.9517 21.6227 55.3437 21.74 54.6397 21.74H53.3597V27.5H50.9917ZM53.3597 20.076H54.2557C54.6824 20.076 55.013 20.0173 55.2477 19.9C55.493 19.772 55.6584 19.5747 55.7437 19.308C55.8397 19.0307 55.8877 18.6627 55.8877 18.204C55.8877 17.7347 55.8504 17.356 55.7757 17.068C55.7117 16.7693 55.5624 16.5507 55.3277 16.412C55.1037 16.2733 54.7464 16.204 54.2557 16.204H53.3597V20.076ZM59.4292 27.5V14.54H62.5332C63.4079 14.54 64.1439 14.6467 64.7412 14.86C65.3492 15.0627 65.8079 15.4147 66.1172 15.916C66.4372 16.4173 66.5972 17.1 66.5972 17.964C66.5972 18.4867 66.5492 18.956 66.4532 19.372C66.3572 19.788 66.1919 20.1453 65.9572 20.444C65.7332 20.732 65.4185 20.956 65.0132 21.116L66.8212 27.5H64.4532L62.8852 21.564H61.7972V27.5H59.4292ZM61.7972 20.076H62.5332C62.9919 20.076 63.3545 20.012 63.6212 19.884C63.8985 19.7453 64.0959 19.532 64.2132 19.244C64.3305 18.9453 64.3892 18.5667 64.3892 18.108C64.3892 17.4573 64.2665 16.972 64.0212 16.652C63.7865 16.3213 63.3332 16.156 62.6612 16.156H61.7972V20.076ZM68.3979 27.5V14.54H73.8379V16.204H70.7659V19.932H73.1819V21.58H70.7659V25.868H73.8699V27.5H68.3979ZM78.7617 27.676C77.8444 27.676 77.1137 27.5053 76.5697 27.164C76.0257 26.8227 75.6364 26.332 75.4017 25.692C75.167 25.052 75.0497 24.2947 75.0497 23.42V18.572C75.0497 17.6973 75.167 16.9507 75.4017 16.332C75.6364 15.7027 76.0257 15.2227 76.5697 14.892C77.1137 14.5613 77.8444 14.396 78.7617 14.396C79.7004 14.396 80.4364 14.5613 80.9697 14.892C81.5137 15.2227 81.903 15.7027 82.1377 16.332C82.383 16.9507 82.5057 17.6973 82.5057 18.572V23.436C82.5057 24.3 82.383 25.052 82.1377 25.692C81.903 26.3213 81.5137 26.812 80.9697 27.164C80.4364 27.5053 79.7004 27.676 78.7617 27.676ZM78.7617 25.932C79.1564 25.932 79.4444 25.8467 79.6257 25.676C79.8177 25.5053 79.9457 25.2707 80.0097 24.972C80.0737 24.6733 80.1057 24.348 80.1057 23.996V18.028C80.1057 17.6653 80.0737 17.34 80.0097 17.052C79.9457 16.764 79.8177 16.54 79.6257 16.38C79.4444 16.2093 79.1564 16.124 78.7617 16.124C78.3884 16.124 78.1057 16.2093 77.9137 16.38C77.7217 16.54 77.5937 16.764 77.5297 17.052C77.4657 17.34 77.4337 17.6653 77.4337 18.028V23.996C77.4337 24.348 77.4604 24.6733 77.5137 24.972C77.5777 25.2707 77.7057 25.5053 77.8977 25.676C78.0897 25.8467 78.3777 25.932 78.7617 25.932ZM84.2573 27.5V14.54H87.3613C88.236 14.54 88.972 14.6467 89.5693 14.86C90.1773 15.0627 90.636 15.4147 90.9453 15.916C91.2653 16.4173 91.4253 17.1 91.4253 17.964C91.4253 18.4867 91.3773 18.956 91.2813 19.372C91.1853 19.788 91.02 20.1453 90.7853 20.444C90.5613 20.732 90.2467 20.956 89.8413 21.116L91.6493 27.5H89.2813L87.7133 21.564H86.6253V27.5H84.2573ZM86.6253 20.076H87.3613C87.82 20.076 88.1827 20.012 88.4493 19.884C88.7267 19.7453 88.924 19.532 89.0413 19.244C89.1587 18.9453 89.2173 18.5667 89.2173 18.108C89.2173 17.4573 89.0947 16.972 88.8493 16.652C88.6147 16.3213 88.1613 16.156 87.4893 16.156H86.6253V20.076ZM93.2261 27.5V14.54H96.2821C97.3381 14.54 98.1594 14.684 98.7461 14.972C99.3434 15.26 99.7647 15.7027 100.01 16.3C100.266 16.8973 100.394 17.6547 100.394 18.572V23.308C100.394 24.2467 100.266 25.0307 100.01 25.66C99.7647 26.2787 99.3487 26.7427 98.7621 27.052C98.1861 27.3507 97.3914 27.5 96.3781 27.5H93.2261ZM95.5941 25.852H96.3141C96.8581 25.852 97.2474 25.756 97.4821 25.564C97.7167 25.372 97.8607 25.0947 97.9141 24.732C97.9674 24.3587 97.9941 23.9053 97.9941 23.372V18.412C97.9941 17.8893 97.9567 17.468 97.8821 17.148C97.8074 16.828 97.6527 16.5933 97.4181 16.444C97.1834 16.2947 96.8047 16.22 96.2821 16.22H95.5941V25.852ZM102.132 27.5V14.54H107.572V16.204H104.5V19.932H106.916V21.58H104.5V25.868H107.604V27.5H102.132ZM108.976 27.5V14.54H112.08C112.955 14.54 113.691 14.6467 114.288 14.86C114.896 15.0627 115.355 15.4147 115.664 15.916C115.984 16.4173 116.144 17.1 116.144 17.964C116.144 18.4867 116.096 18.956 116 19.372C115.904 19.788 115.739 20.1453 115.504 20.444C115.28 20.732 114.965 20.956 114.56 21.116L116.368 27.5H114L112.432 21.564H111.344V27.5H108.976ZM111.344 20.076H112.08C112.539 20.076 112.901 20.012 113.168 19.884C113.445 19.7453 113.643 19.532 113.76 19.244C113.877 18.9453 113.936 18.5667 113.936 18.108C113.936 17.4573 113.813 16.972 113.568 16.652C113.333 16.3213 112.88 16.156 112.208 16.156H111.344V20.076ZM121.835 27.5V14.54H123.483L126.635 21.932V14.54H128.587V27.5H127.019L123.851 19.756V27.5H121.835ZM134.074 27.676C133.157 27.676 132.426 27.5053 131.882 27.164C131.338 26.8227 130.949 26.332 130.714 25.692C130.48 25.052 130.362 24.2947 130.362 23.42V18.572C130.362 17.6973 130.48 16.9507 130.714 16.332C130.949 15.7027 131.338 15.2227 131.882 14.892C132.426 14.5613 133.157 14.396 134.074 14.396C135.013 14.396 135.749 14.5613 136.282 14.892C136.826 15.2227 137.216 15.7027 137.45 16.332C137.696 16.9507 137.818 17.6973 137.818 18.572V23.436C137.818 24.3 137.696 25.052 137.45 25.692C137.216 26.3213 136.826 26.812 136.282 27.164C135.749 27.5053 135.013 27.676 134.074 27.676ZM134.074 25.932C134.469 25.932 134.757 25.8467 134.938 25.676C135.13 25.5053 135.258 25.2707 135.322 24.972C135.386 24.6733 135.418 24.348 135.418 23.996V18.028C135.418 17.6653 135.386 17.34 135.322 17.052C135.258 16.764 135.13 16.54 134.938 16.38C134.757 16.2093 134.469 16.124 134.074 16.124C133.701 16.124 133.418 16.2093 133.226 16.38C133.034 16.54 132.906 16.764 132.842 17.052C132.778 17.34 132.746 17.6653 132.746 18.028V23.996C132.746 24.348 132.773 24.6733 132.826 24.972C132.89 25.2707 133.018 25.5053 133.21 25.676C133.402 25.8467 133.69 25.932 134.074 25.932ZM140.93 27.5L139.09 14.54H141.074L142.146 22.94L143.49 14.572H145.106L146.482 22.94L147.538 14.54H149.49L147.682 27.5H145.762L144.322 18.812L142.898 27.5H140.93Z" fill="#060605"/>
<path fill-rule="evenodd" clip-rule="evenodd" d="M154.667 40.5H150V20.5V0.5H150.39C150.427 0.54847 150.464 0.596883 150.499 0.644484C150.808 1.05681 151.071 1.40829 151.589 1.20555C152.507 0.845753 154.349 0.606066 155.242 0.672144C155.296 0.612758 155.37 0.563181 155.462 0.527549C155.57 0.485411 155.756 0.545516 155.965 0.662787C156.017 0.615521 156.077 0.559693 156.142 0.5H161.19C161.394 0.665817 161.559 0.939588 161.772 1.38392C162.07 2.00149 162.218 2.97962 162.102 3.55727C161.93 4.40689 162.037 4.67264 162.657 4.94511C163.344 5.24682 163.799 5.75027 164 6.40688V10.1156C163.97 10.1167 163.94 10.1172 163.908 10.1172C162.725 10.1172 162.05 10.7747 162.717 11.2785C163.017 11.5053 163.318 11.9827 163.386 12.339C163.547 13.1846 163.915 17.5835 163.878 18.2267C163.862 18.5012 163.884 19.8486 163.926 21.221C164.054 25.4058 163.901 26.8917 163.302 27.3139C162.975 27.5438 163.196 28.4523 163.473 29.5915C163.714 30.58 163.996 31.7422 164 32.7857V34.6743C163.954 35.3574 163.807 35.891 163.386 35.9286C162.762 35.9842 162.092 36.0546 162.071 36.5C162.066 36.592 162.116 36.765 162.177 36.9781C162.343 37.5592 162.595 38.4384 162.071 38.7857C161.44 39.2037 160.85 38.995 160.487 38.8662C160.196 38.7633 160.049 38.7114 160.141 39.0714C160.403 40.0969 158.618 40.2143 157.89 40.2143C157.317 40.2143 153.913 38.1893 153.913 37.8268C153.913 37.6826 153.645 37.5648 153.317 37.5648C152.405 37.5648 152.601 38.1092 153.86 39.0674C154.736 39.7339 154.925 40.0622 154.677 40.4824L154.667 40.5ZM160.279 30.1414C160.279 29.321 161.237 29.5508 161.399 30.4102C161.469 30.777 161.364 31.0772 161.167 31.0772C160.567 31.0772 160.279 30.7738 160.279 30.1414Z" fill="#F2E8D9"/>
<defs>
<clipPath id="clip0_28_548">
<rect width="24" height="24" fill="white" transform="translate(7.99927 8.5)"/>
</clipPath>
</defs>
</svg>
