<svg width="40" height="40" viewBox="0 0 40 40" fill="none" xmlns="http://www.w3.org/2000/svg">
<path fill-rule="evenodd" clip-rule="evenodd" d="M8.0612 0.5H40.0001V20.7353V40.5H11.9048C11.8728 40.4521 11.692 39.9337 11.6611 39.8866C11.3943 39.4792 11.1669 39.1318 10.7201 39.3322C9.92658 39.6877 8.33601 39.9246 7.56473 39.8593C7.51731 39.918 7.45389 39.967 7.37448 40.0022C7.28078 40.0438 7.12022 39.9844 6.94026 39.8685C6.89455 39.9152 6.84315 39.9704 6.78659 40.0294H2.42624C2.25027 39.8655 2.10803 39.595 1.9235 39.1559C1.6664 38.5456 1.53841 37.579 1.63896 37.0081C1.78693 36.1685 1.69496 35.9059 1.15906 35.6366C0.566025 35.3384 0.172947 34.8409 -0.000732422 34.192V30.5269C0.0249748 30.5259 0.0512695 30.5253 0.0786934 30.5253C1.10079 30.5253 1.68353 29.8756 1.10764 29.3777C0.848255 29.1536 0.588314 28.6819 0.529465 28.3297C0.390636 27.494 0.0729713 23.1469 0.104393 22.5112C0.118103 22.24 0.0992508 20.9084 0.0632591 19.5522C-0.0470047 15.4167 0.0849648 13.9482 0.602585 13.531C0.884819 13.3038 0.693996 12.406 0.454613 11.2802C0.246651 10.3033 0.00269318 9.15478 -0.000732422 8.12355V6.25712C0.0386887 5.58208 0.166103 5.05476 0.529465 5.01765C1.06879 4.96269 1.64753 4.89312 1.66581 4.45294C1.66981 4.36201 1.62696 4.19105 1.5744 3.98046C1.431 3.40619 1.21332 2.53733 1.66581 2.19414C2.21085 1.7811 2.71991 1.98727 3.03414 2.11456C3.28495 2.2163 3.41179 2.2676 3.33238 1.91176C3.1067 0.898335 4.64812 0.782387 5.27715 0.782387C5.77192 0.782387 8.71194 2.78348 8.71194 3.14178C8.71194 3.28429 8.9439 3.40069 9.22727 3.40069C10.0151 3.40069 9.84544 2.86266 8.75821 1.91576C8.00178 1.2571 7.83839 0.932629 8.05206 0.517353L8.0612 0.5ZM3.21354 10.7367C3.21354 11.5474 2.38569 11.3204 2.24572 10.4711C2.18573 10.1086 2.27599 9.81196 2.44624 9.81196C2.96443 9.81196 3.21354 10.1118 3.21354 10.7367Z" fill="#EE991A"/>
</svg>
