<svg width="14" height="40" viewBox="0 0 14 40" fill="none" xmlns="http://www.w3.org/2000/svg">
<path fill-rule="evenodd" clip-rule="evenodd" d="M4.66683 40.5H6.10352e-05V20.5V0.5H0.390112C0.427151 0.54847 0.463532 0.596883 0.499249 0.644484C0.80813 1.05681 1.07136 1.40829 1.58859 1.20555C2.50729 0.845753 4.34868 0.606066 5.24159 0.672144C5.29649 0.612758 5.36991 0.563181 5.46184 0.527549C5.57032 0.485411 5.75619 0.545516 5.96453 0.662787C6.01745 0.615521 6.07696 0.559693 6.14244 0.5H11.1904C11.3941 0.665817 11.5588 0.939588 11.7724 1.38392C12.07 2.00149 12.2182 2.97962 12.1018 3.55727C11.9305 4.40689 12.037 4.67264 12.6574 4.94511C13.3439 5.24682 13.799 5.75027 14.0001 6.40688V10.1156C13.9703 10.1167 13.9399 10.1172 13.9081 10.1172C12.7248 10.1172 12.0502 10.7747 12.7169 11.2785C13.0172 11.5053 13.3181 11.9827 13.3863 12.339C13.547 13.1846 13.9147 17.5835 13.8784 18.2267C13.8625 18.5012 13.8843 19.8486 13.926 21.221C14.0536 25.4058 13.9008 26.8917 13.3016 27.3139C12.9749 27.5438 13.1958 28.4523 13.4729 29.5915C13.7137 30.58 13.9961 31.7422 14.0001 32.7857V34.6743C13.9544 35.3574 13.8069 35.891 13.3863 35.9286C12.7619 35.9842 12.0919 36.0546 12.0707 36.5C12.0661 36.592 12.1157 36.765 12.1765 36.9781C12.3426 37.5592 12.5946 38.4384 12.0707 38.7857C11.4397 39.2037 10.8504 38.995 10.4866 38.8662C10.1962 38.7633 10.0494 38.7114 10.1413 39.0714C10.4026 40.0969 8.61812 40.2143 7.8899 40.2143C7.31711 40.2143 3.91347 38.1893 3.91347 37.8268C3.91347 37.6826 3.64493 37.5648 3.31687 37.5648C2.40478 37.5648 2.60123 38.1092 3.8599 39.0674C4.73562 39.7339 4.92477 40.0622 4.6774 40.4824L4.66683 40.5ZM10.2789 30.1414C10.2789 29.321 11.2373 29.5508 11.3994 30.4102C11.4688 30.777 11.3643 31.0772 11.1672 31.0772C10.5673 31.0772 10.2789 30.7738 10.2789 30.1414Z" fill="#F2E8D9"/>
</svg>
