<svg width="24" height="24" viewBox="0 0 24 24" fill="none" xmlns="http://www.w3.org/2000/svg">
<mask id="mask0_6_8517" style="mask-type:alpha" maskUnits="userSpaceOnUse" x="4" y="4" width="16" height="16">
<rect x="4" y="4" width="16" height="16" fill="#D9D9D9"/>
</mask>
<g mask="url(#mask0_6_8517)">
<path d="M7.33333 18.6667C6.96667 18.6667 6.65278 18.5362 6.39167 18.275C6.13056 18.0139 6 17.7 6 17.3334V8.00004H7.33333V17.3334H14.6667V18.6667H7.33333ZM10 16C9.63333 16 9.31944 15.8695 9.05833 15.6084C8.79722 15.3473 8.66667 15.0334 8.66667 14.6667V6.66671C8.66667 6.30004 8.79722 5.98615 9.05833 5.72504C9.31944 5.46393 9.63333 5.33337 10 5.33337H16C16.3667 5.33337 16.6806 5.46393 16.9417 5.72504C17.2028 5.98615 17.3333 6.30004 17.3333 6.66671V14.6667C17.3333 15.0334 17.2028 15.3473 16.9417 15.6084C16.6806 15.8695 16.3667 16 16 16H10Z" fill="#F2E8D9"/>
</g>
</svg>
