<svg width="27" height="20" viewBox="0 0 27 20" fill="none" xmlns="http://www.w3.org/2000/svg">
<rect width="27" height="20" fill="#272727"/>
<g id="iPhone SE - Press Kit" clip-path="url(#clip0_0_1)">
<rect width="320" height="2559" transform="translate(-44 -2437)" fill="#1B191D"/>
<g id="footer">
<rect width="320" height="364" transform="translate(-44 -242)" fill="black"/>
<g id="logo / social / white / small">
<g id="discord" clip-path="url(#clip1_0_1)">
<g id="Group">
<g id="Group_2">
<path id="Vector" d="M22.8547 1.78163C21.1435 1.01799 19.2801 0.472536 17.3406 0.145264C17.3026 0.145264 17.2646 0.145264 17.2646 0.181627C17.0364 0.581627 16.7702 1.12708 16.5801 1.52708C14.4885 1.23617 12.435 1.23617 10.4195 1.52708C10.2294 1.09072 9.96318 0.581627 9.73501 0.181627C9.73501 0.145264 9.69698 0.145264 9.65895 0.145264C7.71952 0.472536 5.89417 1.01799 4.14487 1.78163C4.14487 1.78163 4.10684 1.78163 4.10684 1.81799C0.608251 6.79981 -0.342453 11.6725 0.113885 16.5089C0.113885 16.5453 0.113885 16.5453 0.151914 16.5816C2.47163 18.218 4.71529 19.1998 6.8829 19.8544C6.92093 19.8544 6.95895 19.8544 6.95895 19.818C7.49135 19.1271 7.94769 18.4362 8.32797 17.6725C8.366 17.6362 8.32797 17.5634 8.28994 17.5634C7.5674 17.3089 6.84487 16.9816 6.19839 16.618C6.16036 16.5816 6.12233 16.5089 6.19839 16.4725C6.3505 16.3634 6.46459 16.2544 6.6167 16.1453C6.65473 16.1089 6.69276 16.1089 6.69276 16.1453C11.104 18.0725 15.8956 18.0725 20.2688 16.1453C20.3068 16.1453 20.3449 16.1453 20.3449 16.1453C20.497 16.2544 20.6111 16.3634 20.7632 16.4725C20.8012 16.5089 20.8012 16.5816 20.7632 16.618C20.0787 16.9816 19.3942 17.3089 18.6716 17.5634C18.6336 17.5634 18.5956 17.6362 18.6336 17.6725C19.0519 18.4362 19.5082 19.1271 20.0026 19.818C20.0406 19.8544 20.0787 19.8544 20.0787 19.8544C22.2843 19.1998 24.528 18.218 26.8477 16.5816C26.8857 16.5816 26.8857 16.5453 26.8857 16.5089C27.4561 10.9453 25.935 6.1089 22.8547 1.78163C22.8928 1.78163 22.8547 1.78163 22.8547 1.78163ZM9.01248 13.5634C7.68149 13.5634 6.57867 12.3998 6.57867 10.9453C6.57867 9.49072 7.64346 8.32708 9.01248 8.32708C10.3815 8.32708 11.4463 9.49072 11.4463 10.9453C11.4463 12.3998 10.3815 13.5634 9.01248 13.5634ZM17.9871 13.5634C16.6561 13.5634 15.5533 12.3998 15.5533 10.9453C15.5533 9.49072 16.6181 8.32708 17.9871 8.32708C19.3561 8.32708 20.4209 9.49072 20.4209 10.9453C20.4209 12.3998 19.3561 13.5634 17.9871 13.5634Z" fill="white"/>
</g>
</g>
</g>
</g>
</g>
</g>
<defs>
<clipPath id="clip0_0_1">
<rect width="320" height="2559" fill="white" transform="translate(-44 -2437)"/>
</clipPath>
<clipPath id="clip1_0_1">
<rect width="27" height="20" fill="white"/>
</clipPath>
</defs>
</svg>
