<svg width="120" height="2" viewBox="0 0 120 2" fill="none" xmlns="http://www.w3.org/2000/svg">
<path d="M116.461 1.09028C116.768 1.09028 116.538 1.11018 116.847 1.17599C116.996 1.22541 117.153 1.23742 117.307 1.2112C118.164 0.993847 118.979 1.18365 119.856 1.09028C119.856 1.09028 120.043 0.986194 119.991 0.937213C119.224 0.854559 118.406 0.692312 117.643 0.735169C117.128 0.762721 117.151 0.677005 116.624 0.831599C116.565 0.847182 116.504 0.85438 116.444 0.853028L116.461 1.09028ZM113.666 0.937213C112.475 0.823946 111.62 0.608127 110.425 0.660168C110.312 0.660168 110.224 0.755068 110.096 0.718332C109.812 0.637209 109.527 0.718332 109.239 0.741292C109.014 0.764251 108.743 0.85762 108.566 0.768843C108.38 0.688933 108.173 0.696084 107.991 0.788742C107.884 0.846701 107.765 0.868995 107.648 0.853028C107.213 0.735188 106.759 0.735188 106.324 0.853028C106.238 0.871396 106.147 0.877518 106.118 0.970887L106.356 1.28773C106.359 1.27313 106.359 1.25794 106.356 1.24334C106.616 1.24676 106.874 1.26875 107.131 1.30916C108.206 1.48824 109.287 1.44232 110.372 1.42396C111.153 1.41171 112.886 1.07497 113.666 1.09028V0.937213ZM103.174 0.804048C103.129 0.888233 103.084 0.975479 102.98 0.924968C102.702 0.791803 102.412 0.859151 102.126 0.863743C102.025 0.863743 101.907 0.900478 101.857 0.752006C101.845 0.724556 101.827 0.701275 101.804 0.684658L101.624 0.675475C101.553 0.695699 101.488 0.735681 101.434 0.791803C101.284 0.993847 100.627 1.04895 100.42 0.891294C100.38 0.738231 100.212 0.943336 100.201 0.807109C100.179 0.54384 100.014 0.643331 99.901 0.637209C99.5365 0.612718 99.1706 0.909662 98.8047 0.894355C98.649 0.850902 98.49 0.823748 98.3299 0.813232C98.1348 0.813232 97.9331 0.695373 97.7407 0.827007H97.6197C97.4327 0.796395 97.2538 0.673944 97.0547 0.762721C96.6929 0.856089 96.3243 0.819354 95.9584 0.814762C95.8077 0.814762 96.0284 0.609657 95.8804 0.647923C95.3544 0.787211 94.8123 0.776496 94.281 0.800987C93.6273 0.837722 92.9695 0.915784 92.309 0.860681C91.6203 0.802517 90.9249 0.823946 90.2389 0.744353C89.8084 0.695373 89.3766 0.673944 88.9462 0.650984C88.3543 0.621902 87.7571 0.698434 87.1692 0.643331C86.5034 0.582106 85.8308 0.582106 85.1583 0.582106C84.0647 0.582106 82.9684 0.638739 81.8734 0.663229C81.3502 0.673944 80.8296 0.7367 80.3023 0.706087C79.853 0.680066 79.3984 0.765782 78.9572 0.729047C78.516 0.692311 78.0842 0.842314 77.6335 0.787211C77.1829 0.732108 76.7363 0.816293 76.2884 0.839252C76.2481 0.858386 76.2155 0.893838 76.1969 0.938744H75.9118C75.7866 0.826673 75.6325 0.764791 75.4732 0.762721C74.6123 0.7367 73.7542 0.903539 72.8919 0.752006C72.5428 0.706754 72.1913 0.688345 71.84 0.696903C71.0329 0.678536 70.2393 0.61578 69.4336 0.669352C68.8888 0.704557 68.3574 0.814762 67.7817 0.706087C67.174 0.575926 66.5554 0.524577 65.9375 0.553024C65.8587 0.58958 65.7724 0.599672 65.6887 0.582106C65.1506 0.582106 64.6193 0.504043 64.0812 0.597412C63.8297 0.641801 63.5593 0.703026 63.2997 0.597412C63.1588 0.63631 63.011 0.627262 62.8746 0.571391C62.7962 0.561068 62.7167 0.564683 62.6392 0.582106C62.4782 0.626339 62.3123 0.643359 62.1469 0.632617C62.0823 0.632617 62.0595 0.609657 61.9976 0.609657C59.8257 0.620882 57.6528 0.630066 55.479 0.637209C54.8509 0.637209 54.224 0.61731 53.5958 0.602004C52.8305 0.583636 52.0637 0.52088 51.2997 0.549962C50.0985 0.594351 48.8986 0.703026 47.6947 0.693842H45.5183C45.455 0.822415 45.3838 0.846906 45.3151 0.704557C44.9587 0.715271 44.6009 0.729047 44.239 0.738231C43.67 0.750476 43.1037 0.585167 42.5374 0.680066C42.1422 0.758093 41.7397 0.776619 41.3403 0.735169C40.9682 0.697208 40.5944 0.685961 40.2211 0.701495C39.4355 0.701495 38.6486 0.719863 37.8644 0.68772C37.0183 0.654046 36.1722 0.722924 35.3248 0.632617C34.7504 0.572922 34.1585 0.759659 33.5895 0.504043C33.5586 0.490268 33.5102 0.514758 33.4739 0.531595C32.9775 0.739761 32.4596 0.698434 31.9485 0.684658C31.7642 0.684658 31.5812 0.575983 31.4629 0.825477C31.4333 0.888233 31.3983 0.871396 31.3781 0.825477C31.3149 0.672413 31.1844 0.701495 31.0795 0.699965C30.3827 0.68772 29.69 0.774966 28.9918 0.782619C27.5942 0.797925 26.1966 0.885172 24.799 0.817824C24.2341 0.791803 23.6691 0.909662 23.1015 0.80864C22.9481 0.782619 22.784 0.528533 22.6159 0.782619C22.4679 0.81017 22.3186 0.898947 22.1733 0.770374C21.9904 0.657107 21.7994 0.900478 21.6353 0.770374C21.5236 0.681597 21.4537 0.657107 21.3662 0.788742C21.3003 0.891294 21.2089 0.871396 21.1187 0.839252C20.9672 0.808538 20.818 0.76505 20.6721 0.709148C20.1731 0.513227 19.6552 0.556085 19.1414 0.556085C19.1312 0.555626 19.121 0.557565 19.1116 0.561779C19.1021 0.565993 19.0934 0.572392 19.0862 0.580575C18.9127 0.914254 18.6517 0.762721 18.4137 0.733639C18.3451 0.711362 18.2731 0.705628 18.2025 0.716802C17.6066 0.917315 16.9918 0.820885 16.3946 0.793333L14.6567 0.718332C13.4608 0.666291 12.2637 0.657107 11.0665 0.614249C10.2338 0.583636 9.4012 0.44741 8.57529 0.699965C8.25111 0.799456 7.99552 0.632617 7.66731 0.643331C7.31354 0.654046 6.95438 0.888233 6.59119 0.643331C6.42305 0.528534 6.19574 0.623433 5.96571 0.612718C4.62999 0.556085 3.29559 0.490268 1.95987 0.572922C1.67739 0.849967 0 0.403021 0 0.643331V1.25559C0.683334 1.25559 1.79038 1.37498 2.47372 1.26783C2.56413 1.24893 2.65741 1.25955 2.74275 1.29844C3.09652 1.5112 3.45971 1.29844 3.81886 1.33824C4.26007 1.39028 4.72414 1.31222 5.17745 1.3015C6.61945 1.26783 8.06279 1.52804 9.50343 1.27395C9.63795 1.38416 9.8182 1.12089 9.93926 1.34283C10.0899 1.44691 10.2298 1.31834 10.3751 1.31681C11.2212 1.31681 12.0659 1.33977 12.912 1.28008C13.7581 1.22038 14.5881 1.34895 15.4288 1.28008C15.9157 1.24334 16.4067 1.29538 16.8977 1.28008C18.0222 1.22956 19.1468 1.33518 20.2726 1.29691C20.5793 1.2862 20.9197 1.15456 21.186 1.28467C21.5008 1.43773 21.794 1.31069 22.0792 1.31528C22.4491 1.31528 22.819 1.23722 23.201 1.31528C23.3355 1.34436 23.5427 1.38875 23.657 1.14844C23.7243 1.00456 23.8655 0.934152 23.9341 1.17599C23.9772 1.32906 24.0686 1.23875 24.1332 1.23875C24.6968 1.23875 25.2604 1.27089 25.8214 1.25099C26.3406 1.2311 26.8504 1.35355 27.3669 1.33824C27.8001 1.30992 28.2344 1.30992 28.6677 1.33824C29.6617 1.44538 30.6504 1.3015 31.6418 1.29232C32.3493 1.29232 33.0569 1.22803 33.7658 1.25405C34.3038 1.27395 34.8486 1.39334 35.3799 1.34742C36.3498 1.26477 37.3169 1.29385 38.2868 1.26324C38.8854 1.24334 39.4799 1.3061 40.0745 1.35048C40.7314 1.38875 41.3896 1.38875 42.0465 1.35048C42.719 1.32293 43.3916 1.22956 44.0642 1.29079C44.7919 1.34742 45.5156 1.38569 46.2393 1.38569C47.0961 1.38569 47.957 1.27548 48.8112 1.32293C49.7191 1.37344 50.6285 1.31528 51.5297 1.40406C52.2023 1.47141 52.8977 1.14691 53.5609 1.4959C53.5709 1.49958 53.5814 1.5008 53.5919 1.49949C53.6023 1.49817 53.6124 1.49433 53.6214 1.48824C53.8998 1.29844 54.2119 1.43314 54.5025 1.37038C54.9356 1.27854 55.3835 1.44998 55.7925 1.37038C56.5632 1.20661 57.3219 1.43314 58.0859 1.33671C58.309 1.32886 58.5312 1.30123 58.7504 1.25405C58.8997 1.07344 59.0517 1.05507 59.2064 1.24487C59.5212 1.33212 59.8427 1.53875 60.1332 1.18058C60.1505 1.15168 60.1768 1.13132 60.2068 1.12365C60.2367 1.11597 60.2682 1.12155 60.2947 1.13926C60.4534 1.23416 60.6363 1.20201 60.8004 1.26936C61.1125 1.48365 61.4367 1.21426 61.7488 1.29844C61.812 1.31938 61.8798 1.31318 61.9393 1.28101C61.9988 1.24885 62.0459 1.19297 62.0716 1.12395C62.3756 1.06732 62.6823 0.986194 62.95 1.25252C63.3024 1.29844 63.6535 1.3413 63.9965 1.18671C64.1835 1.03364 64.3449 1.14997 64.5076 1.25099C64.526 1.24777 64.5448 1.2527 64.5601 1.26477C64.676 1.34443 64.8113 1.37983 64.9462 1.36579C65.4223 1.36579 65.8985 1.36579 66.376 1.36579C67.1899 1.36579 68.0037 1.29079 68.8175 1.38875H68.9816C69.3596 1.35814 69.7241 1.15762 70.1142 1.27395C70.1667 1.29079 70.2487 1.29079 70.2487 1.23416C70.2487 0.990785 70.3994 1.13313 70.4316 1.15762C70.5662 1.26324 70.6913 1.20661 70.8352 1.17752C70.9791 1.14844 71.1378 1.19283 71.2939 1.15762H71.4795C71.5441 1.17293 71.614 1.0566 71.6772 1.12395C71.7405 1.1913 71.8118 1.25252 71.8319 1.15762H72.5502C72.4346 1.22956 72.2812 1.09793 72.3162 1.31069H72.4063C72.6861 1.28773 72.9659 1.22497 73.2457 1.31069L76.6664 1.33212C77.1802 1.31375 77.6927 1.37498 78.2079 1.36273C78.9625 1.34589 79.7172 1.34742 80.4731 1.33059C81.1861 1.31375 81.9003 1.23569 82.6146 1.31222C83.7553 1.29385 84.8969 1.27599 86.0393 1.25865C87.25 1.24181 88.4525 1.24793 89.6578 1.33518C90.3397 1.38569 91.0217 1.44845 91.7024 1.43467C93.8048 1.39487 95.9059 1.36885 98.0071 1.2663C99.7046 1.18365 101.405 1.40253 103.105 1.27395L103.174 0.804048Z" fill="white"/>
</svg>
