<svg width="27" height="28" viewBox="0 0 27 28" fill="none" xmlns="http://www.w3.org/2000/svg">
<g clip-path="url(#clip0_72_47)">
<path fill-rule="evenodd" clip-rule="evenodd" d="M26.8875 14.0002C26.8875 21.6677 20.8938 27.8835 13.5 27.8835C6.10634 27.8835 0.112549 21.6677 0.112549 14.0002C0.112549 6.3326 6.10634 0.116821 13.5 0.116821C20.8938 0.116821 26.8875 6.3326 26.8875 14.0002ZM10.2238 5.81487C11.0698 5.77287 11.3443 5.76354 13.4998 5.76354C15.6553 5.76354 15.9253 5.77287 16.7713 5.81487C17.6173 5.85687 18.1933 5.99221 18.7018 6.19754C19.2283 6.41221 19.6693 6.69221 20.1103 7.14954C20.5513 7.60688 20.8258 8.06888 21.0283 8.61021C21.2218 9.13288 21.3568 9.73021 21.3973 10.6075C21.4378 11.4896 21.4468 11.7696 21.4468 14.0049C21.4468 16.1973 21.4338 16.5121 21.3995 17.3471L21.3973 17.4022C21.3568 18.2796 21.2218 18.8769 21.0283 19.3996C20.8213 19.9409 20.5513 20.4029 20.1103 20.8602C19.6693 21.3176 19.2283 21.6022 18.7063 21.8122C18.1978 22.0176 17.6218 22.1529 16.7758 22.1949C15.9253 22.2369 15.6553 22.2462 13.4998 22.2462C11.3398 22.2462 11.0698 22.2369 10.2238 22.1949C9.38227 22.1529 8.80177 22.0176 8.29777 21.8122C7.77577 21.6022 7.33027 21.3176 6.88927 20.8602C6.44377 20.4029 6.17377 19.9409 5.97127 19.3996C5.77327 18.8769 5.64277 18.2796 5.60227 17.4022C5.56177 16.5202 5.55277 16.2402 5.55277 14.0049C5.55277 11.8124 5.56571 11.4977 5.60001 10.6627L5.60227 10.6075C5.63827 9.73488 5.77327 9.13288 5.97127 8.61021C6.17827 8.06888 6.44827 7.60688 6.88927 7.14954C7.33027 6.68754 7.77577 6.40754 8.29777 6.19754C8.80177 5.99221 9.37777 5.85687 10.2238 5.81487ZM13.4998 7.24754H12.7888C11.3083 7.24754 11.0248 7.25688 10.2913 7.29421C9.51727 7.33154 9.09427 7.46688 8.81527 7.57888C8.44627 7.72821 8.18077 7.90554 7.90177 8.19488C7.62277 8.48421 7.45177 8.75955 7.30777 9.14221C7.19977 9.43621 7.06927 9.87021 7.03327 10.6729C6.99727 11.5409 6.98827 11.8022 6.98827 14.0002C6.98827 16.1982 6.99727 16.4596 7.03327 17.3276C7.06927 18.1302 7.19977 18.5689 7.30777 18.8582C7.45177 19.2409 7.62277 19.5162 7.90177 19.8056C8.18077 20.0949 8.44627 20.2722 8.81527 20.4216C9.09877 20.5336 9.51727 20.6689 10.2913 20.7062C11.1283 20.7436 11.3803 20.7529 13.4998 20.7529C15.6193 20.7529 15.8713 20.7436 16.7083 20.7062C17.4823 20.6689 17.9053 20.5336 18.1843 20.4216C18.5578 20.2722 18.8188 20.0949 19.0978 19.8056C19.3768 19.5162 19.5478 19.2409 19.6918 18.8582C19.7998 18.5642 19.9303 18.1302 19.9663 17.3276C20.0023 16.4596 20.0113 16.1982 20.0113 14.0002C20.0113 11.8022 20.0023 11.5409 19.9663 10.6729C19.9303 9.87021 19.7998 9.43155 19.6918 9.14221C19.5478 8.75955 19.3768 8.48421 19.0978 8.19488C18.8188 7.90554 18.5533 7.72821 18.1843 7.57888C17.9008 7.46688 17.4823 7.33154 16.7083 7.29421C15.8713 7.25688 15.6193 7.24754 13.4998 7.24754ZM16.7848 9.60421C16.7848 9.05821 17.2123 8.61488 17.7388 8.61488C18.2653 8.61488 18.6928 9.05821 18.6928 9.60421C18.6928 10.1502 18.2653 10.5935 17.7388 10.5935C17.2123 10.5935 16.7848 10.1502 16.7848 9.60421ZM9.42277 14.0002C9.42277 11.6669 11.2453 9.77221 13.4998 9.77221C15.7543 9.77221 17.5768 11.6622 17.5768 14.0002C17.5768 16.3336 15.7543 18.2282 13.4998 18.2282C11.2498 18.2282 9.42277 16.3382 9.42277 14.0002ZM16.1458 14.0002C16.1458 12.4836 14.9623 11.2562 13.4998 11.2562C12.0373 11.2562 10.8538 12.4836 10.8538 14.0002C10.8538 15.5169 12.0373 16.7442 13.4998 16.7442C14.9623 16.7442 16.1458 15.5169 16.1458 14.0002Z" fill="white"/>
</g>
<defs>
<clipPath id="clip0_72_47">
<rect width="27" height="28" fill="white"/>
</clipPath>
</defs>
</svg>
