<svg xmlns="http://www.w3.org/2000/svg" width="24" height="25" viewBox="0 0 24 25" fill="none">
  <mask id="mask0_6_8346" style="mask-type:alpha" maskUnits="userSpaceOnUse" x="0" y="0" width="24" height="25">
    <rect y="0.5" width="24" height="24" fill="#D9D9D9"/>
  </mask>
  <g mask="url(#mask0_6_8346)">
    <path d="M12 22.5C10.6333 22.5 9.34167 22.2373 8.125 21.712C6.90833 21.1873 5.846 20.4707 4.938 19.562C4.02933 18.654 3.31267 17.5917 2.788 16.375C2.26267 15.1583 2 13.8667 2 12.5C2 11.1167 2.26267 9.821 2.788 8.613C3.31267 7.40433 4.02933 6.346 4.938 5.438C5.846 4.52933 6.90833 3.81233 8.125 3.287C9.34167 2.76233 10.6333 2.5 12 2.5C13.3833 2.5 14.679 2.76233 15.887 3.287C17.0957 3.81233 18.154 4.52933 19.062 5.438C19.9707 6.346 20.6873 7.40433 21.212 8.613C21.7373 9.821 22 11.1167 22 12.5C22 13.8667 21.7373 15.1583 21.212 16.375C20.6873 17.5917 19.9707 18.654 19.062 19.562C18.154 20.4707 17.0957 21.1873 15.887 21.712C14.679 22.2373 13.3833 22.5 12 22.5ZM12 20.45C12.4333 19.85 12.8083 19.225 13.125 18.575C13.4417 17.925 13.7 17.2333 13.9 16.5H10.1C10.3 17.2333 10.5583 17.925 10.875 18.575C11.1917 19.225 11.5667 19.85 12 20.45ZM9.4 20.05C9.1 19.5 8.83767 18.929 8.613 18.337C8.38767 17.7457 8.2 17.1333 8.05 16.5H5.1C5.58333 17.3333 6.18733 18.0583 6.912 18.675C7.63733 19.2917 8.46667 19.75 9.4 20.05ZM14.6 20.05C15.5333 19.75 16.3623 19.2917 17.087 18.675C17.8123 18.0583 18.4167 17.3333 18.9 16.5H15.95C15.8 17.1333 15.6127 17.7457 15.388 18.337C15.1627 18.929 14.9 19.5 14.6 20.05ZM4.25 14.5H7.65C7.6 14.1667 7.56233 13.8373 7.537 13.512C7.51233 13.1873 7.5 12.85 7.5 12.5C7.5 12.15 7.51233 11.8127 7.537 11.488C7.56233 11.1627 7.6 10.8333 7.65 10.5H4.25C4.16667 10.8333 4.104 11.1627 4.062 11.488C4.02067 11.8127 4 12.15 4 12.5C4 12.85 4.02067 13.1873 4.062 13.512C4.104 13.8373 4.16667 14.1667 4.25 14.5ZM9.65 14.5H14.35C14.4 14.1667 14.4377 13.8373 14.463 13.512C14.4877 13.1873 14.5 12.85 14.5 12.5C14.5 12.15 14.4877 11.8127 14.463 11.488C14.4377 11.1627 14.4 10.8333 14.35 10.5H9.65C9.6 10.8333 9.56267 11.1627 9.538 11.488C9.51267 11.8127 9.5 12.15 9.5 12.5C9.5 12.85 9.51267 13.1873 9.538 13.512C9.56267 13.8373 9.6 14.1667 9.65 14.5ZM16.35 14.5H19.75C19.8333 14.1667 19.896 13.8373 19.938 13.512C19.9793 13.1873 20 12.85 20 12.5C20 12.15 19.9793 11.8127 19.938 11.488C19.896 11.1627 19.8333 10.8333 19.75 10.5H16.35C16.4 10.8333 16.4373 11.1627 16.462 11.488C16.4873 11.8127 16.5 12.15 16.5 12.5C16.5 12.85 16.4873 13.1873 16.462 13.512C16.4373 13.8373 16.4 14.1667 16.35 14.5ZM15.95 8.5H18.9C18.4167 7.66667 17.8123 6.94167 17.087 6.325C16.3623 5.70833 15.5333 5.25 14.6 4.95C14.9 5.5 15.1627 6.07067 15.388 6.662C15.6127 7.254 15.8 7.86667 15.95 8.5ZM10.1 8.5H13.9C13.7 7.76667 13.4417 7.075 13.125 6.425C12.8083 5.775 12.4333 5.15 12 4.55C11.5667 5.15 11.1917 5.775 10.875 6.425C10.5583 7.075 10.3 7.76667 10.1 8.5ZM5.1 8.5H8.05C8.2 7.86667 8.38767 7.254 8.613 6.662C8.83767 6.07067 9.1 5.5 9.4 4.95C8.46667 5.25 7.63733 5.70833 6.912 6.325C6.18733 6.94167 5.58333 7.66667 5.1 8.5Z" fill="#F2E8D9"/>
  </g>

</svg>