<svg width="76" height="63" viewBox="0 0 76 63" fill="none" xmlns="http://www.w3.org/2000/svg">
<path opacity="0.6" d="M0 0H76V60C76 61.6569 74.6569 63 73 63H3C1.34315 63 0 61.6569 0 60V0Z" fill="#060605"/>
<g clip-path="url(#clip0_4_8246)">
<path d="M47.923 43.4378C43.8341 43.2442 44.0913 39.2431 44.0913 39.2431V33.4913H44.0362L44.0913 33.4633V33.4862C45.0773 33.4343 46.0656 33.4343 47.0517 33.4862C49.0541 33.5678 49.1984 33.7666 49.1984 33.7666C52.1273 34.1896 52.5945 37.1177 52.5945 37.1177V38.4149C52.8569 43.234 47.9518 43.4582 47.923 43.4302V43.4378ZM41.766 31.4093H34.2864C34.2864 31.4093 35.2732 25.3542 26.7148 25.3542C26.7437 25.3823 23.5235 25.3823 23.5235 25.3823C23.5235 25.3823 23.29 21.998 29.7618 21.998H45.0807C45.0807 21.998 50.8833 21.58 52.1011 25.3823C52.1273 25.4103 48.7051 25.3823 48.7051 25.3823C48.7051 25.3823 41.8867 25.1911 41.766 31.4093ZM23.3477 27.4669H27.266C27.266 27.4669 32.0556 27.0438 31.906 31.3532H29.4994C29.4994 31.3532 23.2611 31.6922 23.3477 27.4669ZM32.9531 43.5805C32.9531 43.5805 34.5488 42.1152 34.2654 36.8221C34.2654 36.8476 21.1432 36.8221 21.1432 36.8221V38.6799C21.1432 38.6799 21.0828 41.9929 23.2427 43.5805C23.2427 43.6086 15.7552 43.5805 15.7552 43.5805C15.7552 43.5805 13.5506 43.5805 12.6505 43.0709C12.6505 43.0709 10.4197 42.5077 10.3908 39.5031C10.3619 36.4985 10.3908 32.1127 10.3908 32.1127C10.3908 32.1127 10.5352 29.7197 11.144 29.0724C11.4353 28.7334 11.8684 27.8619 13.5506 27.6606C13.5506 27.6606 14.0755 27.4669 16.5688 27.4669H20.8807C20.8807 27.4669 20.8545 30.7798 23.059 32.0872C23.0852 32.0872 25.1769 33.4098 29.7041 33.4098H41.6847V38.7615C41.6584 40.4647 42.1415 42.1387 43.0756 43.5805H32.9531ZM28.7147 43.4123C28.7147 43.4123 23.6574 43.2161 23.6574 38.8481H31.8692C31.8692 38.8481 32.2734 43.4684 28.7042 43.4123H28.7147ZM67.9606 39.9185C67.9606 39.9185 65.5986 39.8879 65.6406 39.9185C65.6668 43.9959 60.6778 43.5372 60.6778 43.5372H53.4185C55.7805 41.129 54.9014 36.6055 54.9014 36.5673C54.6835 33.0607 49.8493 31.9164 49.8493 31.9597C47.4165 31.4093 44.107 31.366 44.107 31.366C44.1936 27.2299 48.894 27.4847 48.894 27.4847C48.894 27.4847 56.3343 27.4006 61.1685 27.4847C66.0027 27.5688 65.6931 31.1188 65.6931 31.1188C65.6931 31.1188 67.9973 31.1621 67.9973 31.1188C68.0419 25.3746 61.1213 25.4154 61.1213 25.4154C61.1213 25.4154 54.5943 25.4562 54.5943 25.4154C53.681 19.9618 46.3693 20.0051 46.3693 20.0051H28.3551C21.8203 20.0943 20.9699 25.3823 20.9699 25.3823H15.4586C7.64827 25.3262 8.00257 31.6641 8.00257 31.6641C8.00257 31.6641 8.02882 32.7599 8.00257 39.4674C7.97633 46.1748 15.9048 45.6651 15.9048 45.6651H60.3707C68.8975 45.6651 67.9816 39.9185 67.9816 39.9185" fill="white"/>
<path d="M42.6663 53.2773C42.6873 53.0989 42.7109 52.918 42.7267 52.7396C42.7687 52.3165 42.808 51.8909 42.8474 51.4654C42.871 51.2105 42.8894 50.9557 42.913 50.7136L43.0311 49.4547C43.0547 49.2177 43.0705 48.9806 43.102 48.7436C43.1076 48.722 43.1188 48.702 43.1343 48.6856C43.1499 48.6691 43.1694 48.6567 43.1912 48.6494C43.7161 48.6494 44.241 48.6494 44.7947 48.6494C44.7947 48.7411 44.7764 48.8201 44.7632 48.9042C44.6793 49.4139 44.5953 49.9465 44.5008 50.4689C44.4011 51.0754 44.3022 51.6828 44.2042 52.291C44.1071 52.8797 44.0126 53.4659 43.9155 54.0545C43.8683 54.3374 43.8237 54.6203 43.7712 54.9006C43.7623 54.9242 43.7476 54.9454 43.7284 54.9622C43.7092 54.9791 43.686 54.9912 43.661 54.9975C42.976 54.9975 42.291 54.9975 41.5772 54.9975C41.4328 53.5551 41.2885 52.1203 41.1441 50.683H41.0943C41.0727 50.7506 41.056 50.8196 41.0444 50.8894C41.0077 51.2334 40.9788 51.5749 40.9447 51.9088C40.8974 52.3811 40.8484 52.8534 40.7977 53.3257C40.7636 53.657 40.7347 53.9908 40.7006 54.3221C40.6796 54.5158 40.6639 54.7095 40.635 54.9006C40.627 54.9219 40.6137 54.941 40.5963 54.9561C40.5789 54.9712 40.5579 54.9819 40.5353 54.9873C39.8739 54.9873 39.2125 54.9873 38.5512 54.9873C38.5281 54.9819 38.5068 54.9709 38.4894 54.9553C38.4719 54.9397 38.4589 54.92 38.4514 54.8981C38.3727 54.475 38.3045 54.0495 38.2336 53.6239L37.9712 52.0464C37.8741 51.4424 37.7743 50.841 37.6772 50.237C37.6011 49.7681 37.5224 49.3017 37.4463 48.8328C37.4463 48.7768 37.4463 48.7182 37.4305 48.6545C37.4734 48.6523 37.5163 48.6523 37.5591 48.6545C38.0368 48.6545 38.5118 48.6545 38.9895 48.6545C39.0944 48.6545 39.1259 48.6825 39.1338 48.7844C39.1863 49.4037 39.2519 50.0204 39.3096 50.6371C39.3464 51.0296 39.3726 51.422 39.4067 51.8119C39.4487 52.2961 39.4925 52.7786 39.538 53.2594C39.538 53.2594 39.538 53.2747 39.5721 53.3079C39.5899 53.2678 39.6031 53.2259 39.6115 53.183C39.6954 52.4355 39.7768 51.6888 39.8555 50.9429C39.9106 50.418 39.9631 49.8904 40.0156 49.3655C40.0366 49.159 40.0524 48.9501 40.0839 48.7436C40.0918 48.7221 40.1054 48.703 40.1234 48.6883C40.1414 48.6735 40.163 48.6636 40.1862 48.6595C40.7925 48.6595 41.3961 48.6595 41.9997 48.6595C42.0916 48.6595 42.1152 48.7003 42.123 48.7691C42.1519 49.0112 42.1782 49.2508 42.2044 49.4929C42.2516 49.9338 42.3015 50.3772 42.3487 50.8206C42.3855 51.1443 42.4144 51.4679 42.4485 51.789C42.5027 52.2987 42.557 52.799 42.6112 53.29L42.6663 53.2773Z" fill="white"/>
<path d="M20.1357 54.9925V54.8294C20.1357 52.8263 20.1357 50.8207 20.1357 48.8151C20.1357 48.6826 20.1699 48.6418 20.3142 48.6418C20.9231 48.6418 21.5354 48.6418 22.1513 48.6418C22.2747 48.6418 22.314 48.6826 22.3403 48.7921C22.6657 50.1683 22.9938 51.5427 23.3244 52.9155C23.3401 52.9541 23.3586 52.9915 23.3796 53.0276C23.432 52.8187 23.4793 52.6428 23.5213 52.4695C23.81 51.2539 24.1013 50.0409 24.3873 48.8253C24.4188 48.6928 24.4634 48.6367 24.6235 48.6392C25.214 48.6392 25.8019 48.6392 26.3898 48.6392H26.5682V54.9823H24.9358V51.0399H24.8781C24.5982 52.3565 24.3174 53.6766 24.0357 55.0001C23.6158 55.0001 23.2011 55.0001 22.7891 55.0001C22.7497 55.0001 22.6867 54.9287 22.6762 54.8803C22.4951 54.047 22.3193 53.2111 22.1513 52.3752C22.0673 51.9751 21.986 51.5776 21.8889 51.1775C21.8773 51.128 21.8485 51.084 21.8075 51.0526V51.2182C21.8075 52.4211 21.8075 53.624 21.8075 54.8268C21.8075 54.9772 21.7603 55.0128 21.6081 55.0103C21.1252 54.9874 20.6449 54.9925 20.1357 54.9925Z" fill="white"/>
<path d="M63.2705 48.6365H63.5749C64.3754 48.6365 65.1758 48.6365 65.9737 48.6365C66.2013 48.6463 66.4245 48.7009 66.6298 48.797C66.7765 48.8729 66.897 48.9889 66.9763 49.1307C67.0557 49.2726 67.0903 49.4339 67.0759 49.5947C67.0759 51.0643 67.0759 52.5339 67.0759 54.0034C67.0803 54.1349 67.0562 54.2658 67.0053 54.3877C66.9544 54.5097 66.8778 54.6199 66.7804 54.7113C66.683 54.8028 66.567 54.8734 66.4398 54.9187C66.3126 54.964 66.1771 54.983 66.0419 54.9744H63.4017H63.2705V48.6365ZM64.9003 49.3424V54.0926C64.8964 54.1316 64.8964 54.1709 64.9003 54.2099C64.9033 54.2227 64.9091 54.2348 64.9172 54.2453C64.9254 54.2558 64.9357 54.2646 64.9475 54.271C64.9975 54.294 65.0527 54.3042 65.1079 54.3007C65.163 54.2972 65.2164 54.2801 65.2629 54.251C65.3094 54.222 65.3474 54.1819 65.3735 54.1345C65.3997 54.0872 65.4129 54.0342 65.4121 53.9805C65.4121 52.5313 65.4121 51.0821 65.4121 49.6329C65.4121 49.4418 65.3071 49.35 65.1076 49.3424H64.9003Z" fill="white"/>
<path d="M55.6761 52.5305C55.9385 53.3511 56.201 54.1666 56.4818 54.9923C55.9333 54.9923 55.4084 54.9923 54.8809 54.9923C54.7706 54.9923 54.7575 54.9286 54.7391 54.8572C54.5738 54.1615 54.4111 53.4683 54.2457 52.7726C54.2405 52.7442 54.2308 52.7166 54.2169 52.6911C54.1964 52.6719 54.1692 52.661 54.1408 52.6605C54.1276 52.6605 54.1066 52.6936 54.104 52.7115C54.1001 52.7504 54.1001 52.7897 54.104 52.8287V54.9796C54.0437 54.9796 53.999 54.9796 53.9544 54.9796C53.5056 54.9796 53.0542 54.9796 52.6028 54.9796C52.4769 54.9796 52.4375 54.9439 52.4375 54.8241C52.4375 54.1564 52.4375 53.4913 52.4375 52.8236V48.8404C52.4375 48.6467 52.4375 48.6467 52.6343 48.6467C53.4742 48.6467 54.314 48.6467 55.1538 48.6467C55.3328 48.6488 55.5102 48.6798 55.6787 48.7385C55.8414 48.784 55.9847 48.8792 56.0873 49.01C56.1899 49.1409 56.2463 49.3003 56.2482 49.4648C56.2771 50.163 56.2744 50.8639 56.2823 51.5647C56.2902 51.6563 56.2902 51.7483 56.2823 51.8399C56.2705 52.0028 56.2052 52.1577 56.0961 52.282C55.987 52.4063 55.8398 52.4934 55.6761 52.5305ZM54.1014 51.9291C54.4767 51.9903 54.6079 51.8883 54.6079 51.5417V49.7349C54.6079 49.4062 54.4531 49.2966 54.1014 49.3756V51.9291Z" fill="white"/>
<path d="M50.427 51.8246C50.427 52.5611 50.427 53.295 50.427 54.029C50.4337 54.1589 50.4119 54.2888 50.363 54.4099C50.3142 54.5311 50.2394 54.6408 50.1437 54.7319C50.0479 54.8229 49.9334 54.8932 49.8076 54.9381C49.6818 54.983 49.5477 55.0014 49.414 54.9923C48.8471 54.9923 48.2776 54.9923 47.7107 54.9923C46.9418 54.9923 46.6216 54.5871 46.6163 53.9729C46.598 52.533 46.5953 51.0906 46.6163 49.6406C46.6163 48.9627 46.9864 48.6671 47.6845 48.634C48.2487 48.6085 48.813 48.6136 49.3746 48.634C50.0097 48.6569 50.4375 48.9627 50.4244 49.6533C50.427 50.3847 50.427 51.1059 50.427 51.8246ZM48.275 51.8246V54.029C48.275 54.2252 48.3459 54.2965 48.5374 54.2838C48.729 54.2711 48.7999 54.2023 48.7999 54.0137V49.638C48.7999 49.4443 48.7133 49.3552 48.5374 49.3552C48.3616 49.3552 48.2881 49.4316 48.2881 49.6304L48.275 51.8246Z" fill="white"/>
<path d="M14.8681 48.6366H15.0177C15.7814 48.6366 16.5452 48.6366 17.3089 48.6366C17.4375 48.6366 17.4795 48.685 17.4952 48.7895C17.5477 49.1922 17.6002 49.5974 17.6553 50C17.7183 50.4893 17.7865 50.9786 17.8521 51.4704C17.9099 51.8909 17.965 52.314 18.0227 52.7446C18.0805 53.1753 18.1356 53.5805 18.1933 53.9985C18.2379 54.3221 18.2799 54.6483 18.3245 54.9847C18.2817 54.9868 18.2388 54.9868 18.1959 54.9847C17.7445 54.9847 17.2931 54.9847 16.8417 54.9847C16.7315 54.9847 16.6974 54.9541 16.6895 54.8471C16.658 54.3731 16.6108 53.8991 16.5714 53.4251C16.5714 53.3486 16.5347 53.3104 16.4481 53.3129C16.2329 53.3129 16.0176 53.3129 15.7841 53.3129L15.6292 54.9745H14.0126C14.2995 52.8695 14.5847 50.7569 14.8681 48.6366ZM16.4743 52.5994C16.4743 52.4924 16.4743 52.3981 16.4743 52.3089C16.4271 51.7839 16.3719 51.2589 16.3273 50.7339C16.2906 50.3338 16.2643 49.9337 16.2276 49.5336C16.2276 49.4954 16.1909 49.4597 16.1699 49.4215H16.1226L15.8418 52.5892L16.4743 52.5994Z" fill="white"/>
<path d="M10.5356 50.6601C10.5356 50.3109 10.5356 49.9669 10.5356 49.6229C10.537 49.5894 10.5315 49.556 10.5196 49.5246C10.5077 49.4931 10.4895 49.4643 10.4661 49.4397C10.4427 49.4151 10.4146 49.3952 10.3833 49.3811C10.352 49.3671 10.3181 49.3592 10.2836 49.3578C10.2492 49.3565 10.2148 49.3617 10.1824 49.3733C10.15 49.3849 10.1203 49.4025 10.095 49.4253C10.0696 49.448 10.0492 49.4753 10.0347 49.5057C10.0202 49.5361 10.0121 49.569 10.0107 49.6025V54.0112C10.0107 54.2202 10.0789 54.2916 10.2731 54.289C10.4673 54.2865 10.5356 54.2075 10.5356 54.0036V52.6274C10.5244 52.6176 10.512 52.6091 10.4988 52.602C10.2889 52.5816 10.2889 52.5816 10.2889 52.3726C10.2889 52.2248 10.2889 52.0795 10.2889 51.9343C10.2933 51.9221 10.2986 51.9101 10.3046 51.8986H12.1864C12.1864 51.9496 12.1864 52.0005 12.1864 52.0515C12.1864 52.6351 12.1864 53.2187 12.1864 53.8048C12.1868 53.9599 12.1701 54.1145 12.1365 54.2661C12.0922 54.475 11.9734 54.6621 11.8011 54.7945C11.6288 54.9269 11.4139 54.996 11.1943 54.9898C10.575 54.9898 9.95296 55.0077 9.33359 54.9898C9.21256 54.996 9.09147 54.9787 8.97739 54.939C8.86331 54.8992 8.75852 54.8378 8.66912 54.7584C8.57971 54.6789 8.50749 54.583 8.45666 54.4761C8.40583 54.3693 8.37741 54.2537 8.37304 54.1361C8.35992 53.9577 8.3468 53.7768 8.3468 53.5984C8.3468 52.342 8.3468 51.0882 8.3468 49.8318C8.34484 49.6523 8.36689 49.4732 8.41241 49.2992C8.45418 49.129 8.55226 48.9768 8.69161 48.8659C8.83097 48.7549 9.00392 48.6914 9.184 48.685C9.72988 48.6468 10.2784 48.6494 10.8243 48.6519C11.0629 48.652 11.3008 48.6794 11.5329 48.7335C11.7077 48.7741 11.8637 48.87 11.9762 49.0061C12.0888 49.1422 12.1517 49.3107 12.1549 49.4852C12.1864 49.8369 12.1759 50.1937 12.1864 50.5479C12.1864 50.6397 12.1601 50.6754 12.0551 50.6754C11.5801 50.6754 11.1051 50.6754 10.6274 50.6754C10.5966 50.6716 10.5659 50.6665 10.5356 50.6601Z" fill="white"/>
<path d="M32.011 54.9924H28.7567C28.6307 54.9924 28.5887 54.9643 28.5887 54.8395C28.5887 52.8262 28.5887 50.8104 28.5887 48.7972C28.5887 48.708 28.5887 48.6392 28.72 48.6417H31.8378C31.8667 48.6417 31.8982 48.6417 31.9454 48.6417V49.2533C31.9454 49.3578 31.864 49.3374 31.8037 49.3374H30.271V51.2819C30.3183 51.2819 30.3734 51.2819 30.4259 51.2819C30.8825 51.2819 31.3365 51.2819 31.7932 51.2819C31.9113 51.2819 31.9585 51.3073 31.9507 51.4271C31.9507 51.6055 31.9507 51.7864 31.9507 51.9878H30.2684V54.2686H30.4547C30.9219 54.2686 31.3864 54.2686 31.8535 54.2686C31.9821 54.2686 32.0215 54.3068 32.0163 54.4266C32.0031 54.6228 32.011 54.7961 32.011 54.9924Z" fill="white"/>
<path d="M58.321 48.6519H59.9456V54.2813C60.0164 54.2813 60.0715 54.2813 60.1267 54.2813C60.5151 54.2813 60.914 54.2813 61.2919 54.2813C61.4231 54.2813 61.4625 54.3196 61.4546 54.4393C61.4468 54.5591 61.4546 54.7299 61.4546 54.8777C61.4546 54.9465 61.4389 54.9873 61.3523 54.9873H58.321V48.6519Z" fill="white"/>
</g>
<defs>
<clipPath id="clip0_4_8246">
<rect width="60" height="35" fill="white" transform="translate(8 20)"/>
</clipPath>
</defs>
</svg>
