<svg width="292" height="164" viewBox="0 0 292 164" fill="none" xmlns="http://www.w3.org/2000/svg">
  <path fill-rule="evenodd" clip-rule="evenodd" d="M4.87.71c0 .362 1.204 1.91 2.677 3.442l2.676 2.784L5.76 4.441C3.307 3.07 1.008 2.231.652 2.575-.408 3.605-.09 44.115 1 46.902c.678 1.731.677 2.911-.004 3.707-.673.788-.918 35.076-.75 105.01L.491 259.46l4.379 1.098c4.4 1.104 4.3 1.312-1.46 3.014l-2.92.862-.274 39.991c-.25 36.423-.128 40.148 1.367 41.753 1.386 1.487 3.106 1.762 11.027 1.762h9.384l1.232-3.308c1.551-4.167 3.229-4.37 2.01-.243-.497 1.686-.904 3.175-.904 3.309 0 .134 3.94.242 8.758.242 5.826 0 8.757-.355 8.757-1.06 0-.762.389-.748 1.377.048 1.016.82 9.75 1.002 33.33.696 40.156-.521 53.6-.525 86.739-.025l26.567.401-1.156-2.156-1.155-2.158 2.384 2.127c1.808 1.614 3.559 2.127 7.25 2.127 4.655 0 4.943-.153 6.659-3.545l1.792-3.545 1.55 3.541 1.55 3.54 15.862.005c11.246.004 16.625-.361 18.489-1.254 1.445-.692 4.379-1.093 6.52-.89 2.141.202 6.301.599 9.244.884 2.944.283 18.732.695 35.086.916l29.734.4 1.587-3.098 1.586-3.098.062 3.059.062 3.059 84.796.006 84.794.004-4.27-2.948c-6.942-4.795-6.68-4.886 3.514-1.222 5.352 1.924 10.497 3.443 11.433 3.376.937-.067 3.784-.073 6.326-.016 2.541.059 17.431.281 33.085.494 25.07.342 28.463.216 28.463-1.057 0-.796.438-1.447.973-1.447.536 0 .974.639.974 1.418 0 1.76 6.478 1.956 10.198.31 1.916-.848 2.773-.848 3.646 0 1.23 1.194 20.214 1.619 20.214.451 0-.362-1.205-1.923-2.676-3.472l-2.676-2.814 4.494 2.493c2.472 1.371 4.771 2.225 5.109 1.896.338-.328.615-7.493.615-15.922 0-11.483-.366-16.176-1.46-18.719-1.822-4.235-1.822-4.737 0-4.058 1.217.454 1.46-.628 1.46-6.516 0-4.749-.372-7.061-1.136-7.061-.624 0-.849-.277-.501-.615.348-.339-.095-1.134-.987-1.766-1.478-1.05-1.433-1.248.513-2.259l2.132-1.109-.034-105.523-.034-105.522-2.706 2.518c-4.179 3.89-4.515 2.987-.698-1.871l3.451-4.39V37.818l-2.676-1.104-2.676-1.104 2.676-.352 2.676-.354v-8.073c0-6.817-.229-7.99-1.472-7.526-1.312.49-1.312.251 0-2.215 1.776-3.336 1.984-14.271.304-15.904-.754-.732-4.65-1.134-10.995-1.134h-9.828l-1.231 3.309c-.678 1.82-1.667 3.308-2.2 3.308-.532 0-.709-.405-.393-.901.315-.497.294-1.983-.047-3.303l-.619-2.4-44.903.337c-53.92.404-56.032.404-100.126-.006-32.518-.303-34.791-.217-34.832 1.32-.024.904-.649 2.92-1.387 4.48-1.32 2.786-1.335 2.755-.797-1.654L408 .053h-16.238c-12.332 0-16.897.332-18.984 1.38-1.511.76-2.964 1.17-3.23.912-.923-.897-17.949-1.61-47.15-1.976L293.013 0l-4.062 5.226c-2.233 2.874-4.235 5.226-4.447 5.226-.212 0 .716-2.113 2.063-4.696 1.347-2.582 2.449-4.93 2.449-5.22 0-.4-174.014-.005-185.862.423-1.338.048-15.899-.186-32.356-.518-27.157-.55-29.923-.466-29.923.921 0 .84-.438 1.527-.973 1.527-.535 0-.973-.638-.973-1.418 0-1.711-6.195-1.959-10.377-.414-1.919.709-2.821.709-3.064 0C25.106-.057 4.87-.397 4.87.71Z" fill="#000"/>
</svg>
