<svg width="282" height="12" viewBox="0 0 282 12" fill="none" xmlns="http://www.w3.org/2000/svg">
<path opacity="0.6" d="M121.863 6.66048C121.931 6.63321 121.989 6.59086 122.028 6.53846C122.212 6.34662 123 6 123 6C123 6 122.212 5.65338 122.028 5.46154C121.989 5.40914 121.931 5.36679 121.863 5.33952C121.794 5.31225 121.716 5.3012 121.64 5.30769L121.251 5.46154H120.085C119.838 5.46154 118.531 5.30769 118.531 5.30769C118.473 5.3882 118.408 5.46533 118.336 5.53846C118.22 5.65738 118.078 5.50462 117.754 5.53846C117.234 5.53832 116.715 5.51263 116.199 5.46154H115.81C115.433 5.35167 115.043 5.2743 114.645 5.23077C114.217 5.212 114.256 5.23077 114.256 5.23077C114.083 5.33724 113.885 5.41565 113.673 5.46154C113.349 5.52477 112.507 5.46154 112.507 5.46154V5.30769C112.507 5.30769 111.42 5.39831 111.341 5.53846C111.262 5.67862 110.758 5.53846 110.758 5.53846L109.398 5.38462C109.398 5.38462 108.199 5.33462 107.844 5.30769C107.488 5.28077 107.455 5.15385 107.455 5.15385L106.095 5L106.289 5.23077C106.289 5.23077 106.213 5.31323 106.095 5.46154C105.977 5.60985 105.512 5.46154 105.512 5.46154L104.152 5.38462L103.763 5.53846H102.597C102.597 5.53846 102.079 5.46154 102.014 5.38462C101.959 5.32625 101.894 5.27444 101.82 5.23077H100.46L100.071 5.38462L99.2938 5.15385L97.9336 5.38462L0 6L97.9336 6.61538L99.2938 6.84615L100.071 6.61538L100.46 6.76923H101.82C101.894 6.72556 101.959 6.67375 102.014 6.61538C102.079 6.53846 102.597 6.46154 102.597 6.46154H103.763L104.152 6.61538L105.512 6.53846C105.512 6.53846 105.977 6.39015 106.095 6.53846C106.213 6.68677 106.289 6.76923 106.289 6.76923L106.095 7L107.455 6.84615C107.455 6.84615 107.488 6.71923 107.844 6.69231C108.199 6.66538 109.398 6.61538 109.398 6.61538L110.758 6.46154C110.758 6.46154 111.262 6.32138 111.341 6.46154C111.42 6.60169 112.507 6.69231 112.507 6.69231V6.53846C112.507 6.53846 113.349 6.47523 113.673 6.53846C113.885 6.58435 114.083 6.66276 114.256 6.76923C114.256 6.76923 114.217 6.788 114.645 6.76923C115.043 6.72569 115.433 6.64832 115.81 6.53846H116.199C116.715 6.48737 117.234 6.46168 117.754 6.46154C118.078 6.49538 118.22 6.34262 118.336 6.46154C118.408 6.53467 118.473 6.6118 118.531 6.69231C118.531 6.69231 119.838 6.53846 120.085 6.53846H121.251L121.64 6.69231C121.716 6.6988 121.794 6.68775 121.863 6.66048Z" fill="#F2E8D9"/>
<g clip-path="url(#clip0_4_7671)">
<path fill-rule="evenodd" clip-rule="evenodd" d="M139.947 0.922996C140.105 0.642367 140.331 0.409333 140.604 0.247314C140.876 0.0852955 141.186 0 141.5 0C141.815 0 142.124 0.0852955 142.397 0.247314C142.669 0.409333 142.896 0.642367 143.053 0.922996L147.647 9.1153C147.804 9.39595 147.887 9.7143 147.887 10.0384C147.887 10.3624 147.804 10.6808 147.647 10.9614C147.49 11.2421 147.263 11.4751 146.991 11.6372C146.718 11.7992 146.409 11.8845 146.094 11.8845H136.906C136.592 11.8845 136.282 11.7992 136.01 11.6372C135.737 11.4751 135.511 11.2421 135.354 10.9614C135.196 10.6808 135.113 10.3624 135.113 10.0384C135.113 9.7143 135.196 9.39595 135.354 9.1153L139.947 0.922996Z" fill="#EE991A"/>
<path fill-rule="evenodd" clip-rule="evenodd" d="M140.234 1.86154C140.365 1.62758 140.553 1.43328 140.781 1.29819C141.008 1.1631 141.266 1.09198 141.528 1.09198C141.79 1.09198 142.048 1.1631 142.275 1.29819C142.502 1.43328 142.691 1.62758 142.822 1.86154L146.695 8.77139C146.826 9.00527 146.895 9.27058 146.895 9.54065C146.895 9.81072 146.826 10.076 146.695 10.3099C146.563 10.5438 146.375 10.738 146.148 10.873C145.921 11.008 145.663 11.0791 145.401 11.0791H137.655C137.393 11.0791 137.136 11.008 136.908 10.873C136.681 10.738 136.493 10.5438 136.361 10.3099C136.23 10.076 136.161 9.81072 136.161 9.54065C136.161 9.27058 136.23 9.00527 136.361 8.77139L140.234 1.86154Z" fill="#EE991A"/>
<path fill-rule="evenodd" clip-rule="evenodd" d="M138.405 7.13431H140.292C140.281 7.35838 140.332 7.58109 140.439 7.77661C140.546 7.97213 140.704 8.13244 140.896 8.23893L139.96 9.968C139.96 9.968 139.843 10.3142 139.492 10.016C139.11 9.7008 138.788 9.31543 138.542 8.87939C138.322 8.41713 138.184 7.91841 138.134 7.40647C138.127 7.36849 138.129 7.32925 138.14 7.29231C138.151 7.25536 138.171 7.22187 138.198 7.19486C138.225 7.16785 138.258 7.14816 138.294 7.13759C138.33 7.12702 138.369 7.12589 138.405 7.13431ZM141.5 6.36385C141.649 6.35956 141.795 6.40093 141.92 6.48265C142.045 6.56437 142.144 6.68273 142.204 6.8226C142.263 6.96246 142.281 7.11747 142.255 7.26778C142.228 7.4181 142.159 7.5569 142.056 7.66641C141.952 7.77593 141.819 7.85119 141.674 7.88256C141.529 7.91394 141.378 7.9 141.241 7.84254C141.103 7.78507 140.985 7.68669 140.903 7.55998C140.82 7.43327 140.775 7.28399 140.775 7.13123C140.773 6.93054 140.848 6.73697 140.984 6.59308C141.119 6.44918 141.305 6.36673 141.5 6.36385ZM142.708 7.13123H144.595C144.632 7.12271 144.67 7.12375 144.706 7.13425C144.742 7.14475 144.775 7.16439 144.802 7.19138C144.829 7.21837 144.849 7.25186 144.861 7.28883C144.872 7.32579 144.874 7.36506 144.867 7.40308C144.817 7.91442 144.678 8.41249 144.459 8.874C144.213 9.30967 143.89 9.69458 143.508 10.0092C143.157 10.3077 143.039 9.96123 143.039 9.96123L142.104 8.23447C142.295 8.12826 142.454 7.96821 142.561 7.77292C142.668 7.57763 142.719 7.35512 142.708 7.13123H142.708ZM142.104 6.012C141.923 5.897 141.713 5.83612 141.5 5.83612C141.287 5.83612 141.078 5.897 140.896 6.012L139.975 4.31739C139.947 4.28653 139.928 4.24933 139.917 4.20894C139.907 4.16855 139.906 4.12618 139.915 4.0854C139.924 4.04463 139.942 4.00667 139.968 3.97474C139.994 3.94281 140.028 3.91786 140.065 3.902C140.51 3.66917 141.001 3.54861 141.5 3.55031C142.001 3.56262 142.495 3.68239 142.949 3.902C142.983 3.92222 143.012 3.94928 143.035 3.98153C143.057 4.01378 143.074 4.05051 143.082 4.08946C143.091 4.12841 143.091 4.16874 143.084 4.20795C143.077 4.24715 143.062 4.2844 143.04 4.31739C142.997 4.40123 142.104 6.01216 142.104 6.01216L142.104 6.012Z" fill="#060605"/>
</g>
<path opacity="0.6" fill-rule="evenodd" clip-rule="evenodd" d="M184.863 6.61538L183.513 6.84615L182.742 6.61538L182.357 6.76923H181.008C180.935 6.72556 180.87 6.67375 180.815 6.61538C180.751 6.53846 180.237 6.46154 180.237 6.46154H179.081L178.695 6.61538L177.346 6.53846C177.346 6.53846 176.885 6.39015 176.768 6.53846C176.651 6.68677 176.575 6.76923 176.575 6.76923L176.768 7L175.419 6.84615C175.419 6.84615 175.386 6.71923 175.033 6.69231C174.681 6.66538 173.491 6.61538 173.491 6.61538L172.142 6.46154C172.142 6.46154 171.642 6.32138 171.564 6.46154C171.486 6.60169 170.408 6.69231 170.408 6.69231V6.53846C170.408 6.53846 169.573 6.47523 169.251 6.53846C169.041 6.58435 168.845 6.66276 168.673 6.76923C168.673 6.76923 168.712 6.788 168.288 6.76923C167.893 6.72569 167.505 6.64832 167.131 6.53846H166.746C166.234 6.48737 165.719 6.46168 165.204 6.46154C164.882 6.49538 164.741 6.34262 164.626 6.46154C164.555 6.53467 164.49 6.6118 164.433 6.69231C164.433 6.69231 163.136 6.53846 162.891 6.53846C162.646 6.53846 161.735 6.53846 161.735 6.53846L161.349 6.69231C161.273 6.6988 161.196 6.68775 161.128 6.66048C161.06 6.63321 161.003 6.59086 160.964 6.53846C160.782 6.34662 160 6 160 6C160 6 160.782 5.65338 160.964 5.46154C161.003 5.40914 161.06 5.36679 161.128 5.33952C161.196 5.31225 161.273 5.3012 161.349 5.30769L161.735 5.46154C161.735 5.46154 162.646 5.46154 162.891 5.46154C163.136 5.46154 164.433 5.30769 164.433 5.30769C164.49 5.3882 164.555 5.46533 164.626 5.53846C164.741 5.65738 164.882 5.50462 165.204 5.53846C165.719 5.53832 166.234 5.51263 166.746 5.46154H167.131C167.505 5.35167 167.893 5.2743 168.288 5.23077C168.712 5.212 168.673 5.23077 168.673 5.23077C168.845 5.33724 169.041 5.41565 169.251 5.46154C169.573 5.52477 170.408 5.46154 170.408 5.46154V5.30769C170.408 5.30769 171.486 5.39831 171.564 5.53846C171.642 5.67862 172.142 5.53846 172.142 5.53846L173.491 5.38462C173.491 5.38462 174.681 5.33462 175.033 5.30769C175.386 5.28077 175.419 5.15385 175.419 5.15385L176.768 5L176.575 5.23077C176.575 5.23077 176.651 5.31323 176.768 5.46154C176.885 5.60985 177.346 5.46154 177.346 5.46154L178.695 5.38462L179.081 5.53846H180.237C180.237 5.53846 180.751 5.46154 180.815 5.38462C180.87 5.32625 180.935 5.27444 181.008 5.23077H182.357L182.742 5.38462L183.513 5.15385L184.863 5.38462L282 6L184.863 6.61538Z" fill="#F2E8D9"/>
<defs>
<clipPath id="clip0_4_7671">
<rect width="13" height="12" fill="white" transform="translate(135)"/>
</clipPath>
</defs>
</svg>
