<svg width="27" height="28" viewBox="0 0 27 28" fill="none" xmlns="http://www.w3.org/2000/svg">
<g clip-path="url(#clip0_72_57)">
<path d="M16.0177 17.906C16.1134 18.004 16.1134 18.1638 16.0177 18.263C15.4946 18.802 14.6745 19.0645 13.5079 19.0645L13.4989 19.0622L13.4899 19.0645C12.3244 19.0645 11.5031 18.802 10.98 18.2618C10.8844 18.1638 10.8844 18.004 10.98 17.906C11.0745 17.808 11.2298 17.808 11.3254 17.906C11.7517 18.3458 12.4594 18.5605 13.4899 18.5605L13.4989 18.5628L13.5079 18.5605C14.5372 18.5605 15.2449 18.3458 15.6724 17.906C15.768 17.808 15.9233 17.808 16.0177 17.906ZM12.1478 15.085C12.1478 14.4935 11.682 14.0128 11.1105 14.0128C10.5379 14.0128 10.0721 14.4935 10.0721 15.085C10.0721 15.6753 10.5379 16.156 11.1105 16.156C11.682 16.1572 12.1478 15.6765 12.1478 15.085ZM27 14C27 21.7315 20.9554 28 13.5 28C6.04463 28 0 21.7315 0 14C0 6.2685 6.04463 0 13.5 0C20.9554 0 27 6.2685 27 14ZM21.375 13.8495C21.375 12.8567 20.5931 12.0493 19.6313 12.0493C19.1621 12.0493 18.7369 12.2442 18.423 12.5568C17.235 11.746 15.6274 11.2303 13.8488 11.1638L14.8219 7.98583L17.4578 8.62633L17.4544 8.666C17.4544 9.478 18.0945 10.1383 18.8809 10.1383C19.6673 10.1383 20.3062 9.478 20.3062 8.666C20.3062 7.854 19.6673 7.19367 18.8809 7.19367C18.2768 7.19367 17.7626 7.5845 17.5545 8.13167L14.7139 7.441C14.5901 7.4095 14.463 7.48417 14.4247 7.61017L13.3391 11.1545C11.4761 11.1778 9.78975 11.6982 8.54887 12.5323C8.23725 12.2348 7.82437 12.0482 7.36762 12.0482C6.40687 12.0493 5.625 12.8567 5.625 13.8495C5.625 14.5098 5.97487 15.0815 6.489 15.3953C6.45525 15.5867 6.43275 15.7815 6.43275 15.9787C6.43275 18.6398 9.58838 20.8052 13.4674 20.8052C17.3464 20.8052 20.502 18.6398 20.502 15.9787C20.502 15.792 20.4829 15.6088 20.4525 15.428C20.9993 15.1235 21.375 14.5343 21.375 13.8495ZM15.894 14.014C15.3214 14.014 14.8568 14.4947 14.8568 15.0862C14.8568 15.6765 15.3225 16.1572 15.894 16.1572C16.4655 16.1572 16.9312 15.6765 16.9312 15.0862C16.9312 14.4947 16.4666 14.014 15.894 14.014Z" fill="white"/>
</g>
<defs>
<clipPath id="clip0_72_57">
<rect width="27" height="28" fill="white"/>
</clipPath>
</defs>
</svg>
