<svg width="48" height="58" viewBox="0 0 48 58" fill="none" xmlns="http://www.w3.org/2000/svg">
<g clip-path="url(#clip0_72_10)">
<path d="M48.048 0H0V47.5407H48.048V0Z" fill="#E2011A"/>
<path d="M16.9145 40.7888H9.4187V15.0205H4.51782V10.6467C7.88172 10.6938 10.0922 9.31441 11.2931 6.08191H16.9145V40.7888Z" fill="white"/>
<path d="M23.8325 30.9C23.8325 27.4764 24.6013 25.0526 27.4355 22.9126C25.0811 20.5831 24.2166 18.5384 24.2166 15.401C24.2166 9.93319 27.7243 6.08191 33.4902 6.08191C39.2559 6.08191 42.7637 9.93319 42.7637 15.401C42.7637 18.5383 41.8992 20.583 39.5447 22.9126C42.3805 25.0527 43.1477 27.4764 43.1477 30.9C43.1477 37.1274 41.1796 41.3604 33.4902 41.3604C25.8028 41.3604 23.8325 37.1274 23.8325 30.9ZM33.4902 26.0504C31.7601 26.0504 31.3272 27.2388 31.3272 30.4724C31.3272 33.752 31.7601 34.8932 33.4902 34.8932C35.2191 34.8932 35.653 33.752 35.653 30.4724C35.653 27.2388 35.2191 26.0504 33.4902 26.0504ZM33.4902 12.3581C31.905 12.3581 31.5199 13.1187 31.5199 16.4C31.5199 19.6796 31.905 20.4408 33.4902 20.4408C35.0752 20.4408 35.4604 19.6796 35.4604 16.4C35.4604 13.1187 35.0752 12.3581 33.4902 12.3581Z" fill="white"/>
<path d="M0 58H48.048V0H0V58ZM47.0873 46.5889H0.961824V0.950117H47.0872V46.5889H47.0873Z" fill="black"/>
<path d="M43.0296 1.90198V2.25475H42.269V4.63674H41.8222V2.25475H41.0627V1.90198H43.0296ZM46.1263 4.63674H45.6794V2.48279H45.6664L44.9004 4.63674H44.5359L43.8078 2.48279H43.7948V4.63674H43.3479V1.90198H44.0577L44.7468 3.93655H44.7598L45.4297 1.90198H46.1264V4.63674H46.1263Z" fill="black"/>
<path d="M3.05185 54.4351H3.86707L4.61637 50.8295H4.63307L5.41488 54.4351H6.18088L7.23627 50.0212H6.50548L5.81509 53.6301H5.79726L5.05721 50.0212H4.23387L3.47588 53.6301H3.45974L2.74407 50.0212H2.01147L3.05185 54.4351Z" fill="white"/>
<path d="M8.44627 54.4351H9.2616L10.0102 50.8295H10.0282L10.8104 54.4351H11.5737L12.6318 50.0212H11.8993L11.2091 53.6301H11.1918L10.4506 50.0212H9.62728L8.87041 53.6301H8.8536L8.13793 50.0212H7.40601L8.44627 54.4351Z" fill="white"/>
<path d="M13.84 54.4351H14.6559L15.4046 50.8295H15.4213L16.2047 54.4351H16.9691L18.0262 50.0212H17.2947L16.6033 53.6301H16.5866L15.8455 50.0212H15.0227L14.2647 53.6301H14.248L13.5322 50.0212H12.7986L13.84 54.4351Z" fill="white"/>
<path d="M19.1848 53.5636H18.4204V54.4351H19.1848V53.5636Z" fill="white"/>
<path fill-rule="evenodd" clip-rule="evenodd" d="M20.916 52.2298C20.916 51.2234 21.0415 50.4997 21.8157 50.4997C22.4649 50.4997 22.6314 51.1763 22.6314 52.1462C22.6314 53.2832 22.4649 53.9577 21.8157 53.9577C21.067 53.9577 20.916 53.0851 20.916 52.2298ZM20.2593 55.8846H20.9571V53.9341H20.9749C21.1334 54.312 21.5078 54.5507 21.9065 54.5507C23.0631 54.5507 23.3634 53.1504 23.3634 52.1462C23.3634 50.838 22.9636 49.9066 21.9065 49.9066C21.4235 49.9066 21.0334 50.2374 20.9414 50.566H20.9252V50.0211H20.2593V55.8846Z" fill="white"/>
<path fill-rule="evenodd" clip-rule="evenodd" d="M24.7208 51.7673V51.6024C24.7208 51.3412 24.8041 50.4506 25.5367 50.4506C26.1523 50.4506 26.3114 51.0341 26.3114 51.5286V51.7673H24.7208ZM27.0427 52.3112V52.0318C27.0427 51.0843 26.9172 49.9067 25.5528 49.9067C24.1804 49.9067 23.9629 51.1828 23.9629 52.2876C23.9629 53.8023 24.4206 54.5508 25.5117 54.5508C26.7268 54.5508 27.0082 53.4556 27.0082 52.9867H26.3114C26.3114 53.3153 26.2184 54.0081 25.5528 54.0081C24.6965 54.0081 24.6965 52.9867 24.6965 52.3113H27.0427V52.3112Z" fill="white"/>
<path fill-rule="evenodd" clip-rule="evenodd" d="M29.1892 50.4997C29.938 50.4997 30.0873 51.3722 30.0873 52.2297C30.0873 53.1333 29.938 53.843 29.1805 53.843C28.4837 53.843 28.3734 52.9448 28.3734 52.2297C28.3733 51.1763 28.54 50.4997 29.1892 50.4997ZM30.745 50.0212H30.0807V50.5832H30.0623C29.9714 50.2364 29.5807 49.9066 29.0971 49.9066C27.9664 49.9066 27.6418 51.035 27.6418 52.2297C27.6418 52.8142 27.7241 54.4351 29.0224 54.4351C29.4638 54.4351 29.8794 54.2124 30.0308 53.843H30.0481V54.42C30.0481 54.7241 30.0806 55.4071 29.1804 55.4071C28.8147 55.4071 28.4977 55.2508 28.4663 54.8483H27.7675C27.8821 55.9509 28.9565 55.9509 29.2292 55.9509C30.1284 55.9509 30.745 55.4735 30.745 54.1557V50.0212Z" fill="white"/>
<path fill-rule="evenodd" clip-rule="evenodd" d="M31.7048 54.4352H32.4028V50.0223H31.7048V54.4352ZM31.7048 49.348H32.4028V48.5557H31.7048V49.348Z" fill="white"/>
<path d="M34.2828 53.5636H33.5168V54.4351H34.2828V53.5636Z" fill="white"/>
<path fill-rule="evenodd" clip-rule="evenodd" d="M35.3987 54.4352H36.0988V50.0223H35.3987V54.4352ZM35.3987 49.348H36.0988V48.5557H35.3987V49.348Z" fill="white"/>
<path d="M37.0552 54.4351H37.752V51.3894C37.752 50.7471 38.2617 50.4997 38.6359 50.4997C39.2679 50.4997 39.2927 51.0521 39.2927 51.3894V54.4351H39.9917V51.3059C39.9917 50.7889 39.9917 49.9067 38.8178 49.9067C38.3872 49.9067 37.9208 50.1379 37.738 50.5426H37.7196V50.0212H37.0552V54.4351Z" fill="white"/>
<path d="M41.1168 54.4349H41.8179V50.5659H42.5818V50.0209H41.8179V49.5038C41.8179 49.1988 41.9661 49.0842 42.267 49.0842H42.5905V48.491H42.083C41.4079 48.491 41.1168 48.8368 41.1168 49.5037V50.0208H40.4688V50.5657H41.1168V54.4349Z" fill="white"/>
<path fill-rule="evenodd" clip-rule="evenodd" d="M42.8469 52.2297C42.8469 53.4715 43.1651 54.5506 44.4537 54.5506C45.7358 54.5506 46.0594 53.4715 46.0594 52.2297C46.0594 50.9847 45.7433 49.9066 44.4537 49.9066C43.1738 49.9066 42.8469 50.9847 42.8469 52.2297ZM44.4364 54.009C43.7212 54.009 43.5817 53.1825 43.5817 52.2297C43.5817 51.2727 43.731 50.4505 44.4364 50.4505C45.1863 50.4505 45.329 51.2726 45.329 52.2297C45.329 53.1824 45.1776 54.009 44.4364 54.009Z" fill="white"/>
</g>
<defs>
<clipPath id="clip0_72_10">
<rect width="48" height="58" fill="white"/>
</clipPath>
</defs>
</svg>
