<svg width="24" height="25" viewBox="0 0 24 25" fill="none" xmlns="http://www.w3.org/2000/svg">
<g id="button icons" clip-path="url(#clip0_28_551)">
<path id="icon" fill-rule="evenodd" clip-rule="evenodd" d="M4.81127 22.1C4.81127 20.78 5.87927 19.7 7.19927 19.7C8.51927 19.7 9.59927 20.78 9.59927 22.1C9.59927 23.42 8.51927 24.5 7.19927 24.5C5.87927 24.5 4.81127 23.42 4.81127 22.1ZM-0.000732422 2.9V0.5H3.92327L5.05127 2.9H22.7993C23.4593 2.9 23.9993 3.44 23.9993 4.1C23.9993 4.304 23.9513 4.508 23.8553 4.676L19.5593 12.464C19.1513 13.208 18.3593 13.7 17.4593 13.7H8.51927L7.43927 15.656L7.40327 15.8C7.40327 15.968 7.53527 16.1 7.70327 16.1H21.5993V18.5H7.19927C5.87927 18.5 4.79927 17.42 4.79927 16.1C4.79927 15.68 4.90727 15.284 5.09927 14.948L6.71927 12.008L2.39927 2.9H-0.000732422ZM16.8113 22.1C16.8113 20.78 17.8793 19.7 19.1993 19.7C20.5193 19.7 21.5993 20.78 21.5993 22.1C21.5993 23.42 20.5193 24.5 19.1993 24.5C17.8793 24.5 16.8113 23.42 16.8113 22.1ZM13.7479 8.21536C13.7479 7.83404 13.4385 7.52466 13.0572 7.52466C12.6759 7.52466 12.3665 7.84699 12.3665 8.21536C12.3665 8.58373 12.6759 8.90606 13.0572 8.90606C13.4385 8.90606 13.7479 8.59669 13.7479 8.21536ZM11.4269 10.8111L12.4471 9.1809C12.1219 8.97513 11.9032 8.61683 11.9033 8.20529H9.97799C9.6997 8.20529 9.47804 8.45135 9.51853 8.72691C9.64775 9.60438 10.0974 10.3774 10.7441 10.9256C10.9549 11.1046 11.2801 11.0456 11.4269 10.8111ZM14.6888 10.811C14.8356 11.0456 15.16 11.1046 15.371 10.9256C16.0171 10.3781 16.4661 9.60395 16.596 8.72705C16.6365 8.45178 16.4149 8.20529 16.1366 8.20529H14.2112C14.2112 8.61683 13.9925 8.97513 13.6673 9.1809L14.6888 10.811ZM13.0572 7.05269C13.2817 7.05269 13.4903 7.12032 13.6673 7.23112L14.6878 5.59978C14.8337 5.36652 14.7477 5.05013 14.4962 4.93858C14.0561 4.74333 13.5695 4.63381 13.0572 4.63381C12.5449 4.63381 12.0586 4.74317 11.6185 4.93815C11.367 5.04966 11.281 5.36609 11.4269 5.59935L12.4471 7.23112C12.6241 7.12033 12.8327 7.05269 13.0572 7.05269Z" fill="#060605"/>
</g>
<defs>
<clipPath id="clip0_28_551">
<rect width="24" height="24" fill="white" transform="translate(-0.000732422 0.5)"/>
</clipPath>
</defs>
</svg>
