<svg width="26" height="26" viewBox="0 0 26 26" fill="none" xmlns="http://www.w3.org/2000/svg">
<g clip-path="url(#clip0_72_42)">
<path fill-rule="evenodd" clip-rule="evenodd" d="M26 13C26 20.1797 20.1797 26 13 26C5.8203 26 0 20.1797 0 13C0 5.8203 5.8203 0 13 0C20.1797 0 26 5.8203 26 13ZM11.2061 13.777L4.99224 5.46865H9.78139L13.8551 10.9155L18.8968 5.46865H20.3042L14.4838 11.7565L21.0474 20.5321H16.2583L11.8351 14.6178L6.36049 20.5321H4.95308L11.2061 13.777ZM9.26201 6.50524H7.0619L16.7774 19.4955H18.9775L9.26201 6.50524Z" fill="white"/>
</g>
<defs>
<clipPath id="clip0_72_42">
<rect width="26" height="26" fill="white"/>
</clipPath>
</defs>
</svg>
