<svg width="28" height="20" viewBox="0 0 28 20" fill="none" xmlns="http://www.w3.org/2000/svg">
<g clip-path="url(#clip0_72_52)">
<path d="M11.1615 13.5891L18.6057 9.72409L11.1615 5.83861V13.5891ZM27.7858 8.96744V11.0636C27.7858 13.3028 27.5101 15.5319 27.5101 15.5319C27.5101 15.5319 27.2446 17.4337 26.4175 18.2721C25.3759 19.3662 24.2016 19.3764 23.6604 19.4378C19.8004 19.7139 14.0105 19.7241 14.0105 19.7241C14.0105 19.7241 6.85222 19.6627 4.64653 19.448C4.03384 19.3355 2.66549 19.3764 1.61371 18.2721C0.786572 17.4337 0.521072 15.5319 0.521072 15.5319C0.521072 15.5319 0.245361 13.2926 0.245361 11.0636V8.96744C0.245361 6.72818 0.521072 4.49914 0.521072 4.49914C0.521072 4.49914 0.786572 2.5973 1.61371 1.75886C2.65528 0.664787 3.82961 0.654562 4.37082 0.593212C8.23077 0.317139 14.0105 0.317139 14.0105 0.317139H14.0207C14.0207 0.317139 19.8004 0.317139 23.6604 0.593212C24.1914 0.654562 25.3759 0.654562 26.4175 1.75886C27.2446 2.5973 27.5101 4.49914 27.5101 4.49914C27.5101 4.49914 27.7858 6.72818 27.7858 8.96744Z" fill="white"/>
</g>
<defs>
<clipPath id="clip0_72_52">
<rect width="28" height="20" fill="white"/>
</clipPath>
</defs>
</svg>
