<svg width="365" height="16" viewBox="0 0 365 16" fill="none" xmlns="http://www.w3.org/2000/svg">
<path opacity="0.6" d="M160.502 8.99072C160.593 8.94981 160.669 8.88629 160.72 8.80769C160.962 8.51992 162 8 162 8C162 8 160.962 7.48008 160.72 7.19231C160.669 7.11371 160.593 7.05019 160.502 7.00928C160.411 6.96837 160.309 6.95181 160.209 6.96154L159.697 7.19231H158.161C157.835 7.19231 156.114 6.96154 156.114 6.96154C156.038 7.08231 155.952 7.19799 155.858 7.30769C155.704 7.48608 155.517 7.25692 155.09 7.30769C154.406 7.30748 153.722 7.26895 153.043 7.19231H152.531C152.034 7.02751 151.519 6.91145 150.995 6.84615C150.432 6.818 150.483 6.84615 150.483 6.84615C150.255 7.00586 149.994 7.12348 149.716 7.19231C149.288 7.28715 148.18 7.19231 148.18 7.19231V6.96154C148.18 6.96154 146.749 7.09746 146.645 7.30769C146.54 7.51792 145.877 7.30769 145.877 7.30769L144.085 7.07692C144.085 7.07692 142.506 7.00192 142.038 6.96154C141.57 6.92115 141.526 6.73077 141.526 6.73077L139.735 6.5L139.991 6.84615C139.991 6.84615 139.89 6.96985 139.735 7.19231C139.579 7.41477 138.967 7.19231 138.967 7.19231L137.175 7.07692L136.663 7.30769H135.128C135.128 7.30769 134.445 7.19231 134.36 7.07692C134.288 6.98938 134.201 6.91166 134.104 6.84615H132.313L131.801 7.07692L130.777 6.73077L128.986 7.07692L0 8L128.986 8.92308L130.777 9.26923L131.801 8.92308L132.313 9.15385H134.104C134.201 9.08834 134.288 9.01063 134.36 8.92308C134.445 8.80769 135.128 8.69231 135.128 8.69231H136.663L137.175 8.92308L138.967 8.80769C138.967 8.80769 139.579 8.58523 139.735 8.80769C139.89 9.03015 139.991 9.15385 139.991 9.15385L139.735 9.5L141.526 9.26923C141.526 9.26923 141.57 9.07885 142.038 9.03846C142.506 8.99808 144.085 8.92308 144.085 8.92308L145.877 8.69231C145.877 8.69231 146.54 8.48208 146.645 8.69231C146.749 8.90254 148.18 9.03846 148.18 9.03846V8.80769C148.18 8.80769 149.288 8.71285 149.716 8.80769C149.994 8.87652 150.255 8.99414 150.483 9.15385C150.483 9.15385 150.432 9.182 150.995 9.15385C151.519 9.08854 152.034 8.97249 152.531 8.80769H153.043C153.722 8.73105 154.406 8.69252 155.09 8.69231C155.517 8.74308 155.704 8.51392 155.858 8.69231C155.952 8.80201 156.038 8.91769 156.114 9.03846C156.114 9.03846 157.835 8.80769 158.161 8.80769H159.697L160.209 9.03846C160.309 9.04819 160.411 9.03163 160.502 8.99072Z" fill="#F2E8D9"/>
<g clip-path="url(#clip0_6_8323)">
<path fill-rule="evenodd" clip-rule="evenodd" d="M180.469 1.23078C180.675 0.856611 180.971 0.545899 181.328 0.329874C181.684 0.113849 182.088 0.00012207 182.5 0.00012207C182.912 0.00012207 183.316 0.113849 183.672 0.329874C184.029 0.545899 184.325 0.856611 184.531 1.23078L190.538 12.1539C190.744 12.5281 190.852 12.9525 190.852 13.3846C190.852 13.8167 190.744 14.2412 190.538 14.6154C190.332 14.9896 190.036 15.3003 189.68 15.5164C189.323 15.7324 188.919 15.8462 188.507 15.8462H176.493C176.081 15.8462 175.677 15.7324 175.32 15.5164C174.964 15.3003 174.668 14.9896 174.462 14.6154C174.256 14.2412 174.148 13.8167 174.148 13.3846C174.148 12.9525 174.256 12.5281 174.462 12.1539L180.469 1.23078Z" fill="#EE991A"/>
<path fill-rule="evenodd" clip-rule="evenodd" d="M180.844 2.48208C181.016 2.17012 181.262 1.91106 181.559 1.73094C181.856 1.55082 182.194 1.45599 182.537 1.45599C182.88 1.45599 183.217 1.55082 183.514 1.73094C183.811 1.91106 184.058 2.17012 184.229 2.48208L189.293 11.6952C189.465 12.0071 189.555 12.3608 189.555 12.7209C189.555 13.081 189.465 13.4347 189.293 13.7466C189.122 14.0584 188.875 14.3173 188.578 14.4974C188.281 14.6774 187.944 14.7722 187.601 14.7721H177.473C177.13 14.7722 176.793 14.6774 176.496 14.4974C176.199 14.3173 175.952 14.0584 175.78 13.7466C175.609 13.4347 175.519 13.081 175.518 12.7209C175.518 12.3608 175.609 12.0071 175.78 11.6952L180.844 2.48208Z" fill="#EE991A"/>
<path fill-rule="evenodd" clip-rule="evenodd" d="M178.453 9.51239H180.92C180.906 9.81115 180.972 10.1081 181.112 10.3688C181.252 10.6295 181.459 10.8432 181.71 10.9852L180.486 13.2907C180.486 13.2907 180.332 13.7522 179.874 13.3547C179.374 12.9344 178.953 12.4205 178.631 11.8392C178.344 11.2228 178.164 10.5579 178.098 9.87527C178.089 9.82463 178.091 9.77232 178.106 9.72306C178.121 9.67379 178.147 9.62914 178.182 9.59312C178.217 9.55711 178.26 9.53087 178.308 9.51677C178.355 9.50268 178.405 9.50117 178.453 9.51239ZM182.5 8.48511C182.694 8.4794 182.885 8.53455 183.049 8.64351C183.213 8.75247 183.342 8.91029 183.42 9.09678C183.498 9.28326 183.521 9.48994 183.487 9.69036C183.452 9.89078 183.362 10.0758 183.226 10.2219C183.091 10.3679 182.918 10.4682 182.728 10.5101C182.538 10.5519 182.34 10.5333 182.161 10.4567C181.981 10.3801 181.827 10.2489 181.719 10.08C181.61 9.911 181.552 9.71196 181.552 9.50829C181.549 9.24071 181.647 8.98261 181.824 8.79075C182.002 8.59888 182.245 8.48895 182.5 8.48511ZM184.08 9.50829H186.547C186.595 9.49693 186.645 9.49831 186.692 9.51232C186.74 9.52632 186.783 9.5525 186.818 9.58849C186.853 9.62447 186.88 9.66913 186.894 9.71842C186.909 9.7677 186.912 9.82006 186.902 9.87075C186.837 10.5525 186.656 11.2166 186.369 11.832C186.047 12.4129 185.625 12.9261 185.125 13.3456C184.667 13.7436 184.513 13.2816 184.513 13.2816L183.289 10.9793C183.54 10.8377 183.747 10.6243 183.887 10.3639C184.027 10.1035 184.093 9.80681 184.079 9.50829H184.08ZM183.29 8.01598C183.052 7.86265 182.779 7.78147 182.5 7.78147C182.221 7.78147 181.948 7.86265 181.71 8.01598L180.505 5.7565C180.469 5.71535 180.444 5.66575 180.43 5.6119C180.416 5.55805 180.415 5.50155 180.427 5.44718C180.439 5.39282 180.462 5.3422 180.497 5.29963C180.531 5.25706 180.574 5.22379 180.624 5.20265C181.205 4.8922 181.848 4.73146 182.499 4.73373C183.155 4.75014 183.801 4.90984 184.395 5.20265C184.439 5.2296 184.477 5.26569 184.506 5.30869C184.536 5.35168 184.557 5.40066 184.569 5.45259C184.58 5.50452 184.58 5.5583 184.571 5.61057C184.561 5.66285 184.542 5.71252 184.513 5.7565C184.458 5.86829 183.289 8.01619 183.289 8.01619L183.29 8.01598Z" fill="#060605"/>
</g>
<path opacity="0.6" fill-rule="evenodd" clip-rule="evenodd" d="M236.014 8.92308L234.223 9.26923L233.199 8.92308L232.687 9.15385H230.896C230.799 9.08834 230.712 9.01063 230.64 8.92308C230.555 8.80769 229.872 8.69231 229.872 8.69231H228.336L227.825 8.92308L226.033 8.80769C226.033 8.80769 225.42 8.58523 225.265 8.80769C225.11 9.03015 225.009 9.15385 225.009 9.15385L225.265 9.5L223.474 9.26923C223.474 9.26923 223.43 9.07885 222.962 9.03846C222.494 8.99808 220.915 8.92308 220.915 8.92308L219.123 8.69231C219.123 8.69231 218.46 8.48208 218.355 8.69231C218.251 8.90254 216.82 9.03846 216.82 9.03846V8.80769C216.82 8.80769 215.711 8.71285 215.284 8.80769C215.006 8.87652 214.745 8.99414 214.517 9.15385C214.517 9.15385 214.568 9.182 214.005 9.15385C213.481 9.08854 212.966 8.97249 212.469 8.80769H211.957C211.278 8.73105 210.594 8.69252 209.91 8.69231C209.483 8.74308 209.296 8.51392 209.142 8.69231C209.048 8.80201 208.962 8.91769 208.886 9.03846C208.886 9.03846 207.164 8.80769 206.839 8.80769C206.513 8.80769 205.303 8.80769 205.303 8.80769L204.791 9.03846C204.691 9.04819 204.589 9.03163 204.498 8.99072C204.407 8.94981 204.332 8.88629 204.28 8.80769C204.038 8.51992 203 8 203 8C203 8 204.038 7.48008 204.28 7.19231C204.332 7.11371 204.407 7.05019 204.498 7.00928C204.589 6.96837 204.691 6.95181 204.791 6.96154L205.303 7.19231C205.303 7.19231 206.513 7.19231 206.839 7.19231C207.165 7.19231 208.886 6.96154 208.886 6.96154C208.962 7.08231 209.048 7.19799 209.142 7.30769C209.296 7.48608 209.483 7.25692 209.91 7.30769C210.594 7.30748 211.278 7.26895 211.957 7.19231H212.469C212.966 7.02751 213.481 6.91145 214.005 6.84615C214.568 6.818 214.517 6.84615 214.517 6.84615C214.745 7.00586 215.006 7.12348 215.284 7.19231C215.711 7.28715 216.82 7.19231 216.82 7.19231V6.96154C216.82 6.96154 218.251 7.09746 218.355 7.30769C218.46 7.51792 219.123 7.30769 219.123 7.30769L220.915 7.07692C220.915 7.07692 222.494 7.00192 222.962 6.96154C223.43 6.92115 223.474 6.73077 223.474 6.73077L225.265 6.5L225.009 6.84615C225.009 6.84615 225.11 6.96985 225.265 7.19231C225.42 7.41477 226.033 7.19231 226.033 7.19231L227.825 7.07692L228.336 7.30769H229.872C229.872 7.30769 230.555 7.19231 230.64 7.07692C230.712 6.98938 230.799 6.91166 230.896 6.84615H232.687L233.199 7.07692L234.223 6.73077L236.014 7.07692L365 8L236.014 8.92308Z" fill="#F2E8D9"/>
<defs>
<clipPath id="clip0_6_8323">
<rect width="17" height="16" fill="white" transform="translate(174)"/>
</clipPath>
</defs>
</svg>
