<svg width="60" height="35" viewBox="0 0 60 35" fill="none" xmlns="http://www.w3.org/2000/svg">
<g clip-path="url(#clip0_7_10761)">
<path d="M39.923 23.4378C35.8341 23.2441 36.0913 19.2431 36.0913 19.2431V13.4913H36.0362L36.0913 13.4633V13.4862C37.0773 13.4343 38.0656 13.4343 39.0517 13.4862C41.0541 13.5678 41.1984 13.7665 41.1984 13.7665C44.1273 14.1896 44.5945 17.1177 44.5945 17.1177V18.4149C44.8569 23.2339 39.9518 23.4582 39.923 23.4302V23.4378ZM33.766 11.4093H26.2864C26.2864 11.4093 27.2732 5.35421 18.7148 5.35421C18.7437 5.38224 15.5235 5.38224 15.5235 5.38224C15.5235 5.38224 15.29 1.99794 21.7618 1.99794H37.0807C37.0807 1.99794 42.8833 1.58 44.1011 5.38224C44.1273 5.41028 40.7051 5.38224 40.7051 5.38224C40.7051 5.38224 33.8867 5.19111 33.766 11.4093ZM15.3477 7.46685H19.266C19.266 7.46685 24.0556 7.04381 23.906 11.3532H21.4994C21.4994 11.3532 15.2611 11.6921 15.3477 7.46685ZM24.9531 23.5805C24.9531 23.5805 26.5488 22.1152 26.2654 16.8221C26.2654 16.8476 13.1432 16.8221 13.1432 16.8221V18.6799C13.1432 18.6799 13.0828 21.9928 15.2427 23.5805C15.2427 23.6085 7.75518 23.5805 7.75518 23.5805C7.75518 23.5805 5.55065 23.5805 4.65046 23.0708C4.65046 23.0708 2.41969 22.5076 2.39082 19.503C2.36195 16.4985 2.39082 12.1126 2.39082 12.1126C2.39082 12.1126 2.53516 9.71966 3.14403 9.07236C3.43534 8.73342 3.86838 7.86186 5.55065 7.66053C5.55065 7.66053 6.07553 7.46685 8.56875 7.46685H12.8807C12.8807 7.46685 12.8545 10.7798 15.059 12.0871C15.0852 12.0871 17.1769 13.4098 21.7041 13.4098H33.6847V18.7614C33.6584 20.4647 34.1415 22.1387 35.0756 23.5805H24.9531ZM20.7147 23.4123C20.7147 23.4123 15.6574 23.2161 15.6574 18.8481H23.8692C23.8692 18.8481 24.2734 23.4684 20.7042 23.4123H20.7147ZM59.9606 19.9184C59.9606 19.9184 57.5986 19.8878 57.6406 19.9184C57.6668 23.9959 52.6778 23.5372 52.6778 23.5372H45.4185C47.7805 21.1289 46.9014 16.6055 46.9014 16.5673C46.6835 13.0606 41.8493 11.9164 41.8493 11.9597C39.4165 11.4093 36.107 11.3659 36.107 11.3659C36.1936 7.22985 40.894 7.48469 40.894 7.48469C40.894 7.48469 48.3343 7.40059 53.1685 7.48469C58.0027 7.56879 57.6931 11.1187 57.6931 11.1187C57.6931 11.1187 59.9973 11.1621 59.9973 11.1187C60.0419 5.3746 53.1213 5.41537 53.1213 5.41537C53.1213 5.41537 46.5943 5.45615 46.5943 5.41537C45.681 -0.0382465 38.3693 0.00507651 38.3693 0.00507651H20.3551C13.8203 0.0942712 12.9699 5.38224 12.9699 5.38224H7.45861C-0.351725 5.32618 0.00257338 11.6641 0.00257338 11.6641C0.00257338 11.6641 0.0288178 12.7599 0.00257338 19.4674C-0.023671 26.1748 7.90477 25.6651 7.90477 25.6651H52.3707C60.8975 25.6651 59.9816 19.9184 59.9816 19.9184" fill="white"/>
<path d="M34.6663 33.2773C34.6873 33.0989 34.7109 32.918 34.7267 32.7396C34.7687 32.3165 34.808 31.8909 34.8474 31.4654C34.871 31.2105 34.8894 30.9557 34.913 30.7136L35.0311 29.4547C35.0547 29.2177 35.0705 28.9806 35.102 28.7436C35.1076 28.722 35.1188 28.702 35.1343 28.6856C35.1499 28.6691 35.1694 28.6567 35.1912 28.6494C35.7161 28.6494 36.241 28.6494 36.7947 28.6494C36.7947 28.7411 36.7764 28.8201 36.7632 28.9042C36.6793 29.4139 36.5953 29.9465 36.5008 30.4689C36.4011 31.0754 36.3022 31.6828 36.2042 32.291C36.1071 32.8797 36.0126 33.4659 35.9155 34.0545C35.8683 34.3374 35.8237 34.6203 35.7712 34.9006C35.7623 34.9242 35.7476 34.9454 35.7284 34.9622C35.7092 34.9791 35.686 34.9912 35.661 34.9975C34.976 34.9975 34.291 34.9975 33.5772 34.9975C33.4328 33.5551 33.2885 32.1203 33.1441 30.683H33.0943C33.0727 30.7506 33.056 30.8196 33.0444 30.8894C33.0077 31.2334 32.9788 31.5749 32.9447 31.9088C32.8974 32.3811 32.8484 32.8534 32.7977 33.3257C32.7636 33.657 32.7347 33.9908 32.7006 34.3221C32.6796 34.5158 32.6639 34.7095 32.635 34.9006C32.627 34.9219 32.6137 34.941 32.5963 34.9561C32.5789 34.9712 32.5579 34.9819 32.5353 34.9873C31.8739 34.9873 31.2125 34.9873 30.5512 34.9873C30.5281 34.9819 30.5068 34.9709 30.4894 34.9553C30.4719 34.9397 30.4589 34.92 30.4514 34.8981C30.3727 34.475 30.3045 34.0495 30.2336 33.6239L29.9712 32.0464C29.8741 31.4424 29.7743 30.841 29.6772 30.237C29.6011 29.7681 29.5224 29.3017 29.4463 28.8328C29.4463 28.7768 29.4463 28.7182 29.4305 28.6545C29.4734 28.6523 29.5163 28.6523 29.5591 28.6545C30.0368 28.6545 30.5118 28.6545 30.9895 28.6545C31.0944 28.6545 31.1259 28.6825 31.1338 28.7844C31.1863 29.4037 31.2519 30.0204 31.3096 30.6371C31.3464 31.0296 31.3726 31.422 31.4067 31.8119C31.4487 32.2961 31.4925 32.7786 31.538 33.2594C31.538 33.2594 31.538 33.2747 31.5721 33.3079C31.5899 33.2678 31.6031 33.2259 31.6115 33.183C31.6954 32.4355 31.7768 31.6888 31.8555 30.9429C31.9106 30.418 31.9631 29.8904 32.0156 29.3655C32.0366 29.159 32.0524 28.9501 32.0839 28.7436C32.0918 28.7221 32.1054 28.703 32.1234 28.6883C32.1414 28.6735 32.163 28.6636 32.1862 28.6595C32.7925 28.6595 33.3961 28.6595 33.9997 28.6595C34.0916 28.6595 34.1152 28.7003 34.123 28.7691C34.1519 29.0112 34.1782 29.2508 34.2044 29.4929C34.2516 29.9338 34.3015 30.3772 34.3487 30.8206C34.3855 31.1443 34.4144 31.4679 34.4485 31.789C34.5027 32.2987 34.557 32.799 34.6112 33.29L34.6663 33.2773Z" fill="white"/>
<path d="M12.1357 34.9925V34.8294C12.1357 32.8263 12.1357 30.8207 12.1357 28.8151C12.1357 28.6826 12.1699 28.6418 12.3142 28.6418C12.9231 28.6418 13.5354 28.6418 14.1513 28.6418C14.2747 28.6418 14.314 28.6826 14.3403 28.7921C14.6657 30.1683 14.9938 31.5427 15.3244 32.9155C15.3401 32.9541 15.3586 32.9915 15.3796 33.0276C15.432 32.8187 15.4793 32.6428 15.5213 32.4695C15.81 31.2539 16.1013 30.0409 16.3873 28.8253C16.4188 28.6928 16.4634 28.6367 16.6235 28.6392C17.214 28.6392 17.8019 28.6392 18.3898 28.6392H18.5682V34.9823H16.9358V31.0399H16.8781C16.5982 32.3565 16.3174 33.6766 16.0357 35.0001C15.6158 35.0001 15.2011 35.0001 14.7891 35.0001C14.7497 35.0001 14.6867 34.9287 14.6762 34.8803C14.4951 34.047 14.3193 33.2111 14.1513 32.3752C14.0673 31.9751 13.986 31.5776 13.8889 31.1775C13.8773 31.128 13.8485 31.084 13.8075 31.0526V31.2182C13.8075 32.4211 13.8075 33.624 13.8075 34.8268C13.8075 34.9772 13.7603 35.0128 13.6081 35.0103C13.1252 34.9874 12.6449 34.9925 12.1357 34.9925Z" fill="white"/>
<path d="M55.2705 28.6365H55.5749C56.3754 28.6365 57.1758 28.6365 57.9737 28.6365C58.2013 28.6463 58.4245 28.7009 58.6298 28.797C58.7765 28.8729 58.897 28.9889 58.9763 29.1307C59.0557 29.2726 59.0903 29.4339 59.0759 29.5947C59.0759 31.0643 59.0759 32.5339 59.0759 34.0034C59.0803 34.1349 59.0562 34.2658 59.0053 34.3877C58.9544 34.5097 58.8778 34.6199 58.7804 34.7113C58.683 34.8028 58.567 34.8734 58.4398 34.9187C58.3126 34.964 58.1771 34.983 58.0419 34.9744H55.4017H55.2705V28.6365ZM56.9003 29.3424V34.0926C56.8964 34.1316 56.8964 34.1709 56.9003 34.2099C56.9033 34.2227 56.9091 34.2348 56.9172 34.2453C56.9254 34.2558 56.9357 34.2646 56.9475 34.271C56.9975 34.294 57.0527 34.3042 57.1079 34.3007C57.163 34.2972 57.2164 34.2801 57.2629 34.251C57.3094 34.222 57.3474 34.1819 57.3735 34.1345C57.3997 34.0872 57.4129 34.0342 57.4121 33.9805C57.4121 32.5313 57.4121 31.0821 57.4121 29.6329C57.4121 29.4418 57.3071 29.35 57.1076 29.3424H56.9003Z" fill="white"/>
<path d="M47.6761 32.5305C47.9385 33.3511 48.201 34.1666 48.4818 34.9923C47.9333 34.9923 47.4084 34.9923 46.8809 34.9923C46.7706 34.9923 46.7575 34.9286 46.7391 34.8572C46.5738 34.1615 46.4111 33.4683 46.2457 32.7726C46.2405 32.7442 46.2308 32.7166 46.2169 32.6911C46.1964 32.6719 46.1692 32.661 46.1408 32.6605C46.1276 32.6605 46.1066 32.6936 46.104 32.7115C46.1001 32.7504 46.1001 32.7897 46.104 32.8287V34.9796C46.0437 34.9796 45.999 34.9796 45.9544 34.9796C45.5056 34.9796 45.0542 34.9796 44.6028 34.9796C44.4769 34.9796 44.4375 34.9439 44.4375 34.8241C44.4375 34.1564 44.4375 33.4913 44.4375 32.8236V28.8404C44.4375 28.6467 44.4375 28.6467 44.6343 28.6467C45.4742 28.6467 46.314 28.6467 47.1538 28.6467C47.3328 28.6488 47.5102 28.6798 47.6787 28.7385C47.8414 28.784 47.9847 28.8792 48.0873 29.01C48.1899 29.1409 48.2463 29.3003 48.2482 29.4648C48.2771 30.163 48.2744 30.8639 48.2823 31.5647C48.2902 31.6563 48.2902 31.7483 48.2823 31.8399C48.2705 32.0028 48.2052 32.1577 48.0961 32.282C47.987 32.4063 47.8398 32.4934 47.6761 32.5305ZM46.1014 31.9291C46.4767 31.9903 46.6079 31.8883 46.6079 31.5417V29.7349C46.6079 29.4062 46.4531 29.2966 46.1014 29.3756V31.9291Z" fill="white"/>
<path d="M42.427 31.8246C42.427 32.5611 42.427 33.295 42.427 34.029C42.4337 34.1589 42.4119 34.2888 42.363 34.4099C42.3142 34.5311 42.2394 34.6408 42.1437 34.7319C42.0479 34.8229 41.9334 34.8932 41.8076 34.9381C41.6818 34.983 41.5477 35.0014 41.414 34.9923C40.8471 34.9923 40.2776 34.9923 39.7107 34.9923C38.9418 34.9923 38.6216 34.5871 38.6163 33.9729C38.598 32.533 38.5953 31.0906 38.6163 29.6406C38.6163 28.9627 38.9864 28.6671 39.6845 28.634C40.2487 28.6085 40.813 28.6136 41.3746 28.634C42.0097 28.6569 42.4375 28.9627 42.4244 29.6533C42.427 30.3847 42.427 31.1059 42.427 31.8246ZM40.275 31.8246V34.029C40.275 34.2252 40.3459 34.2965 40.5374 34.2838C40.729 34.2711 40.7999 34.2023 40.7999 34.0137V29.638C40.7999 29.4443 40.7133 29.3552 40.5374 29.3552C40.3616 29.3552 40.2881 29.4316 40.2881 29.6304L40.275 31.8246Z" fill="white"/>
<path d="M6.86814 28.6366H7.01774C7.78145 28.6366 8.54516 28.6366 9.30887 28.6366C9.43747 28.6366 9.47946 28.685 9.49521 28.7895C9.5477 29.1922 9.60019 29.5974 9.6553 30C9.71829 30.4893 9.78652 30.9786 9.85213 31.4704C9.90987 31.8909 9.96498 32.314 10.0227 32.7446C10.0805 33.1753 10.1356 33.5805 10.1933 33.9985C10.2379 34.3221 10.2799 34.6483 10.3245 34.9847C10.2817 34.9868 10.2388 34.9868 10.1959 34.9847C9.74453 34.9847 9.29313 34.9847 8.84172 34.9847C8.7315 34.9847 8.69738 34.9541 8.6895 34.8471C8.65801 34.3731 8.61077 33.8991 8.5714 33.4251C8.5714 33.3486 8.53466 33.3104 8.44806 33.3129C8.23285 33.3129 8.01765 33.3129 7.78407 33.3129L7.62923 34.9745H6.01257C6.29951 32.8695 6.5847 30.7569 6.86814 28.6366ZM8.4743 32.5994C8.4743 32.4924 8.4743 32.3981 8.4743 32.3089C8.42706 31.7839 8.37195 31.2589 8.32733 30.7339C8.29059 30.3338 8.26435 29.9337 8.2276 29.5336C8.2276 29.4954 8.19086 29.4597 8.16987 29.4215H8.12263L7.84181 32.5892L8.4743 32.5994Z" fill="white"/>
<path d="M2.53558 30.6601C2.53558 30.3109 2.53558 29.9669 2.53558 29.6229C2.53696 29.5894 2.53154 29.556 2.51962 29.5246C2.50771 29.4931 2.48953 29.4643 2.46614 29.4397C2.44274 29.4151 2.41459 29.3952 2.38327 29.3811C2.35196 29.3671 2.3181 29.3592 2.28364 29.3578C2.24917 29.3565 2.21477 29.3617 2.18241 29.3733C2.15004 29.3849 2.12033 29.4025 2.09499 29.4253C2.06964 29.448 2.04915 29.4753 2.03469 29.5057C2.02023 29.5361 2.01208 29.569 2.0107 29.6025V34.0112C2.0107 34.2202 2.07893 34.2916 2.27314 34.289C2.46735 34.2865 2.53558 34.2075 2.53558 34.0036V32.6274C2.52436 32.6176 2.51203 32.6091 2.49884 32.602C2.28889 32.5816 2.28889 32.5816 2.28889 32.3726C2.28889 32.2248 2.28889 32.0795 2.28889 31.9343C2.29331 31.9221 2.29857 31.9101 2.30463 31.8986H4.18636C4.18636 31.9496 4.18636 32.0005 4.18636 32.0515C4.18636 32.6351 4.18636 33.2187 4.18636 33.8048C4.18679 33.9599 4.17007 34.1145 4.13649 34.2661C4.09215 34.475 3.97339 34.6621 3.80108 34.7945C3.62877 34.9269 3.41394 34.996 3.19432 34.9898C2.57495 34.9898 1.95296 35.0077 1.33359 34.9898C1.21256 34.996 1.09147 34.9787 0.977394 34.939C0.863314 34.8992 0.758518 34.8378 0.669116 34.7584C0.579713 34.6789 0.507493 34.583 0.456662 34.4761C0.40583 34.3693 0.377405 34.2537 0.373044 34.1361C0.359922 33.9577 0.3468 33.7768 0.3468 33.5984C0.3468 32.342 0.3468 31.0882 0.3468 29.8318C0.344839 29.6523 0.366894 29.4732 0.412411 29.2992C0.454183 29.129 0.552256 28.9768 0.691611 28.8659C0.830967 28.7549 1.00392 28.6914 1.184 28.685C1.72988 28.6468 2.27839 28.6494 2.82427 28.6519C3.06295 28.652 3.30078 28.6794 3.53287 28.7335C3.7077 28.7741 3.86366 28.87 3.97624 29.0061C4.08883 29.1422 4.15166 29.3107 4.15487 29.4852C4.18636 29.8369 4.17586 30.1937 4.18636 30.5479C4.18636 30.6397 4.16012 30.6754 4.05514 30.6754C3.58011 30.6754 3.10509 30.6754 2.62744 30.6754C2.59659 30.6716 2.56594 30.6665 2.53558 30.6601Z" fill="white"/>
<path d="M24.011 34.9923H20.7567C20.6307 34.9923 20.5887 34.9643 20.5887 34.8394C20.5887 32.8262 20.5887 30.8104 20.5887 28.7971C20.5887 28.7079 20.5887 28.6391 20.72 28.6417H23.8378C23.8667 28.6417 23.8982 28.6417 23.9454 28.6417V29.2533C23.9454 29.3578 23.864 29.3374 23.8037 29.3374H22.271V31.2818C22.3183 31.2818 22.3734 31.2818 22.4259 31.2818C22.8825 31.2818 23.3365 31.2818 23.7932 31.2818C23.9113 31.2818 23.9585 31.3073 23.9507 31.4271C23.9507 31.6055 23.9507 31.7864 23.9507 31.9877H22.2684V34.2686H22.4547C22.9219 34.2686 23.3864 34.2686 23.8535 34.2686C23.9821 34.2686 24.0215 34.3068 24.0163 34.4266C24.0031 34.6228 24.011 34.7961 24.011 34.9923Z" fill="white"/>
<path d="M50.321 28.6519H51.9456V34.2813C52.0164 34.2813 52.0715 34.2813 52.1267 34.2813C52.5151 34.2813 52.914 34.2813 53.2919 34.2813C53.4231 34.2813 53.4625 34.3195 53.4546 34.4393C53.4468 34.5591 53.4546 34.7298 53.4546 34.8776C53.4546 34.9465 53.4389 34.9872 53.3523 34.9872H50.321V28.6519Z" fill="white"/>
</g>
<defs>
<clipPath id="clip0_7_10761">
<rect width="60" height="35" fill="white"/>
</clipPath>
</defs>
</svg>
