<svg width="78" height="96" viewBox="0 0 78 96" fill="none" xmlns="http://www.w3.org/2000/svg">
<g clip-path="url(#clip0_7_10434)">
<path d="M78.0779 0H0V78.688H78.0779V0Z" fill="#E2011A"/>
<path d="M27.4862 67.5123H15.3055V24.8614H7.34155V17.622C12.8079 17.7 16.3998 15.4169 18.3514 10.0665H27.4862V67.5123Z" fill="white"/>
<path d="M38.7277 51.1447C38.7277 45.4781 39.977 41.4664 44.5825 37.9243C40.7567 34.0686 39.3518 30.6842 39.3518 25.4913C39.3518 16.4411 45.0518 10.0665 54.4213 10.0665C63.7907 10.0665 69.4908 16.4411 69.4908 25.4913C69.4908 30.684 68.086 34.0684 64.26 37.9243C68.8682 41.4665 70.1148 45.4781 70.1148 51.1447C70.1148 61.4522 66.9166 68.4585 54.4213 68.4585C41.9293 68.4585 38.7277 61.4522 38.7277 51.1447ZM54.4213 43.1179C51.6099 43.1179 50.9066 45.0848 50.9066 50.4369C50.9066 55.8653 51.6099 57.7542 54.4213 57.7542C57.2309 57.7542 57.9359 55.8653 57.9359 50.4369C57.9359 45.0848 57.2309 43.1179 54.4213 43.1179ZM54.4213 20.4546C51.8454 20.4546 51.2196 21.7136 51.2196 27.1447C51.2196 32.573 51.8454 33.8329 54.4213 33.8329C56.997 33.8329 57.623 32.573 57.623 27.1447C57.623 21.7136 56.997 20.4546 54.4213 20.4546Z" fill="white"/>
<path d="M0 96H78.0779V0H0V96ZM76.5168 77.1126H1.56296V1.57261H76.5166V77.1126H76.5168Z" fill="black"/>
<path d="M69.923 3.14804V3.73195H68.687V7.67455H67.9609V3.73195H66.7268V3.14804H69.923ZM74.955 7.67455H74.2289V4.10939H74.2078L72.9631 7.67455H72.3707L71.1875 4.10939H71.1665V7.67455H70.4402V3.14804H71.5936L72.7135 6.51561H72.7346L73.8231 3.14804H74.9552V7.67455H74.955Z" fill="black"/>
<path d="M4.95929 90.0996H6.28401L7.50163 84.1317H7.52877L8.79921 90.0996H10.044L11.759 82.7939H10.5714L9.44955 88.7671H9.42058L8.218 82.7939H6.88007L5.64834 88.7671H5.62211L4.45915 82.7939H3.26868L4.95929 90.0996Z" fill="white"/>
<path d="M13.7251 90.0996H15.05L16.2665 84.1317H16.2957L17.5669 90.0996H18.8072L20.5266 82.7939H19.3363L18.2146 88.7671H18.1866L16.9822 82.7939H15.6442L14.4143 88.7671H14.387L13.224 82.7939H12.0347L13.7251 90.0996Z" fill="white"/>
<path d="M22.49 90.0996H23.8158L25.0325 84.1317H25.0597L26.3327 90.0996H27.5749L29.2926 82.7939H28.104L26.9804 88.7671H26.9533L25.7489 82.7939H24.4119L23.1801 88.7671H23.153L21.9899 82.7939H20.7977L22.49 90.0996Z" fill="white"/>
<path d="M31.1755 88.657H29.9333V90.0995H31.1755V88.657Z" fill="white"/>
<path fill-rule="evenodd" clip-rule="evenodd" d="M33.9886 86.4493C33.9886 84.7835 34.1926 83.5857 35.4505 83.5857C36.5055 83.5857 36.7762 84.7057 36.7762 86.311C36.7762 88.1928 36.5055 89.3093 35.4505 89.3093C34.234 89.3093 33.9886 87.8649 33.9886 86.4493ZM32.9214 92.4986H34.0554V89.2703H34.0843C34.3418 89.8958 34.9502 90.2908 35.5982 90.2908C37.4777 90.2908 37.9655 87.9731 37.9655 86.311C37.9655 84.1456 37.3159 82.6041 35.5982 82.6041C34.8132 82.6041 34.1794 83.1516 34.0299 83.6955H34.0035V82.7935H32.9214V92.4986Z" fill="white"/>
<path fill-rule="evenodd" clip-rule="evenodd" d="M40.1714 85.6838V85.4108C40.1714 84.9785 40.3067 83.5044 41.4972 83.5044C42.4977 83.5044 42.7561 84.4702 42.7561 85.2886V85.6838H40.1714ZM43.9445 86.584V86.1215C43.9445 84.5533 43.7406 82.6042 41.5234 82.6042C39.2932 82.6042 38.9398 84.7164 38.9398 86.545C38.9398 89.0521 39.6835 90.2909 41.4567 90.2909C43.4312 90.2909 43.8884 88.4782 43.8884 87.7021H42.7561C42.7561 88.246 42.605 89.3926 41.5234 89.3926C40.1319 89.3926 40.1319 87.7021 40.1319 86.5842H43.9445V86.584Z" fill="white"/>
<path fill-rule="evenodd" clip-rule="evenodd" d="M47.4326 83.5857C48.6493 83.5857 48.8919 85.0299 48.8919 86.4493C48.8919 87.9448 48.6493 89.1194 47.4184 89.1194C46.2861 89.1194 46.1069 87.6328 46.1069 86.4493C46.1067 84.7057 46.3776 83.5857 47.4326 83.5857ZM49.9608 82.7937H48.8813V83.724H48.8514C48.7035 83.1499 48.0688 82.6041 47.2829 82.6041C45.4456 82.6041 44.9181 84.4717 44.9181 86.4493C44.9181 87.4167 45.0518 90.0994 47.1615 90.0994C47.8788 90.0994 48.5541 89.7309 48.8002 89.1194H48.8283V90.0745C48.8283 90.5778 48.8811 91.7083 47.4183 91.7083C46.824 91.7083 46.3088 91.4497 46.2579 90.7833H45.1222C45.3086 92.6084 47.0544 92.6084 47.4975 92.6084C48.9587 92.6084 49.9608 91.8183 49.9608 89.637V82.7937Z" fill="white"/>
<path fill-rule="evenodd" clip-rule="evenodd" d="M51.5203 90.0996H52.6544V82.7955H51.5203V90.0996ZM51.5203 81.6795H52.6544V80.368H51.5203V81.6795Z" fill="white"/>
<path d="M55.7098 88.657H54.4651V90.0995H55.7098V88.657Z" fill="white"/>
<path fill-rule="evenodd" clip-rule="evenodd" d="M57.5227 90.0996H58.6604V82.7955H57.5227V90.0996ZM57.5227 81.6795H58.6604V80.368H57.5227V81.6795Z" fill="white"/>
<path d="M60.2147 90.0994H61.3471V85.0583C61.3471 83.9951 62.1753 83.5857 62.7835 83.5857C63.8103 83.5857 63.8507 84.4999 63.8507 85.0583V90.0994H64.9865V84.9201C64.9865 84.0643 64.9865 82.6042 63.0789 82.6042C62.3792 82.6042 61.6214 82.9868 61.3243 83.6567H61.2944V82.7937H60.2147V90.0994Z" fill="white"/>
<path d="M66.8151 90.0992H67.9544V83.6953H69.1956V82.7933H67.9544V81.9375C67.9544 81.4325 68.1952 81.2429 68.6841 81.2429H69.2098V80.261H68.3852C67.2881 80.261 66.8151 80.8334 66.8151 81.9373V82.7931H65.762V83.6951H66.8151V90.0992Z" fill="white"/>
<path fill-rule="evenodd" clip-rule="evenodd" d="M69.6263 86.4493C69.6263 88.5047 70.1434 90.2907 72.2373 90.2907C74.3207 90.2907 74.8466 88.5047 74.8466 86.4493C74.8466 84.3885 74.333 82.6041 72.2373 82.6041C70.1575 82.6041 69.6263 84.3885 69.6263 86.4493ZM72.2092 89.3943C71.047 89.3943 70.8203 88.0263 70.8203 86.4493C70.8203 84.8652 71.0629 83.5042 72.2092 83.5042C73.4278 83.5042 73.6598 84.865 73.6598 86.4493C73.6598 88.0261 73.4136 89.3943 72.2092 89.3943Z" fill="white"/>
</g>
<defs>
<clipPath id="clip0_7_10434">
<rect width="78" height="96" fill="white"/>
</clipPath>
</defs>
</svg>
