<svg aria-hidden="true" style="position: absolute; width: 0; height: 0; overflow: hidden;" version="1.1" xmlns="http://www.w3.org/2000/svg" xmlns:xlink="http://www.w3.org/1999/xlink">
<defs>
<symbol id="icon-close" viewBox="0 0 31 32">
<path fill="#f2e8d9" style="fill: var(--color1, #f2e8d9)" d="M8.192 24.96l-1.792-1.792 7.168-7.168-7.168-7.168 1.792-1.792 7.168 7.168 7.168-7.168 1.792 1.792-7.168 7.168 7.168 7.168-1.792 1.792-7.168-7.168-7.168 7.168z"></path>
</symbol>
<symbol id="icon-left-border" viewBox="0 0 11 32">
<path d="M7.467 0l-0.008 0.014c-0.198 0.336-0.047 0.599 0.654 1.132 1.007 0.767 1.164 1.202 0.434 1.202-0.262 0-0.477-0.094-0.477-0.21 0-0.29-2.723-1.91-3.181-1.91-0.583 0-2.010 0.094-1.801 0.914 0.074 0.288-0.044 0.247-0.276 0.164-0.291-0.103-0.763-0.27-1.267 0.064-0.419 0.278-0.217 0.981-0.085 1.446 0.049 0.17 0.088 0.309 0.085 0.382-0.017 0.356-0.553 0.413-1.052 0.457-0.337 0.030-0.455 0.457-0.491 1.003v1.511c0.003 0.835 0.229 1.765 0.422 2.555 0.222 0.911 0.398 1.638 0.137 1.822-0.479 0.338-0.602 1.526-0.499 4.874 0.033 1.098 0.051 2.176 0.038 2.395-0.029 0.515 0.265 4.034 0.394 4.71 0.054 0.285 0.295 0.667 0.535 0.848 0.533 0.403-0.006 0.929-0.953 0.929-0.025 0-0.050 0-0.074 0.001v2.967c0.161 0.525 0.525 0.928 1.074 1.169 0.496 0.218 0.582 0.431 0.444 1.11-0.093 0.462 0.025 1.245 0.264 1.739 0.171 0.355 0.303 0.574 0.466 0.707h4.038c0.052-0.048 0.1-0.092 0.142-0.13 0.167 0.094 0.315 0.142 0.402 0.108 0.074-0.029 0.132-0.068 0.176-0.116 0.714 0.053 2.187-0.139 2.922-0.427 0.414-0.162 0.624 0.119 0.871 0.449 0.029 0.038 0.058 0.077 0.087 0.116h0.312v-32h-3.733zM2.977 8.287c0 0.656-0.767 0.472-0.896-0.215-0.056-0.293 0.028-0.534 0.186-0.534 0.48 0 0.711 0.243 0.711 0.749z"></path>
</symbol>
<symbol id="icon-right-border" viewBox="0 0 11 32">
<path d="M3.733 32l0.008-0.014c0.198-0.336 0.047-0.599-0.654-1.132-1.007-0.767-1.164-1.202-0.434-1.202 0.262 0 0.477 0.094 0.477 0.21 0 0.29 2.723 1.91 3.181 1.91 0.583 0 2.010-0.094 1.801-0.914-0.074-0.288 0.044-0.246 0.276-0.164 0.291 0.103 0.762 0.27 1.267-0.064 0.419-0.278 0.217-0.981 0.085-1.446-0.049-0.17-0.088-0.309-0.085-0.382 0.017-0.356 0.553-0.413 1.052-0.457 0.337-0.030 0.455-0.457 0.491-1.003v-1.511c-0.003-0.835-0.229-1.765-0.422-2.555-0.222-0.911-0.398-1.638-0.137-1.822 0.479-0.338 0.602-1.526 0.5-4.874-0.033-1.098-0.051-2.176-0.038-2.395 0.029-0.515-0.265-4.034-0.394-4.71-0.054-0.285-0.295-0.667-0.536-0.848-0.533-0.403 0.006-0.929 0.953-0.929 0.025 0 0.050-0 0.074-0.001v-2.967c-0.161-0.525-0.525-0.928-1.074-1.169-0.496-0.218-0.582-0.431-0.444-1.11 0.093-0.462-0.025-1.245-0.264-1.739-0.171-0.355-0.303-0.574-0.466-0.707h-4.038c-0.052 0.048-0.1 0.092-0.142 0.13-0.167-0.094-0.315-0.142-0.402-0.108-0.074 0.028-0.132 0.068-0.176 0.116-0.714-0.053-2.187 0.139-2.922 0.427-0.414 0.162-0.624-0.119-0.871-0.449-0.029-0.038-0.058-0.077-0.087-0.116h-0.312v32h3.733zM8.223 23.713c0-0.656 0.767-0.472 0.896 0.215 0.056 0.293-0.028 0.534-0.186 0.534-0.48 0-0.711-0.243-0.711-0.749z"></path>
</symbol>
<symbol id="icon-menu" viewBox="0 0 31 32">
<path fill="#f2e8d9" style="fill: var(--color1, #f2e8d9)" d="M3.84 23.68v-2.56h23.040v2.56h-23.040zM3.84 17.28v-2.56h23.040v2.56h-23.040zM3.84 10.88v-2.56h23.040v2.56h-23.040z"></path>
</symbol>
<symbol id="icon-restriction" viewBox="0 0 26 32">
<path fill="#e2011a" style="fill: var(--color2, #e2011a)" d="M26.026 0h-26.026v26.229h26.026v-26.229z"></path>
<path fill="#fff" style="fill: var(--color3, #fff)" d="M9.162 22.504h-4.060v-14.217h-2.655v-2.413c1.822 0.026 3.019-0.735 3.67-2.518h3.045v19.149z"></path>
<path fill="#fff" style="fill: var(--color3, #fff)" d="M12.909 17.048c0-1.889 0.416-3.226 1.952-4.407-1.275-1.285-1.744-2.413-1.744-4.144 0-3.017 1.9-5.142 5.023-5.142s5.023 2.125 5.023 5.142c0 1.731-0.468 2.859-1.744 4.144 1.536 1.181 1.952 2.518 1.952 4.407 0 3.436-1.066 5.771-5.231 5.771-4.164 0-5.231-2.335-5.231-5.771zM18.14 14.373c-0.937 0-1.172 0.656-1.172 2.44 0 1.809 0.234 2.439 1.172 2.439s1.172-0.63 1.172-2.439c0-1.784-0.235-2.44-1.172-2.44zM18.14 6.818c-0.859 0-1.067 0.42-1.067 2.23s0.209 2.229 1.067 2.229c0.859 0 1.067-0.42 1.067-2.229s-0.209-2.23-1.067-2.23z"></path>
<path fill="#000" style="fill: var(--color4, #000)" d="M0 32h26.026v-32h-26.026v32zM25.506 25.704h-24.985v-25.18h24.985v25.18h0z"></path>
<path fill="#000" style="fill: var(--color4, #000)" d="M23.308 1.049v0.195h-0.412v1.314h-0.242v-1.314h-0.411v-0.195h1.065zM24.985 2.558h-0.242v-1.188h-0.007l-0.415 1.188h-0.197l-0.394-1.188h-0.007v1.188h-0.242v-1.509h0.384l0.373 1.123h0.007l0.363-1.123h0.377v1.509h-0z"></path>
<path fill="#fff" style="fill: var(--color3, #fff)" d="M1.653 30.033h0.442l0.406-1.989h0.009l0.423 1.989h0.415l0.572-2.435h-0.396l-0.374 1.991h-0.010l-0.401-1.991h-0.446l-0.411 1.991h-0.009l-0.388-1.991h-0.397l0.564 2.435z"></path>
<path fill="#fff" style="fill: var(--color3, #fff)" d="M4.575 30.033h0.442l0.405-1.989h0.010l0.424 1.989h0.413l0.573-2.435h-0.397l-0.374 1.991h-0.009l-0.401-1.991h-0.446l-0.41 1.991h-0.009l-0.388-1.991h-0.396l0.563 2.435z"></path>
<path fill="#fff" style="fill: var(--color3, #fff)" d="M7.497 30.033h0.442l0.406-1.989h0.009l0.424 1.989h0.414l0.573-2.435h-0.396l-0.375 1.991h-0.009l-0.401-1.991h-0.446l-0.411 1.991h-0.009l-0.388-1.991h-0.397l0.564 2.435z"></path>
<path fill="#fff" style="fill: var(--color3, #fff)" d="M10.392 29.552h-0.414v0.481h0.414v-0.481z"></path>
<path fill="#fff" style="fill: var(--color3, #fff)" d="M11.33 28.816c0-0.555 0.068-0.955 0.487-0.955 0.352 0 0.442 0.373 0.442 0.908 0 0.627-0.090 0.999-0.442 0.999-0.405 0-0.487-0.481-0.487-0.953zM10.974 30.833h0.378v-1.076h0.010c0.086 0.209 0.289 0.34 0.505 0.34 0.627 0 0.789-0.773 0.789-1.327 0-0.722-0.217-1.236-0.789-1.236-0.262 0-0.473 0.183-0.523 0.364h-0.009v-0.301h-0.361v3.235z"></path>
<path fill="#fff" style="fill: var(--color3, #fff)" d="M13.39 28.561v-0.091c0-0.144 0.045-0.635 0.442-0.635 0.334 0 0.42 0.322 0.42 0.595v0.132h-0.862zM14.648 28.861v-0.154c0-0.523-0.068-1.172-0.807-1.172-0.743 0-0.861 0.704-0.861 1.314 0 0.836 0.248 1.249 0.839 1.249 0.658 0 0.811-0.604 0.811-0.863h-0.377c0 0.181-0.050 0.564-0.411 0.564-0.464 0-0.464-0.564-0.464-0.936l1.271-0z"></path>
<path fill="#fff" style="fill: var(--color3, #fff)" d="M15.811 27.862c0.406 0 0.486 0.481 0.486 0.955 0 0.498-0.081 0.89-0.491 0.89-0.377 0-0.437-0.496-0.437-0.89-0-0.581 0.090-0.955 0.442-0.955zM16.654 27.598h-0.36v0.31h-0.010c-0.049-0.191-0.261-0.373-0.523-0.373-0.612 0-0.788 0.623-0.788 1.282 0 0.322 0.045 1.217 0.748 1.217 0.239 0 0.464-0.123 0.546-0.327h0.009v0.318c0 0.168 0.018 0.545-0.47 0.545-0.198 0-0.37-0.086-0.387-0.308h-0.379c0.062 0.608 0.644 0.608 0.792 0.608 0.487 0 0.821-0.263 0.821-0.99v-2.281z"></path>
<path fill="#fff" style="fill: var(--color3, #fff)" d="M17.173 30.033h0.378v-2.435h-0.378v2.435zM17.173 27.227h0.378v-0.437h-0.378v0.437z"></path>
<path fill="#fff" style="fill: var(--color3, #fff)" d="M18.57 29.552h-0.415v0.481h0.415v-0.481z"></path>
<path fill="#fff" style="fill: var(--color3, #fff)" d="M19.174 30.033h0.379v-2.435h-0.379v2.435zM19.174 27.227h0.379v-0.437h-0.379v0.437z"></path>
<path fill="#fff" style="fill: var(--color3, #fff)" d="M20.072 30.033h0.377v-1.68c0-0.354 0.276-0.491 0.479-0.491 0.342 0 0.356 0.305 0.356 0.491v1.68h0.379v-1.726c0-0.285 0-0.772-0.636-0.772-0.233 0-0.486 0.128-0.585 0.351h-0.010v-0.288h-0.36v2.435z"></path>
<path fill="#fff" style="fill: var(--color3, #fff)" d="M22.272 30.033h0.38v-2.135h0.414v-0.301h-0.414v-0.285c0-0.168 0.080-0.232 0.243-0.232h0.175v-0.327h-0.275c-0.366 0-0.523 0.191-0.523 0.559v0.285h-0.351v0.301h0.351v2.135z"></path>
<path fill="#fff" style="fill: var(--color3, #fff)" d="M23.209 28.816c0 0.685 0.172 1.28 0.87 1.28 0.694 0 0.87-0.595 0.87-1.28 0-0.687-0.171-1.282-0.87-1.282-0.693 0-0.87 0.595-0.87 1.282zM24.070 29.798c-0.387 0-0.463-0.456-0.463-0.982 0-0.528 0.081-0.982 0.463-0.982 0.406 0 0.484 0.454 0.484 0.982 0 0.526-0.082 0.982-0.484 0.982z"></path>
</symbol>
<symbol id="icon-content-copy" viewBox="0 0 32 32">
<path fill="#f2e8d9" style="fill: var(--color1, #f2e8d9)" d="M6.667 29.333c-0.733 0-1.361-0.261-1.883-0.783s-0.783-1.15-0.783-1.883v-18.667h2.667v18.667h14.667v2.667h-14.667zM12 24c-0.733 0-1.361-0.261-1.883-0.783s-0.783-1.15-0.783-1.883v-16c0-0.733 0.261-1.361 0.783-1.883s1.15-0.783 1.883-0.783h12c0.733 0 1.361 0.261 1.883 0.783s0.783 1.15 0.783 1.883v16c0 0.733-0.261 1.361-0.783 1.883s-1.15 0.783-1.883 0.783h-12z"></path>
</symbol>
<symbol id="icon-download" viewBox="0 0 32 32">
<path fill="#f2e8d9" style="fill: var(--color1, #f2e8d9)" d="M8 26.667c-0.733 0-1.361-0.261-1.883-0.783s-0.784-1.151-0.784-1.884v-4h2.667v4h16v-4h2.667v4c0 0.733-0.261 1.361-0.783 1.884s-1.151 0.783-1.884 0.783h-16zM16 21.333l-6.667-6.667 1.867-1.933 3.467 3.467v-10.867h2.667v10.867l3.467-3.467 1.867 1.933-6.667 6.667z"></path>
</symbol>
<symbol id="icon-divider" viewBox="0 0 730 32">
<path fill="#f2e8d9" style="fill: var(--color1, #f2e8d9)" opacity="0.6" d="M321.004 17.981c0.182-0.082 0.334-0.209 0.436-0.366 0.484-0.576 2.56-1.615 2.56-1.615s-2.076-1.040-2.56-1.615c-0.102-0.157-0.254-0.284-0.436-0.366s-0.386-0.115-0.586-0.095l-1.024 0.462h-3.072c-0.652 0-4.094-0.462-4.094-0.462-0.152 0.242-0.324 0.473-0.512 0.692-0.308 0.357-0.682-0.102-1.536 0-1.368-0-2.736-0.077-4.094-0.231h-1.024c-0.994-0.33-2.024-0.562-3.072-0.692-1.126-0.056-1.024 0-1.024 0-0.456 0.319-0.978 0.555-1.534 0.692-0.856 0.19-3.072 0-3.072 0v-0.462c0 0-2.862 0.272-3.070 0.692-0.21 0.42-1.536 0-1.536 0l-3.584-0.462c0 0-3.158-0.15-4.094-0.231s-1.024-0.462-1.024-0.462l-3.582-0.462 0.512 0.692c0 0-0.202 0.247-0.512 0.692-0.312 0.445-1.536 0-1.536 0l-3.584-0.231-1.024 0.462h-3.070c0 0-1.366-0.231-1.536-0.462-0.144-0.175-0.318-0.331-0.512-0.462h-3.582l-1.024 0.462-2.048-0.692-3.582 0.692-257.972 1.846 257.972 1.846 3.582 0.692 2.048-0.692 1.024 0.462h3.582c0.194-0.131 0.368-0.286 0.512-0.462 0.17-0.231 1.536-0.462 1.536-0.462h3.070l1.024 0.462 3.584-0.231c0 0 1.224-0.445 1.536 0 0.31 0.445 0.512 0.692 0.512 0.692l-0.512 0.692 3.582-0.462c0 0 0.088-0.381 1.024-0.462s4.094-0.231 4.094-0.231l3.584-0.462c0 0 1.326-0.42 1.536 0 0.208 0.42 3.070 0.692 3.070 0.692v-0.462c0 0 2.216-0.19 3.072 0 0.556 0.138 1.078 0.373 1.534 0.692 0 0-0.102 0.056 1.024 0 1.048-0.131 2.078-0.363 3.072-0.692h1.024c1.358-0.153 2.726-0.23 4.094-0.231 0.854 0.102 1.228-0.357 1.536 0 0.188 0.219 0.36 0.451 0.512 0.692 0 0 3.442-0.462 4.094-0.462h3.072l1.024 0.462c0.2 0.019 0.404-0.014 0.586-0.095z"></path>
<path fill="#ee991a" style="fill: var(--color5, #ee991a)" d="M360.938 2.462c0.412-0.748 1.004-1.37 1.718-1.802 0.712-0.432 1.52-0.659 2.344-0.659s1.632 0.227 2.344 0.659c0.714 0.432 1.306 1.053 1.718 1.802l12.014 21.846c0.412 0.748 0.628 1.597 0.628 2.461s-0.216 1.713-0.628 2.462c-0.412 0.748-1.004 1.37-1.716 1.802-0.714 0.432-1.522 0.66-2.346 0.66h-24.028c-0.824 0-1.632-0.228-2.346-0.66-0.712-0.432-1.304-1.054-1.716-1.802s-0.628-1.597-0.628-2.462c0-0.864 0.216-1.713 0.628-2.461l12.014-21.846z"></path>
<path fill="#ee991a" style="fill: var(--color5, #ee991a)" d="M361.688 4.964c0.344-0.624 0.836-1.142 1.43-1.502s1.27-0.55 1.956-0.55c0.686 0 1.36 0.19 1.954 0.55s1.088 0.878 1.43 1.502l10.128 18.426c0.344 0.624 0.524 1.331 0.524 2.051s-0.18 1.428-0.524 2.051c-0.342 0.624-0.836 1.141-1.43 1.502s-1.268 0.55-1.954 0.549h-20.256c-0.686 0-1.36-0.189-1.954-0.549s-1.088-0.878-1.432-1.502c-0.342-0.624-0.522-1.331-0.524-2.051 0-0.72 0.182-1.428 0.524-2.051l10.128-18.426z"></path>
<path fill="#060605" style="fill: var(--color6, #060605)" d="M356.906 19.025h4.934c-0.028 0.598 0.104 1.191 0.384 1.713s0.694 0.949 1.196 1.233l-2.448 4.611c0 0-0.308 0.923-1.224 0.128-1-0.841-1.842-1.868-2.486-3.031-0.574-1.233-0.934-2.563-1.066-3.928-0.018-0.101-0.014-0.206 0.016-0.304s0.082-0.188 0.152-0.26c0.070-0.072 0.156-0.125 0.252-0.153 0.094-0.028 0.194-0.031 0.29-0.009zM365 16.97c0.388-0.011 0.77 0.099 1.098 0.317s0.586 0.534 0.742 0.907c0.156 0.373 0.202 0.786 0.134 1.187-0.070 0.401-0.25 0.771-0.522 1.063-0.27 0.292-0.616 0.493-0.996 0.576s-0.776 0.046-1.134-0.107c-0.36-0.153-0.668-0.416-0.884-0.753-0.218-0.338-0.334-0.736-0.334-1.143-0.006-0.535 0.19-1.051 0.544-1.435 0.356-0.384 0.842-0.604 1.352-0.611zM368.16 19.017h4.934c0.096-0.023 0.196-0.020 0.29 0.008 0.096 0.028 0.182 0.080 0.252 0.152s0.124 0.161 0.152 0.26c0.030 0.099 0.036 0.203 0.016 0.305-0.13 1.363-0.492 2.692-1.066 3.922-0.644 1.162-1.488 2.188-2.488 3.027-0.916 0.796-1.224-0.128-1.224-0.128l-2.448-4.605c0.502-0.283 0.916-0.71 1.196-1.231s0.412-1.114 0.384-1.711h0.002zM366.58 16.032c-0.476-0.307-1.022-0.469-1.58-0.469s-1.104 0.162-1.58 0.469l-2.41-4.519c-0.072-0.082-0.122-0.181-0.15-0.289s-0.030-0.221-0.006-0.329c0.024-0.109 0.070-0.21 0.14-0.295 0.068-0.085 0.154-0.152 0.254-0.194 1.162-0.621 2.448-0.942 3.75-0.938 1.312 0.033 2.604 0.352 3.792 0.938 0.088 0.054 0.164 0.126 0.222 0.212 0.060 0.086 0.102 0.184 0.126 0.288 0.022 0.104 0.022 0.211 0.004 0.316-0.020 0.105-0.058 0.204-0.116 0.292-0.11 0.224-2.448 4.519-2.448 4.519l0.002-0z"></path>
<path fill="#f2e8d9" style="fill: var(--color1, #f2e8d9)" opacity="0.6" d="M472.028 17.846l-3.582 0.692-2.048-0.692-1.024 0.462h-3.582c-0.194-0.131-0.368-0.286-0.512-0.462-0.17-0.231-1.536-0.462-1.536-0.462h-3.072l-1.022 0.462-3.584-0.231c0 0-1.226-0.445-1.536 0s-0.512 0.692-0.512 0.692l0.512 0.692-3.582-0.462c0 0-0.088-0.381-1.024-0.462s-4.094-0.231-4.094-0.231l-3.584-0.462c0 0-1.326-0.42-1.536 0-0.208 0.42-3.070 0.692-3.070 0.692v-0.462c0 0-2.218-0.19-3.072 0-0.556 0.138-1.078 0.373-1.534 0.692 0 0 0.102 0.056-1.024 0-1.048-0.131-2.078-0.363-3.072-0.692h-1.024c-1.358-0.153-2.726-0.23-4.094-0.231-0.854 0.102-1.228-0.357-1.536 0-0.188 0.219-0.36 0.451-0.512 0.692 0 0-3.444-0.462-4.094-0.462-0.652 0-3.072 0-3.072 0l-1.024 0.462c-0.2 0.019-0.404-0.014-0.586-0.095s-0.332-0.209-0.436-0.366c-0.484-0.576-2.56-1.615-2.56-1.615s2.076-1.040 2.56-1.615c0.104-0.157 0.254-0.284 0.436-0.366s0.386-0.115 0.586-0.095l1.024 0.462c0 0 2.42 0 3.072 0s4.094-0.462 4.094-0.462c0.152 0.242 0.324 0.473 0.512 0.692 0.308 0.357 0.682-0.102 1.536 0 1.368-0 2.736-0.077 4.094-0.231h1.024c0.994-0.33 2.024-0.562 3.072-0.692 1.126-0.056 1.024 0 1.024 0 0.456 0.319 0.978 0.555 1.534 0.692 0.854 0.19 3.072 0 3.072 0v-0.462c0 0 2.862 0.272 3.070 0.692 0.21 0.42 1.536 0 1.536 0l3.584-0.462c0 0 3.158-0.15 4.094-0.231s1.024-0.462 1.024-0.462l3.582-0.462-0.512 0.692c0 0 0.202 0.247 0.512 0.692s1.536 0 1.536 0l3.584-0.231 1.022 0.462h3.072c0 0 1.366-0.231 1.536-0.462 0.144-0.175 0.318-0.331 0.512-0.462h3.582l1.024 0.462 2.048-0.692 3.582 0.692 257.972 1.846-257.972 1.846z"></path>
</symbol>
<symbol id="icon-Vector-1" viewBox="0 0 31 32">
<path fill="#ee991a" style="fill: var(--color5, #ee991a)" d="M6.292 0.39l-0.007 0.014c-0.167 0.324-0.039 0.577 0.551 1.091 0.849 0.739 0.981 1.159 0.366 1.159-0.221 0-0.402-0.091-0.402-0.202 0-0.28-2.295-1.841-2.681-1.841-0.491 0-1.694 0.091-1.518 0.881 0.062 0.278-0.037 0.238-0.233 0.158-0.245-0.099-0.643-0.26-1.068 0.062-0.353 0.268-0.183 0.946-0.071 1.394 0.041 0.164 0.074 0.298 0.071 0.369-0.014 0.344-0.466 0.398-0.887 0.441-0.284 0.029-0.383 0.441-0.414 0.967v1.457c0.003 0.805 0.193 1.701 0.355 2.464 0.187 0.879 0.336 1.579 0.115 1.757-0.404 0.326-0.507 1.472-0.421 4.699 0.028 1.058 0.043 2.098 0.032 2.309-0.025 0.496 0.223 3.889 0.332 4.541 0.046 0.275 0.249 0.643 0.451 0.818 0.449 0.389-0.005 0.896-0.803 0.896-0.021 0-0.042 0-0.062 0.001v2.861c0.136 0.506 0.442 0.895 0.905 1.128 0.418 0.21 0.49 0.415 0.375 1.070-0.078 0.446 0.021 1.2 0.222 1.676 0.144 0.343 0.255 0.554 0.392 0.682h3.403c0.044-0.046 0.084-0.089 0.12-0.126 0.14 0.090 0.266 0.137 0.339 0.104 0.062-0.027 0.111-0.066 0.149-0.112 0.602 0.051 1.843-0.134 2.463-0.411 0.349-0.156 0.526 0.115 0.734 0.433 0.024 0.037 0.165 0.441 0.19 0.479h21.928v-31.22h-24.928zM2.508 8.38c0 0.633-0.646 0.456-0.755-0.207-0.047-0.283 0.024-0.514 0.157-0.514 0.404 0 0.599 0.234 0.599 0.722z"></path>
</symbol>
<symbol id="icon-trolley" viewBox="0 0 31 32">
<path d="M6.158 28.288c0-1.69 1.367-3.072 3.057-3.072s3.072 1.382 3.072 3.072c0 1.69-1.382 3.072-3.072 3.072s-3.057-1.382-3.057-3.072zM-0.001 3.712v-3.072h5.023l1.444 3.072h22.717c0.845 0 1.536 0.691 1.536 1.536 0 0.261-0.061 0.522-0.184 0.737l-5.499 9.969c-0.522 0.952-1.536 1.582-2.688 1.582h-11.443l-1.382 2.504-0.046 0.184c0 0.215 0.169 0.384 0.384 0.384h17.787v3.072h-18.432c-1.69 0-3.072-1.382-3.072-3.072 0-0.538 0.138-1.044 0.384-1.475l2.074-3.763-5.53-11.658h-3.072zM21.518 28.288c0-1.69 1.367-3.072 3.057-3.072s3.072 1.382 3.072 3.072c0 1.69-1.382 3.072-3.072 3.072s-3.057-1.382-3.057-3.072zM17.597 10.516c0-0.488-0.396-0.884-0.884-0.884s-0.884 0.413-0.884 0.884c0 0.472 0.396 0.884 0.884 0.884s0.884-0.396 0.884-0.884zM14.626 13.838l1.306-2.087c-0.416-0.263-0.696-0.722-0.696-1.249h-2.464c-0.356 0-0.64 0.315-0.588 0.668 0.165 1.123 0.741 2.113 1.569 2.814 0.27 0.229 0.686 0.154 0.874-0.147zM18.802 13.838c0.188 0.3 0.603 0.376 0.873 0.147 0.827-0.701 1.402-1.692 1.568-2.814 0.052-0.352-0.232-0.668-0.588-0.668h-2.465c0 0.527-0.28 0.985-0.696 1.249l1.308 2.087zM16.713 9.027c0.287 0 0.554 0.087 0.781 0.228l1.306-2.088c0.187-0.299 0.077-0.704-0.245-0.846-0.563-0.25-1.186-0.39-1.842-0.39s-1.278 0.14-1.842 0.39c-0.322 0.143-0.432 0.548-0.245 0.846l1.306 2.089c0.227-0.142 0.494-0.228 0.781-0.228z"></path>
</symbol>
<symbol id="icon-Vector" viewBox="0 0 1920 32">
<path fill="#fff" style="fill: var(--color3, #fff)" d="M1863.376 17.444c4.912 0 1.232 0.318 6.176 1.371 2.384 0.791 4.896 0.983 7.36 0.563 13.712-3.478 26.752-0.441 40.784-1.935 0 0 2.992-1.665 2.16-2.449-12.272-1.322-25.36-3.918-37.568-3.233-8.24 0.441-7.872-0.931-16.304 1.543-0.944 0.249-1.92 0.364-2.88 0.343l0.272 3.796zM1818.656 14.995c-19.056-1.812-32.736-5.265-51.856-4.433-1.808 0-3.216 1.518-5.264 0.931-4.544-1.298-9.104 0-13.712 0.367-3.6 0.367-7.936 1.861-10.768 0.441-2.976-1.279-6.288-1.164-9.2 0.318-1.712 0.927-3.616 1.284-5.488 1.029-6.96-1.885-14.224-1.885-21.184 0-1.376 0.294-2.832 0.392-3.296 1.886l3.808 5.069c0.048-0.234 0.048-0.477 0-0.71 4.16 0.055 8.288 0.407 12.4 1.053 17.2 2.865 34.496 2.131 51.856 1.837 12.496-0.196 40.224-5.584 52.704-5.339v-2.449zM1650.784 12.865c-0.72 1.347-1.44 2.743-3.104 1.935-4.448-2.131-9.088-1.053-13.664-0.98-1.616 0-3.504 0.588-4.304-1.788-0.192-0.439-0.48-0.812-0.848-1.078l-2.88-0.147c-1.136 0.324-2.176 0.963-3.040 1.861-2.4 3.233-12.912 4.114-16.224 1.592-0.64-2.449-3.328 0.833-3.504-1.347-0.352-4.212-2.992-2.62-4.8-2.718-5.832-0.392-11.686 4.359-17.541 4.114-2.491-0.695-5.035-1.13-7.597-1.298-3.122 0-6.349-1.886-9.427 0.22h-1.936c-2.992-0.49-5.854-2.449-9.040-1.029-5.789 1.494-11.686 0.906-17.541 0.833-2.411 0 1.12-3.282-1.248-2.669-8.416 2.229-17.090 2.057-25.59 2.449-10.459 0.588-20.984 1.837-31.552 0.955-11.019-0.931-22.146-0.588-33.122-1.861-6.888-0.784-13.797-1.127-20.683-1.494-9.47-0.465-19.026 0.759-28.432-0.122-10.653-0.98-21.414-0.98-32.174-0.98-17.498 0-35.038 0.906-52.558 1.298-8.371 0.171-16.701 1.176-25.138 0.686-7.189-0.416-14.462 0.955-21.522 0.367s-13.968 1.812-21.179 0.931c-7.21-0.882-14.355 0.465-21.522 0.833-0.645 0.306-1.166 0.873-1.464 1.592h-4.562c-2.003-1.793-4.469-2.783-7.018-2.816-13.774-0.416-27.504 2.253-41.301-0.171-5.586-0.724-11.21-1.019-16.83-0.882-12.914-0.294-25.611-1.298-38.502-0.441-8.717 0.563-17.219 2.327-26.43 0.588-9.723-2.083-19.621-2.904-29.507-2.449-1.261 0.585-2.642 0.746-3.981 0.465-8.61 0-17.11-1.249-25.72 0.245-4.024 0.71-8.35 1.69-12.504 0-2.254 0.622-4.619 0.478-6.802-0.416-1.254-0.165-2.526-0.107-3.766 0.171-2.576 0.708-5.23 0.98-7.877 0.808-1.034 0-1.398-0.367-2.389-0.367-34.75 0.18-69.517 0.327-104.298 0.441-10.050 0-20.080-0.318-30.131-0.563-12.245-0.294-24.514-1.298-36.738-0.833-19.219 0.71-38.418 2.449-57.68 2.302h-34.822c-1.013 2.057-2.152 2.449-3.251 0.171-5.702 0.171-11.427 0.392-17.218 0.539-9.104 0.196-18.165-2.449-27.226-0.931-6.323 1.248-12.763 1.545-19.154 0.882-5.954-0.607-11.934-0.787-17.907-0.539-12.57 0-25.16 0.294-37.707-0.22-13.538-0.539-27.075 0.563-40.634-0.882-9.19-0.955-18.661 2.033-27.765-2.057-0.494-0.22-1.269 0.171-1.85 0.441-7.942 3.331-16.229 2.669-24.406 2.449-2.949 0-5.877-1.739-7.77 2.253-0.474 1.004-1.034 0.735-1.357 0-1.011-2.449-3.099-1.984-4.778-2.008-11.149-0.196-22.232 1.2-33.403 1.322-22.362 0.245-44.723 1.641-67.085 0.563-9.038-0.416-18.078 1.469-27.16-0.147-2.454-0.416-5.080-4.482-7.77-0.416-2.368 0.441-4.757 1.861-7.082-0.196-2.926-1.812-5.982 2.082-8.608 0-1.787-1.42-2.906-1.812-4.306 0.294-1.054 1.641-2.517 1.322-3.96 0.808-2.424-0.491-4.811-1.187-7.146-2.082-7.984-3.135-16.27-2.449-24.491-2.449-0.163-0.007-0.326 0.024-0.477 0.091-0.152 0.067-0.291 0.17-0.406 0.301-2.776 5.339-6.952 2.914-10.76 2.449-1.098-0.356-2.25-0.448-3.379-0.269-9.534 3.208-19.371 1.665-28.926 1.224l-27.806-1.2c-19.134-0.833-38.288-0.98-57.443-1.665-13.323-0.49-26.645-2.669-39.859 1.371-5.187 1.592-9.276-1.078-14.528-0.906-5.66 0.171-11.407 3.918-17.218 0-2.69-1.837-6.327-0.318-10.008-0.49-21.372-0.906-42.722-1.959-64.093-0.637-4.52 4.433-31.358-2.718-31.358 1.127v9.796c10.933 0 28.646 1.91 39.58 0.196 1.447-0.302 2.939-0.132 4.304 0.49 5.66 3.404 11.471 0 17.218 0.637 7.059 0.833 14.484-0.416 21.737-0.588 23.072-0.539 46.165 3.625 69.216-0.441 2.152 1.763 5.036-2.449 6.973 1.102 2.41 1.665 4.649-0.392 6.973-0.416 13.538 0 27.053 0.367 40.59-0.588s26.818 1.102 40.269 0c7.79-0.588 15.646 0.245 23.502 0 17.992-0.808 35.986 0.882 53.998 0.269 4.907-0.171 10.354-2.278 14.614-0.196 5.037 2.449 9.728 0.416 14.291 0.49 5.918 0 11.837-1.249 17.949 0 2.152 0.465 5.467 1.176 7.296-2.669 1.077-2.302 3.336-3.429 4.434 0.441 0.69 2.449 2.152 1.004 3.186 1.004 9.018 0 18.035 0.514 27.011 0.196 8.307-0.318 16.464 1.641 24.728 1.396 6.931-0.453 13.88-0.453 20.813 0 15.904 1.714 31.723-0.588 47.586-0.735 11.32 0 22.642-1.029 33.984-0.612 8.608 0.318 17.325 2.229 25.826 1.494 15.518-1.322 30.992-0.857 46.51-1.347 9.578-0.318 19.090 0.686 28.603 1.396 10.51 0.612 21.042 0.612 31.552 0 10.76-0.441 21.522-1.935 32.283-0.955 11.643 0.906 23.222 1.518 34.802 1.518 13.709 0 27.483-1.763 41.15-1.004 14.526 0.808 29.077-0.122 43.496 1.298 10.762 1.078 21.888-4.114 32.499 1.469 0.16 0.059 0.328 0.078 0.496 0.057 0.166-0.021 0.328-0.083 0.472-0.18 4.454-3.037 9.448-0.882 14.098-1.886 6.93-1.469 14.096 1.274 20.64 0 12.331-2.62 24.47 1.004 36.694-0.539 3.57-0.126 7.125-0.568 10.632-1.323 2.389-2.89 4.821-3.184 7.296-0.147 5.037 1.396 10.181 4.702 14.829-1.029 0.277-0.462 0.698-0.788 1.178-0.911 0.478-0.123 0.982-0.034 1.406 0.25 2.539 1.518 5.466 1.004 8.091 2.082 4.994 3.429 10.181-0.882 15.174 0.465 1.011 0.335 2.096 0.236 3.048-0.279s1.706-1.409 2.117-2.513c4.864-0.906 9.771-2.204 14.054 2.057 5.638 0.735 11.256 1.42 16.744-1.053 2.992-2.449 5.574-0.588 8.178 1.028 0.294-0.052 0.595 0.027 0.84 0.22 1.854 1.275 4.019 1.841 6.178 1.616 7.618 0 15.237 0 22.877 0 13.022 0 26.043-1.2 39.064 0.367h2.626c6.048-0.49 11.88-3.698 18.122-1.837 0.84 0.269 2.152 0.269 2.152-0.637 0-3.894 2.411-1.616 2.926-1.225 2.154 1.69 4.155 0.784 6.458 0.318s4.842 0.245 7.339-0.318h2.97c1.034 0.245 2.152-1.616 3.163-0.539 1.013 1.078 2.154 2.057 2.475 0.539h11.493c-1.85 1.151-4.304-0.955-3.744 2.449h1.442c4.477-0.367 8.954-1.372 13.43 0l54.731 0.343c8.221-0.294 16.421 0.686 24.664 0.49 12.074-0.269 24.149-0.245 36.243-0.514 11.408-0.269 22.835-1.518 34.264-0.294 18.251-0.294 36.517-0.58 54.795-0.857 19.371-0.269 38.611-0.172 57.896 1.224 10.91 0.808 21.822 1.812 32.714 1.592 33.638-0.637 67.256-1.053 100.875-2.694 27.16-1.322 54.366 2.18 81.566 0.122l1.104-7.518z"></path>
</symbol>
<symbol id="icon-logo-white" viewBox="0 0 55 32">
<path fill="#fff" style="fill: var(--color3, #fff)" d="M36.501 21.429c-3.738-0.177-3.503-3.835-3.503-3.835v-5.259h-0.050l0.050-0.026v0.021c0.901-0.047 1.805-0.047 2.707 0 1.831 0.075 1.963 0.256 1.963 0.256 2.678 0.387 3.105 3.064 3.105 3.064v1.186c0.24 4.406-4.245 4.611-4.271 4.585v0.007zM30.872 10.431h-6.838c0 0 0.902-5.536-6.923-5.536 0.026 0.026-2.918 0.026-2.918 0.026s-0.213-3.094 5.704-3.094h14.006c0 0 5.305-0.382 6.419 3.094 0.024 0.026-3.105 0-3.105 0s-6.234-0.175-6.344 5.51zM14.032 6.827h3.582c0 0 4.379-0.387 4.242 3.553h-2.2c0 0-5.704 0.31-5.624-3.553zM22.814 21.559c0 0 1.459-1.34 1.2-6.179 0 0.023-11.997 0-11.997 0v1.699c0 0-0.055 3.029 1.92 4.481 0 0.026-6.846 0-6.846 0s-2.016 0-2.839-0.466c0 0-2.040-0.515-2.066-3.262s0-6.757 0-6.757 0.132-2.188 0.689-2.78c0.266-0.31 0.662-1.107 2.2-1.291 0 0 0.48-0.177 2.759-0.177h3.942c0 0-0.024 3.029 1.992 4.224 0.024 0 1.936 1.209 6.076 1.209h10.954v4.893c-0.024 1.557 0.418 3.088 1.272 4.406h-9.255zM18.939 21.406c0 0-4.624-0.179-4.624-4.173h7.508c0 0 0.37 4.224-2.894 4.173h0.010zM54.821 18.211c0 0-2.16-0.028-2.121 0 0.024 3.728-4.537 3.309-4.537 3.309h-6.637c2.16-2.202 1.356-6.338 1.356-6.372-0.199-3.206-4.619-4.252-4.619-4.213-2.224-0.503-5.25-0.543-5.25-0.543 0.079-3.782 4.377-3.549 4.377-3.549s6.803-0.077 11.222 0c4.42 0.077 4.137 3.323 4.137 3.323s2.107 0.040 2.107 0c0.041-5.252-6.287-5.214-6.287-5.214s-5.968 0.037-5.968 0c-0.835-4.986-7.52-4.947-7.52-4.947h-16.47c-5.975 0.082-6.752 4.916-6.752 4.916h-5.039c-7.141-0.051-6.817 5.743-6.817 5.743s0.024 1.002 0 7.134c-0.024 6.132 7.225 5.666 7.225 5.666h40.655c7.796 0 6.959-5.254 6.959-5.254z"></path>
<path fill="#fff" style="fill: var(--color3, #fff)" d="M31.695 30.425c0.019-0.163 0.041-0.329 0.055-0.492 0.038-0.387 0.074-0.776 0.11-1.165 0.022-0.233 0.038-0.466 0.060-0.687l0.108-1.151c0.022-0.217 0.036-0.433 0.065-0.65 0.005-0.020 0.015-0.038 0.030-0.053s0.032-0.026 0.052-0.033c0.48 0 0.96 0 1.466 0 0 0.084-0.017 0.156-0.029 0.233-0.077 0.466-0.154 0.953-0.24 1.431-0.091 0.555-0.182 1.11-0.271 1.666-0.089 0.538-0.175 1.074-0.264 1.612-0.043 0.259-0.084 0.517-0.132 0.774-0.008 0.022-0.022 0.041-0.039 0.056s-0.039 0.026-0.062 0.032c-0.626 0-1.253 0-1.905 0-0.132-1.319-0.264-2.631-0.396-3.945h-0.046c-0.020 0.062-0.035 0.125-0.046 0.189-0.034 0.314-0.060 0.627-0.091 0.932-0.043 0.432-0.088 0.864-0.134 1.295-0.031 0.303-0.058 0.608-0.089 0.911-0.019 0.177-0.034 0.354-0.060 0.529-0.007 0.019-0.019 0.037-0.035 0.051s-0.035 0.024-0.056 0.029c-0.605 0-1.209 0-1.814 0-0.021-0.005-0.041-0.015-0.056-0.029s-0.028-0.032-0.035-0.052c-0.072-0.387-0.134-0.776-0.199-1.165l-0.24-1.442c-0.089-0.552-0.18-1.102-0.269-1.654-0.070-0.429-0.142-0.855-0.211-1.284 0-0.051 0-0.105-0.014-0.163 0.039-0.002 0.078-0.002 0.118 0 0.437 0 0.871 0 1.308 0 0.096 0 0.125 0.026 0.132 0.119 0.048 0.566 0.108 1.13 0.161 1.694 0.034 0.359 0.058 0.718 0.089 1.074 0.038 0.443 0.078 0.884 0.12 1.323 0 0 0 0.014 0.031 0.044 0.016-0.037 0.028-0.075 0.036-0.114 0.077-0.683 0.151-1.366 0.223-2.048 0.050-0.48 0.098-0.962 0.146-1.442 0.019-0.189 0.034-0.38 0.062-0.569 0.007-0.020 0.020-0.037 0.036-0.051s0.036-0.023 0.057-0.026c0.554 0 1.106 0 1.658 0 0.084 0 0.106 0.037 0.113 0.1 0.026 0.221 0.050 0.44 0.074 0.662 0.043 0.403 0.089 0.808 0.132 1.214 0.034 0.296 0.060 0.592 0.091 0.885 0.050 0.466 0.099 0.923 0.149 1.372l0.050-0.012z"></path>
<path fill="#fff" style="fill: var(--color3, #fff)" d="M11.095 31.993v-0.149c0-1.831 0-3.665 0-5.499 0-0.121 0.031-0.158 0.163-0.158 0.557 0 1.117 0 1.68 0 0.113 0 0.149 0.037 0.173 0.137 0.297 1.258 0.598 2.515 0.9 3.77 0.014 0.035 0.031 0.070 0.050 0.102 0.048-0.191 0.091-0.352 0.13-0.51 0.264-1.111 0.53-2.22 0.792-3.332 0.029-0.121 0.070-0.172 0.216-0.17 0.54 0 1.077 0 1.615 0h0.163v5.799h-1.492v-3.604h-0.053c-0.256 1.204-0.513 2.411-0.77 3.621-0.384 0-0.763 0-1.14 0-0.036 0-0.094-0.065-0.103-0.11-0.166-0.762-0.326-1.526-0.48-2.29-0.077-0.366-0.151-0.729-0.24-1.095-0.011-0.045-0.037-0.085-0.074-0.114v0.151c0 1.1 0 2.2 0 3.299 0 0.137-0.043 0.17-0.182 0.168-0.441-0.021-0.881-0.016-1.346-0.016z"></path>
<path fill="#fff" style="fill: var(--color3, #fff)" d="M50.533 26.182h0.278c0.732 0 1.464 0 2.193 0 0.208 0.009 0.412 0.059 0.6 0.147 0.134 0.069 0.244 0.175 0.317 0.305s0.104 0.277 0.091 0.424c0 1.344 0 2.687 0 4.031 0.004 0.12-0.018 0.24-0.065 0.351s-0.117 0.212-0.206 0.296c-0.089 0.084-0.195 0.148-0.311 0.19s-0.24 0.059-0.364 0.051h-2.534v-5.795zM52.023 26.827v4.343c-0.004 0.036-0.004 0.072 0 0.107 0.003 0.012 0.008 0.023 0.015 0.032s0.017 0.018 0.028 0.023c0.046 0.021 0.096 0.030 0.147 0.027s0.099-0.019 0.142-0.045c0.042-0.026 0.077-0.063 0.101-0.107s0.036-0.092 0.035-0.141c0-1.325 0-2.65 0-3.975 0-0.175-0.096-0.259-0.278-0.266h-0.19z"></path>
<path fill="#fff" style="fill: var(--color3, #fff)" d="M43.59 29.742c0.24 0.75 0.48 1.496 0.737 2.251-0.502 0-0.981 0-1.464 0-0.101 0-0.113-0.058-0.13-0.124-0.151-0.636-0.3-1.27-0.451-1.906-0.005-0.026-0.014-0.051-0.026-0.075-0.019-0.018-0.044-0.028-0.070-0.028-0.012 0-0.031 0.030-0.034 0.047-0.004 0.036-0.004 0.072 0 0.107v1.967c-0.055 0-0.096 0-0.137 0-0.41 0-0.823 0-1.236 0-0.115 0-0.151-0.033-0.151-0.142 0-0.61 0-1.219 0-1.829v-3.642c0-0.177 0-0.177 0.18-0.177 0.768 0 1.536 0 2.304 0 0.164 0.002 0.326 0.030 0.48 0.084 0.149 0.042 0.28 0.129 0.374 0.248s0.145 0.265 0.147 0.416c0.026 0.638 0.024 1.279 0.031 1.92 0.007 0.084 0.007 0.168 0 0.252-0.011 0.149-0.071 0.291-0.17 0.404s-0.234 0.193-0.384 0.227zM42.15 29.192c0.343 0.056 0.463-0.037 0.463-0.354v-1.652c0-0.301-0.142-0.401-0.463-0.328v2.335z"></path>
<path fill="#fff" style="fill: var(--color3, #fff)" d="M38.79 29.097c0 0.673 0 1.344 0 2.015 0.006 0.119-0.014 0.238-0.059 0.348s-0.113 0.211-0.2 0.294c-0.088 0.083-0.192 0.147-0.307 0.189s-0.238 0.058-0.36 0.050c-0.518 0-1.039 0-1.557 0-0.703 0-0.996-0.37-1.001-0.932-0.017-1.316-0.019-2.635 0-3.961 0-0.62 0.338-0.89 0.977-0.92 0.516-0.023 1.032-0.019 1.545 0 0.581 0.021 0.972 0.301 0.96 0.932 0.002 0.669 0.002 1.328 0.002 1.985zM36.823 29.097v2.015c0 0.179 0.065 0.245 0.24 0.233s0.24-0.075 0.24-0.247v-4.001c0-0.177-0.079-0.259-0.24-0.259s-0.228 0.070-0.228 0.252l-0.012 2.006z"></path>
<path fill="#fff" style="fill: var(--color3, #fff)" d="M6.279 26.182h0.137c0.698 0 1.396 0 2.095 0 0.118 0 0.156 0.044 0.17 0.14 0.048 0.368 0.096 0.739 0.146 1.107 0.058 0.447 0.12 0.895 0.18 1.344 0.053 0.384 0.103 0.771 0.156 1.165s0.103 0.764 0.156 1.146c0.041 0.296 0.079 0.594 0.12 0.902-0.039 0.002-0.078 0.002-0.118 0-0.413 0-0.825 0-1.238 0-0.101 0-0.132-0.028-0.139-0.126-0.029-0.433-0.072-0.867-0.108-1.3 0-0.070-0.034-0.105-0.113-0.103-0.197 0-0.394 0-0.607 0l-0.142 1.519h-1.478c0.262-1.925 0.523-3.856 0.782-5.795zM7.748 29.805c0-0.098 0-0.184 0-0.266-0.043-0.48-0.094-0.96-0.134-1.44-0.034-0.366-0.058-0.732-0.091-1.097 0-0.035-0.034-0.068-0.053-0.102h-0.043l-0.257 2.896 0.578 0.009z"></path>
<path fill="#fff" style="fill: var(--color3, #fff)" d="M2.318 28.032c0-0.319 0-0.634 0-0.948 0.001-0.031-0.004-0.061-0.015-0.090s-0.027-0.055-0.049-0.078-0.047-0.041-0.076-0.054c-0.029-0.013-0.060-0.020-0.091-0.021s-0.063 0.004-0.093 0.014-0.057 0.027-0.080 0.048c-0.023 0.021-0.042 0.046-0.055 0.073s-0.021 0.058-0.022 0.088v4.031c0 0.191 0.062 0.256 0.24 0.254s0.24-0.075 0.24-0.261v-1.258c-0.010-0.009-0.022-0.017-0.034-0.023-0.192-0.019-0.192-0.019-0.192-0.21 0-0.135 0-0.268 0-0.401 0.004-0.011 0.009-0.022 0.014-0.033h1.72c0 0.047 0 0.093 0 0.14 0 0.534 0 1.067 0 1.603 0 0.142-0.015 0.283-0.046 0.422-0.041 0.191-0.149 0.362-0.307 0.483s-0.354 0.184-0.555 0.179c-0.566 0-1.135 0.016-1.701 0-0.111 0.006-0.221-0.010-0.326-0.046s-0.2-0.093-0.282-0.165c-0.082-0.073-0.148-0.16-0.194-0.258s-0.072-0.203-0.076-0.311c-0.012-0.163-0.024-0.329-0.024-0.492 0-1.149 0-2.295 0-3.444-0.002-0.164 0.018-0.328 0.060-0.487 0.038-0.156 0.128-0.295 0.255-0.396s0.286-0.16 0.45-0.165c0.499-0.035 1.001-0.033 1.5-0.030 0.218 0 0.436 0.025 0.648 0.075 0.16 0.037 0.302 0.125 0.405 0.249s0.16 0.279 0.163 0.438c0.029 0.322 0.019 0.648 0.029 0.972 0 0.084-0.024 0.117-0.12 0.117-0.434 0-0.869 0-1.305 0-0.028-0.003-0.056-0.008-0.084-0.014z"></path>
<path fill="#fff" style="fill: var(--color3, #fff)" d="M21.953 31.993h-2.975c-0.115 0-0.154-0.026-0.154-0.14 0-1.841 0-3.684 0-5.524 0-0.082 0-0.144 0.12-0.142h2.851c0.026 0 0.055 0 0.098 0v0.559c0 0.096-0.074 0.077-0.13 0.077h-1.401v1.778c0.043 0 0.094 0 0.142 0 0.417 0 0.833 0 1.25 0 0.108 0 0.151 0.023 0.144 0.133 0 0.163 0 0.328 0 0.513h-1.538v2.085h0.17c0.427 0 0.852 0 1.279 0 0.118 0 0.154 0.035 0.149 0.144-0.012 0.179-0.005 0.338-0.005 0.517z"></path>
<path fill="#fff" style="fill: var(--color3, #fff)" d="M46.008 26.196h1.485v5.147c0.065 0 0.115 0 0.166 0 0.355 0 0.72 0 1.065 0 0.12 0 0.156 0.035 0.149 0.144s0 0.266 0 0.401c0 0.063-0.014 0.1-0.094 0.1h-2.771v-5.792z"></path>
</symbol>
<symbol id="icon-gsc_logo_white" viewBox="0 0 55 32">
<path fill="#fff" style="fill: var(--color1, #fff)" d="M36.501 21.429c-3.738-0.177-3.503-3.835-3.503-3.835v-5.259h-0.050l0.050-0.026v0.021c0.901-0.047 1.805-0.047 2.707 0 1.831 0.075 1.963 0.256 1.963 0.256 2.678 0.387 3.105 3.064 3.105 3.064v1.186c0.24 4.406-4.245 4.611-4.271 4.585v0.007zM30.872 10.431h-6.838c0 0 0.902-5.536-6.923-5.536 0.026 0.026-2.918 0.026-2.918 0.026s-0.213-3.094 5.704-3.094h14.006c0 0 5.305-0.382 6.419 3.094 0.024 0.026-3.105 0-3.105 0s-6.234-0.175-6.344 5.51zM14.032 6.827h3.582c0 0 4.379-0.387 4.242 3.553h-2.2c0 0-5.704 0.31-5.624-3.553zM22.814 21.559c0 0 1.459-1.34 1.2-6.179 0 0.023-11.997 0-11.997 0v1.699c0 0-0.055 3.029 1.92 4.481 0 0.026-6.846 0-6.846 0s-2.016 0-2.839-0.466c0 0-2.040-0.515-2.066-3.262s0-6.757 0-6.757c0 0 0.132-2.188 0.689-2.78 0.266-0.31 0.662-1.107 2.2-1.291 0 0 0.48-0.177 2.759-0.177h3.942c0 0-0.024 3.029 1.992 4.224 0.024 0 1.936 1.209 6.076 1.209h10.954v4.893c-0.024 1.557 0.418 3.088 1.272 4.406h-9.255zM18.939 21.406c0 0-4.624-0.179-4.624-4.173h7.508c0 0 0.37 4.224-2.894 4.173h0.010zM54.821 18.211c0 0-2.16-0.028-2.121 0 0.024 3.728-4.537 3.309-4.537 3.309h-6.637c2.16-2.202 1.356-6.338 1.356-6.372-0.199-3.206-4.619-4.252-4.619-4.213-2.224-0.503-5.25-0.543-5.25-0.543 0.079-3.782 4.377-3.549 4.377-3.549s6.803-0.077 11.222 0c4.42 0.077 4.137 3.323 4.137 3.323s2.107 0.040 2.107 0c0.041-5.252-6.287-5.215-6.287-5.215s-5.968 0.037-5.968 0c-0.835-4.986-7.52-4.947-7.52-4.947h-16.47c-5.975 0.082-6.752 4.916-6.752 4.916h-5.039c-7.141-0.051-6.817 5.743-6.817 5.743s0.024 1.002 0 7.134c-0.024 6.132 7.225 5.666 7.225 5.666h40.655c7.796 0 6.959-5.254 6.959-5.254z"></path>
<path fill="#fff" style="fill: var(--color1, #fff)" d="M31.695 30.425c0.019-0.163 0.041-0.329 0.055-0.492 0.038-0.387 0.074-0.776 0.11-1.165 0.022-0.233 0.038-0.466 0.060-0.687l0.108-1.151c0.022-0.217 0.036-0.433 0.065-0.65 0.005-0.020 0.015-0.038 0.030-0.053s0.032-0.026 0.052-0.033c0.48 0 0.96 0 1.466 0 0 0.084-0.017 0.156-0.029 0.233-0.077 0.466-0.154 0.953-0.24 1.431-0.091 0.555-0.182 1.11-0.271 1.666-0.089 0.538-0.175 1.074-0.264 1.612-0.043 0.259-0.084 0.517-0.132 0.774-0.008 0.022-0.022 0.041-0.039 0.056s-0.039 0.026-0.062 0.032c-0.626 0-1.253 0-1.905 0-0.132-1.319-0.264-2.631-0.396-3.945h-0.046c-0.020 0.062-0.035 0.125-0.046 0.189-0.034 0.314-0.060 0.627-0.091 0.932-0.043 0.432-0.088 0.864-0.134 1.295-0.031 0.303-0.058 0.608-0.089 0.911-0.019 0.177-0.034 0.354-0.060 0.529-0.007 0.019-0.019 0.037-0.035 0.051s-0.035 0.024-0.056 0.029c-0.605 0-1.209 0-1.814 0-0.021-0.005-0.041-0.015-0.056-0.029s-0.028-0.032-0.035-0.052c-0.072-0.387-0.134-0.776-0.199-1.165l-0.24-1.442c-0.089-0.552-0.18-1.102-0.269-1.654-0.070-0.429-0.142-0.855-0.211-1.284 0-0.051 0-0.105-0.014-0.163 0.039-0.002 0.078-0.002 0.118 0 0.437 0 0.871 0 1.308 0 0.096 0 0.125 0.026 0.132 0.119 0.048 0.566 0.108 1.13 0.161 1.694 0.034 0.359 0.058 0.718 0.089 1.074 0.038 0.443 0.078 0.884 0.12 1.323 0 0 0 0.014 0.031 0.044 0.016-0.037 0.028-0.075 0.036-0.114 0.077-0.683 0.151-1.366 0.223-2.048 0.050-0.48 0.098-0.962 0.146-1.442 0.019-0.189 0.034-0.38 0.062-0.569 0.007-0.020 0.020-0.037 0.036-0.051s0.036-0.023 0.057-0.026c0.554 0 1.106 0 1.658 0 0.084 0 0.106 0.037 0.113 0.1 0.026 0.221 0.050 0.44 0.074 0.662 0.043 0.403 0.089 0.808 0.132 1.214 0.034 0.296 0.060 0.592 0.091 0.885 0.050 0.466 0.099 0.923 0.149 1.372l0.050-0.012z"></path>
<path fill="#fff" style="fill: var(--color1, #fff)" d="M11.095 31.993v-0.149c0-1.831 0-3.665 0-5.499 0-0.121 0.031-0.158 0.163-0.158 0.557 0 1.117 0 1.68 0 0.113 0 0.149 0.037 0.173 0.137 0.297 1.258 0.598 2.515 0.9 3.77 0.014 0.035 0.031 0.070 0.050 0.102 0.048-0.191 0.091-0.352 0.13-0.51 0.264-1.111 0.53-2.22 0.792-3.332 0.029-0.121 0.070-0.172 0.216-0.17 0.54 0 1.077 0 1.615 0h0.163v5.799h-1.492v-3.604h-0.053c-0.256 1.204-0.513 2.411-0.77 3.621-0.384 0-0.763 0-1.14 0-0.036 0-0.094-0.065-0.103-0.11-0.166-0.762-0.326-1.526-0.48-2.29-0.077-0.366-0.151-0.729-0.24-1.095-0.011-0.045-0.037-0.085-0.074-0.114v0.151c0 1.1 0 2.2 0 3.299 0 0.137-0.043 0.17-0.182 0.168-0.441-0.021-0.881-0.016-1.346-0.016z"></path>
<path fill="#fff" style="fill: var(--color1, #fff)" d="M50.533 26.182h0.278c0.732 0 1.464 0 2.193 0 0.208 0.009 0.412 0.059 0.6 0.147 0.134 0.069 0.244 0.175 0.317 0.305s0.104 0.277 0.091 0.424c0 1.344 0 2.687 0 4.031 0.004 0.12-0.018 0.24-0.065 0.351s-0.117 0.212-0.206 0.296c-0.089 0.084-0.195 0.148-0.311 0.19s-0.24 0.059-0.364 0.051h-2.534v-5.795zM52.023 26.827v4.343c-0.004 0.036-0.004 0.072 0 0.107 0.003 0.012 0.008 0.023 0.015 0.032s0.017 0.018 0.028 0.023c0.046 0.021 0.096 0.030 0.147 0.027s0.099-0.019 0.142-0.045c0.042-0.026 0.077-0.063 0.101-0.107s0.036-0.092 0.035-0.141c0-1.325 0-2.65 0-3.975 0-0.175-0.096-0.259-0.278-0.266h-0.19z"></path>
<path fill="#fff" style="fill: var(--color1, #fff)" d="M43.59 29.742c0.24 0.75 0.48 1.496 0.737 2.251-0.502 0-0.981 0-1.464 0-0.101 0-0.113-0.058-0.13-0.124-0.151-0.636-0.3-1.27-0.451-1.906-0.005-0.026-0.014-0.051-0.026-0.075-0.019-0.018-0.044-0.028-0.070-0.028-0.012 0-0.031 0.030-0.034 0.047-0.004 0.036-0.004 0.072 0 0.107v1.967c-0.055 0-0.096 0-0.137 0-0.41 0-0.823 0-1.236 0-0.115 0-0.151-0.033-0.151-0.142 0-0.61 0-1.219 0-1.829v-3.642c0-0.177 0-0.177 0.18-0.177 0.768 0 1.536 0 2.304 0 0.164 0.002 0.326 0.030 0.48 0.084 0.149 0.042 0.28 0.129 0.374 0.248s0.145 0.265 0.147 0.416c0.026 0.638 0.024 1.279 0.031 1.92 0.007 0.084 0.007 0.168 0 0.252-0.011 0.149-0.071 0.291-0.17 0.404s-0.234 0.193-0.384 0.227zM42.15 29.192c0.343 0.056 0.463-0.037 0.463-0.354v-1.652c0-0.301-0.142-0.401-0.463-0.328v2.335z"></path>
<path fill="#fff" style="fill: var(--color1, #fff)" d="M38.79 29.097c0 0.673 0 1.344 0 2.015 0.006 0.119-0.014 0.238-0.059 0.348s-0.113 0.211-0.2 0.294c-0.088 0.083-0.192 0.147-0.307 0.189s-0.238 0.058-0.36 0.050c-0.518 0-1.039 0-1.557 0-0.703 0-0.996-0.37-1.001-0.932-0.017-1.316-0.019-2.635 0-3.961 0-0.62 0.338-0.89 0.977-0.92 0.516-0.023 1.032-0.019 1.545 0 0.581 0.021 0.972 0.301 0.96 0.932 0.002 0.669 0.002 1.328 0.002 1.985zM36.823 29.097v2.015c0 0.179 0.065 0.245 0.24 0.233s0.24-0.075 0.24-0.247v-4.001c0-0.177-0.079-0.259-0.24-0.259s-0.228 0.070-0.228 0.252l-0.012 2.006z"></path>
<path fill="#fff" style="fill: var(--color1, #fff)" d="M6.279 26.182h0.137c0.698 0 1.396 0 2.095 0 0.118 0 0.156 0.044 0.17 0.14 0.048 0.368 0.096 0.739 0.146 1.107 0.058 0.447 0.12 0.895 0.18 1.344 0.053 0.384 0.103 0.771 0.156 1.165s0.103 0.764 0.156 1.146c0.041 0.296 0.079 0.594 0.12 0.902-0.039 0.002-0.078 0.002-0.118 0-0.413 0-0.825 0-1.238 0-0.101 0-0.132-0.028-0.139-0.126-0.029-0.433-0.072-0.867-0.108-1.3 0-0.070-0.034-0.105-0.113-0.103-0.197 0-0.394 0-0.607 0l-0.142 1.519h-1.478c0.262-1.925 0.523-3.856 0.782-5.795zM7.748 29.805c0-0.098 0-0.184 0-0.266-0.043-0.48-0.094-0.96-0.134-1.44-0.034-0.366-0.058-0.732-0.091-1.097 0-0.035-0.034-0.068-0.053-0.102h-0.043l-0.257 2.896 0.578 0.009z"></path>
<path fill="#fff" style="fill: var(--color1, #fff)" d="M2.318 28.032c0-0.319 0-0.634 0-0.948 0.001-0.031-0.004-0.061-0.015-0.090s-0.027-0.055-0.049-0.078-0.047-0.041-0.076-0.054c-0.029-0.013-0.060-0.020-0.091-0.021s-0.063 0.004-0.093 0.014-0.057 0.027-0.080 0.048c-0.023 0.021-0.042 0.046-0.055 0.073s-0.021 0.058-0.022 0.088v4.031c0 0.191 0.062 0.256 0.24 0.254s0.24-0.075 0.24-0.261v-1.258c-0.010-0.009-0.022-0.017-0.034-0.023-0.192-0.019-0.192-0.019-0.192-0.21 0-0.135 0-0.268 0-0.401 0.004-0.011 0.009-0.022 0.014-0.033h1.72c0 0.047 0 0.093 0 0.14 0 0.534 0 1.067 0 1.603 0 0.142-0.015 0.283-0.046 0.422-0.041 0.191-0.149 0.362-0.307 0.483s-0.354 0.184-0.555 0.179c-0.566 0-1.135 0.016-1.701 0-0.111 0.006-0.221-0.010-0.326-0.046s-0.2-0.093-0.282-0.165c-0.082-0.073-0.148-0.16-0.194-0.258s-0.072-0.203-0.076-0.311c-0.012-0.163-0.024-0.329-0.024-0.492 0-1.149 0-2.295 0-3.444-0.002-0.164 0.018-0.328 0.060-0.487 0.038-0.156 0.128-0.295 0.255-0.396s0.286-0.16 0.45-0.165c0.499-0.035 1.001-0.033 1.5-0.030 0.218 0 0.436 0.025 0.648 0.075 0.16 0.037 0.302 0.125 0.405 0.249s0.16 0.279 0.163 0.438c0.029 0.322 0.019 0.648 0.029 0.972 0 0.084-0.024 0.117-0.12 0.117-0.434 0-0.869 0-1.305 0-0.028-0.003-0.056-0.008-0.084-0.014z"></path>
<path fill="#fff" style="fill: var(--color1, #fff)" d="M21.953 31.993h-2.975c-0.115 0-0.154-0.026-0.154-0.14 0-1.841 0-3.684 0-5.524 0-0.082 0-0.144 0.12-0.142h2.851c0.026 0 0.055 0 0.098 0v0.559c0 0.096-0.074 0.077-0.13 0.077h-1.401v1.778c0.043 0 0.094 0 0.142 0 0.417 0 0.833 0 1.25 0 0.108 0 0.151 0.023 0.144 0.133 0 0.163 0 0.329 0 0.513h-1.538v2.085h0.17c0.427 0 0.852 0 1.279 0 0.118 0 0.154 0.035 0.149 0.144-0.012 0.179-0.005 0.338-0.005 0.517z"></path>
<path fill="#fff" style="fill: var(--color1, #fff)" d="M46.008 26.196h1.485v5.147c0.065 0 0.115 0 0.166 0 0.355 0 0.72 0 1.065 0 0.12 0 0.156 0.035 0.149 0.144s0 0.266 0 0.401c0 0.063-0.014 0.1-0.094 0.1h-2.771v-5.792z"></path>
</symbol>
</defs>
</svg>
